<mxfile host="app.diagrams.net" modified="2024-05-13T18:37:54.122Z" agent="Mozilla/5.0 (X11; Linux x86_64; rv:125.0) Gecko/20100101 Firefox/125.0" etag="m2QS0SWkKHVn3Bp64H7N" version="24.4.0" type="github">
  <diagram name="Page-1" id="l5kwONbk5efSGAeoIdga">
    <mxGraphModel dx="819" dy="452" grid="1" gridSize="10" guides="1" tooltips="1" connect="1" arrows="1" fold="1" page="1" pageScale="1" pageWidth="850" pageHeight="1100" math="1" shadow="0">
      <root>
        <mxCell id="0" />
        <mxCell id="1" parent="0" />
        <mxCell id="rfoxh8sL7PM3ER87yD67-1" value="" style="shape=image;imageAspect=0;aspect=fixed;verticalLabelPosition=bottom;verticalAlign=top;image=data:image/png,iVBORw0KGgoAAAANSUhEUgAAB6gAAAHYCAYAAADwJbZCAAAMQWlDQ1BJQ0MgUHJvZmlsZQAASImVVwdYU8kWnluSkEBoAQSkhN4EkRpASggt9I4gKiEJEEqMgaBiRxYVXAsqFrChqyIKVkAsKGJnUex9saCirIsFu/ImBXTdV7433zd3/vvPmf+cOXfunTsAqB3niES5qDoAecICcWywP31ccgqd9BSQgRHQBl7AmMPNFzGjo8MBLEPt38u76wCRtlfspVr/7P+vRYPHz+cCgERDnM7L5+ZBfAAAvJorEhcAQJTyZlMLRFIMK9ASwwAhXijFmXJcLcXpcrxHZhMfy4K4HQAlFQ5HnAmA6iXI0wu5mVBDtR9iRyFPIARAjQ6xT17eZB7EaRBbQxsRxFJ9RvoPOpl/00wf1uRwMoexfC6yohQgyBflcqb/n+n43yUvVzLkwxJWlSxxSKx0zjBvN3Mmh0mxCsR9wvTIKIg1If4g4MnsIUYpWZKQBLk9asDNZ8GcAR2IHXmcgDCIDSAOEuZGhiv49AxBEBtiuELQaYICdjzEuhAv5OcHxilsNoknxyp8oY0ZYhZTwZ/liGV+pb7uS3ISmAr911l8tkIfUy3Kik+CmAKxeaEgMRJiVYgd8nPiwhQ2Y4uyWJFDNmJJrDR+c4hj+cJgf7k+VpghDopV2Jfl5Q/NF9uUJWBHKvC+gqz4EHl+sHYuRxY/nAt2iS9kJgzp8PPHhQ/NhccPCJTPHXvGFybEKXQ+iAr8Y+VjcYooN1phj5vyc4OlvCnELvmFcYqxeGIBXJByfTxDVBAdL48TL8rmhEbL48GXgXDAAgGADiSwpoPJIBsIOvua+uCdvCcIcIAYZAI+sFcwQyOSZD1CeI0DReBPiPggf3icv6yXDwoh/3WYlV/tQYast1A2Igc8gTgPhIFceC+RjRIOe0sEjyEj+Id3DqxcGG8urNL+f88Psd8ZJmTCFYxkyCNdbciSGEgMIIYQg4g2uD7ug3vh4fDqB6sTzsA9hubx3Z7whNBFeEi4Rugm3JokKBb/FGUE6Ib6QYpcpP+YC9wSarri/rg3VIfKuA6uD+xxF+iHiftCz66QZSnilmaF/pP232bww9NQ2JEdySh5BNmPbP3zSFVbVddhFWmuf8yPPNb04Xyzhnt+9s/6Ifs82Ib9bIktxPZjZ7AT2DnsCNYE6Fgr1ox1YEeleHh1PZatriFvsbJ4cqCO4B/+hp6sNJP5jnWOvY5f5H0F/GnSbzRgTRZNFwsyswroTLgj8OlsIddhFN3J0ckZAOn+Iv98vYmR7RuITsd3bv4fAHi3Dg4OHv7OhbYCsNcdvv6HvnPWDLh1KANw9hBXIi6Uc7j0QoBfCTX4punB/csMWMP5OAE3uI/5gUAQCqJAPEgGE2H0WXCdi8FUMBPMA6WgHCwDq8A6sBFsATvAbrAPNIEj4AQ4DS6AS+AauANXTw94AfrBO/AZQRASQkVoiB5ijFggdogTwkB8kEAkHIlFkpE0JBMRIhJkJjIfKUcqkHXIZqQW2YscQk4g55Au5BbyAOlFXiOfUAxVQbVQQ9QSHY0yUCYahsajE9BMdApahJagS9A1aA26C21ET6AX0GtoN/oCHcAApozpYCaYPcbAWFgUloJlYGJsNlaGVWI1WD3WAp/zFawb68M+4kSchtNxe7iCQ/AEnItPwWfji/F1+A68EW/Hr+AP8H78G4FKMCDYETwJbMI4QiZhKqGUUEnYRjhIOAXfpR7COyKRqEO0IrrDdzGZmE2cQVxMXE9sIB4ndhEfEQdIJJIeyY7kTYoicUgFpFLSWtIuUivpMqmH9EFJWclYyUkpSClFSahUrFSptFPpmNJlpadKn8nqZAuyJzmKzCNPJy8lbyW3kC+Se8ifKRoUK4o3JZ6STZlHWUOpp5yi3KW8UVZWNlX2UI5RFijPVV6jvEf5rPID5Y8qmiq2KiyVVBWJyhKV7SrHVW6pvKFSqZZUP2oKtYC6hFpLPUm9T/2gSlN1UGWr8lTnqFapNqpeVn2pRlazUGOqTVQrUqtU2692Ua1Pnaxuqc5S56jPVq9SP6R+Q31Ag6YxRiNKI09jscZOjXMazzRJmpaagZo8zRLNLZonNR/RMJoZjUXj0ubTttJO0Xq0iFpWWmytbK1yrd1anVr92praLtqJ2tO0q7SPanfrYDqWOmydXJ2lOvt0rut8GmE4gjmCP2LRiPoRl0e81x2p66fL1y3TbdC9pvtJj64XqJejt1yvSe+ePq5vqx+jP1V/g/4p/b6RWiO9RnJHlo3cN/K2AWpgaxBrMMNgi0GHwYChkWGwochwreFJwz4jHSM/o2yjlUbHjHqNacY+xgLjlcatxs/p2nQmPZe+ht5O7zcxMAkxkZhsNuk0+WxqZZpgWmzaYHrPjGLGMMswW2nWZtZvbmweYT7TvM78tgXZgmGRZbHa4ozFe0sryyTLBZZNls+sdK3YVkVWdVZ3ranWvtZTrGusr9oQbRg2OTbrbS7Zorautlm2VbYX7VA7NzuB3Xq7rlGEUR6jhKNqRt2wV7Fn2hfa19k/cNBxCHcodmhyeDnafHTK6OWjz4z+5ujqmOu41fHOGM0xoWOKx7SMee1k68R1qnK66kx1DnKe49zs/MrFzoXvssHlpivNNcJ1gWub61c3dzexW71br7u5e5p7tfsNhhYjmrGYcdaD4OHvMcfjiMdHTzfPAs99nn952XvleO30ejbWaix/7Naxj7xNvTnem727feg+aT6bfLp9TXw5vjW+D/3M/Hh+2/yeMm2Y2cxdzJf+jv5i/4P+71merFms4wFYQHBAWUBnoGZgQuC6wPtBpkGZQXVB/cGuwTOCj4cQQsJClofcYBuyuexadn+oe+is0PYwlbC4sHVhD8Ntw8XhLRFoRGjEioi7kRaRwsimKBDFjloRdS/aKnpK9OEYYkx0TFXMk9gxsTNjz8TR4ibF7Yx7F+8fvzT+ToJ1giShLVEtMTWxNvF9UkBSRVL3uNHjZo27kKyfLEhuTiGlJKZsSxkYHzh+1fieVNfU0tTrE6wmTJtwbqL+xNyJRyepTeJM2p9GSEtK25n2hRPFqeEMpLPTq9P7uSzuau4Lnh9vJa+X782v4D/N8M6oyHiW6Z25IrM3yzerMqtPwBKsE7zKDsnemP0+Jypne85gblJuQ55SXlreIaGmMEfYPtlo8rTJXSI7Uamoe4rnlFVT+sVh4m35SP6E/OYCLfgj3yGxlvwieVDoU1hV+GFq4tT90zSmCad1TLedvmj606Kgot9m4DO4M9pmmsycN/PBLOaszbOR2emz2+aYzSmZ0zM3eO6OeZR5OfN+L3Ysrih+Oz9pfkuJYcnckke/BP9SV6paKi69scBrwcaF+ELBws5FzovWLvpWxis7X+5YXln+ZTF38flfx/y65tfBJRlLOpe6Ld2wjLhMuOz6ct/lOyo0KooqHq2IWNG4kr6ybOXbVZNWnat0qdy4mrJasrp7Tfia5rXma5et/bIua921Kv+qhmqD6kXV79fz1l/e4LehfqPhxvKNnzYJNt3cHLy5scaypnILcUvhlidbE7ee+Y3xW+02/W3l275uF27v3hG7o73WvbZ2p8HOpXVonaSud1fqrku7A3Y319vXb27QaSjfA/ZI9jzfm7b3+r6wfW37GfvrD1gcqD5IO1jWiDROb+xvymrqbk5u7joUeqitxavl4GGHw9uPmBypOqp9dOkxyrGSY4OtRa0Dx0XH+05knnjUNqntzslxJ6+2x7R3ngo7dfZ00OmTZ5hnWs96nz1yzvPcofOM800X3C40drh2HPzd9feDnW6djRfdLzZf8rjU0jW269hl38snrgRcOX2VffXCtchrXdcTrt+8kXqj+ybv5rNbubde3S68/fnO3LuEu2X31O9V3je4X/OHzR8N3W7dRx8EPOh4GPfwziPuoxeP8x9/6Sl5Qn1S+dT4ae0zp2dHeoN6Lz0f/7znhejF577SPzX+rH5p/fLAX35/dfSP6+95JX41+HrxG70329+6vG0biB64/y7v3ef3ZR/0Puz4yPh45lPSp6efp34hfVnz1eZry7ewb3cH8wYHRRwxR/YrgMGKZmQA8Ho7ANRkAGjwfEYZLz//yQoiP7PKEPhPWH5GlBU3AOrh/3tMH/y7uQHAnq3w+AX11VIBiKYCEO8BUGfn4Tp0VpOdK6WFCM8BmyK/puelg39T5GfOH+L+uQVSVRfwc/svm1d8nuUzGzkAAACKZVhJZk1NACoAAAAIAAQBGgAFAAAAAQAAAD4BGwAFAAAAAQAAAEYBKAADAAAAAQACAACHaQAEAAAAAQAAAE4AAAAAAAAAkAAAAAEAAACQAAAAAQADkoYABwAAABIAAAB4oAIABAAAAAEAAAeooAMABAAAAAEAAAHYAAAAAEFTQ0lJAAAAU2NyZWVuc2hvdEiecc4AAAAJcEhZcwAAFiUAABYlAUlSJPAAAAHXaVRYdFhNTDpjb20uYWRvYmUueG1wAAAAAAA8eDp4bXBtZXRhIHhtbG5zOng9ImFkb2JlOm5zOm1ldGEvIiB4OnhtcHRrPSJYTVAgQ29yZSA2LjAuMCI+CiAgIDxyZGY6UkRGIHhtbG5zOnJkZj0iaHR0cDovL3d3dy53My5vcmcvMTk5OS8wMi8yMi1yZGYtc3ludGF4LW5zIyI+CiAgICAgIDxyZGY6RGVzY3JpcHRpb24gcmRmOmFib3V0PSIiCiAgICAgICAgICAgIHhtbG5zOmV4aWY9Imh0dHA6Ly9ucy5hZG9iZS5jb20vZXhpZi8xLjAvIj4KICAgICAgICAgPGV4aWY6UGl4ZWxZRGltZW5zaW9uPjQ3MjwvZXhpZjpQaXhlbFlEaW1lbnNpb24+CiAgICAgICAgIDxleGlmOlBpeGVsWERpbWVuc2lvbj4xOTYwPC9leGlmOlBpeGVsWERpbWVuc2lvbj4KICAgICAgICAgPGV4aWY6VXNlckNvbW1lbnQ+U2NyZWVuc2hvdDwvZXhpZjpVc2VyQ29tbWVudD4KICAgICAgPC9yZGY6RGVzY3JpcHRpb24+CiAgIDwvcmRmOlJERj4KPC94OnhtcG1ldGE+Cs8Sz0AAAAAcaURPVAAAAAIAAAAAAAAA7AAAACgAAADsAAAA7AAA/qrqZp1GAABAAElEQVR4AeydCdwN1f/Hv5G0yFIqpQURLX/JkiX73qJCdrJFopTsj6RFRGUrCglJZGsRkS1RaUFaLRXte5YWW/Gf7/WbuXPvc/c7c+9z732fXpo5Z86c5T3nmTszn/P9nuOOGkEIEIAABCAAAQhAAAIQgAAEIAABCEAAAhCAAAQgAAEIQAACEIAABCAAAZcJHIdA7TJhiocABCAAAQhAAAIQgAAEIAABCEAAAhCAAAQgAAEIQAACEIAABCAAAQ8BBGoGAgQgAAEIQAACEIAABCAAAQhAAAIQgAAEIAABCEAAAhCAAAQgAAEIJIQAAnVCMFMJBCAAAQhAAAIQgAAEIAABCEAAAhCAAAQgAAEIQAACEIAABCAAAQggUDMGIAABCEAAAhCAAAQgAAEIQAACEIAABCAAAQhAAAIQgAAEIAABCEAgIQQQqBOCmUogAAEIQAACEIAABCAAAQhAAAIQgAAEIAABCEAAAhCAAAQgAAEIQACBmjEAAQhAAAIQgAAEIAABCEAAAhCAAAQgAAEIQAACEIAABCAAAQhAAAIJIYBAnRDMVAIBCEAAAhCAAAQgAAEIQAACEIAABCAAAQhAAAIQgAAEIAABCEAAAgjUjAEIQAACEIAABCAAAQhAAAIQgAAEIAABCEAAAhCAAAQgAAEIQAACEEgIAQTqhGCmEghAAAIQgAAEIAABCEAgGQSmTp0qe/bskR07dojuBwoFCxaUrKwsz6H+/fsHykIaBCAAAQhAAAIQgAAEIAABCEAAAhCAgEMEEKgdAkkxEIAABCAAAQhAAAIQgEDOIDB//nwx/8XSogYNGki3bt2kRYsWsZzOORCAAAQgAAEIQAACEIAABCAAAQhAAAIhCCBQh4DDIQhAAAIQgECqEFDrQNMycMCAAQGbrYKL/itWrBiiS0BCJEIAAqlOQEXpkSNHyubNmx3pit4zp0yZ4rlvOlIghUAAAhCAAAQgAAEIQAACEIAABCAAAQgIAjWDAAIQgEAcBB555BHP2XPmzAn6MVxdhZ5xxhmIgnFw5tTgBFSUfvLJJ4OOv+BniujY7NmzJ8JLKEgcgwAEUoZAy5YtPVbTTjdY3X/PmzfPM8HH6bIpDwIQgEAyCZhLILz//vtB75/qTaJUqVJSv359ueKKK5LZXOrOAAK8X2fARaaLEIAABCAAAQhA4H8EEKgZChCAAASiJKAfctRCa8WKFVGeeSy7ioJt2rSxPvCo5atavJrWr2qtNWrUKOt4TJVwUtoTUOvArl27xiRM+8MZPXq0R6z2TycOAX8Cet9TEVDvW04Evd+9/vrrThRFGRlMYNeuXdKsWTNH7oehMOpY1TFLgEAgAtwfA1EhLScSMJc/0G20QSfsZGVl8dwYLTjyhyTA+3VIPByEAAQgAAEIQAACaUsAgTptLy0dgwAEnCagL84jRowQ/RDuRNB1LdUiYeDAgdk+quvHHxUgixmumAkQ8CegHxRVJHQyqEXM6tWrRcceAQKBCOg9sHv37oEOxZW2adMmJuTERZCTy5cvn+131A0q/Da7QTU9yuT+mB7XMd17oZap+i7jxCQzvR/q8gf6PkOAQKwEeL+OlRznJYKAjk+9X+JhIhG0qQMCEIAABDKVAAJ1pl55+g0BCERMIFGWWf4NwqrVnwhxJaAfF4OtMR0vIZ0QsWbNGiZGxAsyTc9v2LBhzJ4jQiFRrxJ6vyNAIBYCbt4TA7VHJ/PopAoCBOwEuD/aabCf0wi4eZ/kNzynXe3UaA/v16lxnTKxlXiYyMSrTp8hAAEIQCCZBBCok0mfuiEAgRxPwA1L1Ug7rRYJuuYlAQImAbcstMzydYsltZ0G+3YCbgkwaoW1c+dOrPftsNmPmECk1tPqmlv/6W+rv3cS/VCuv/fqojmS5TvUalA9oBAgYBLg/miSYJuTCLgpTNv7qfdDvS8SIBAJAd6vI6FEnkQT0PslHiYSTZ36IAABCEAAAiII1IwCCEAAAkEIJOqjTpDqPR/SWZs1GJ3MS1cBpXjx4gnpOB8aE4I55SpxS4BREAh+KTccckyD9b6o98dgQUXpUaNGRexGXgVqdWUfqkwVuHVSBQECJgHujyYJtjmFQCImNdr7iucnOw32gxHg/ToYGdKTRcDNMYmHiWRdVeqFAAQgAIFUIoBAnUpXi7ZCAAIJI5DojzqBOqYf1RGoA5HJzLRIP37ri3CpUqWyWffpmuYrV66USZMmhRReTLo69nQMEiBgEnDzvsj9zqTMNloCLVu29Fg/Bzov1sk2Kk6rN4lQ67Sydnog4pmbxv0xc699Tu25m2MyWJ+5LwYjQ7oSSMaY9CfP86Y/kcyNuylM26nG+ixqL4N9CEAAAhCAQDoTQKBO56tL3yAAgZgIqJCnLkMjDeoutFKlSgHdhpqi4I4dOzwv5ZGWqfl4gY6GVnrnVYs+FahDBR0vaoXq77o20DmRvJAz/gKRI03HogqCoYS7WCnxYTtWcpl9XrDf7Hg/CIb7kI61YGaPu0C95/4YiAppySIQ7h5mtkuX2cjKyvJEdZKjf1B3zDppZ8CAAf6HssV5dsyGhIT/EQj2Wx0MEO/XwciQ7gSBSO+PTtSlZfDM6BRJyoEABCAAgXQkgECdjleVPkEAAjETUNFFrab0Q0y4oB+/9WVDP+xEGlQYjNSClY88kVJN/3zqblZfpIOFWMZKJC/m6sI2EsE7WLtIzzwCeu+M1RU9bvAyb7w41WMVBgcOHCj6AVyDUx8CCxUqFHQyRrwCuFN9p5zUIcD9MXWuVTq0NNxzngqAeh/TZ8hIgr4j6fOoCtahAh54QtHJzGO8X2fmdc/JvQ53f3Sj7UzEdYMqZUIAAhCAQDoQQKBOh6tIHyAAAccIhBMCtSIV7NRSNdIPOoEaF0k9sYiOgeoiLfUJhBJJdIKECsnRTJQwiYQbh06JPGZ9bNOfgFpY6UScWEI8YzmW+jgHAuEIhFpaQcWdefPmhSuC4xCwCHB/tFCwkwAC4QSYo0ePxtSKcM+O3BtjwprWJ4UbM9p53q/TegjkuM6Fuz+aDdZ3EzxMmDTYQgACEIAABNwhgEDtDldKhQAEUpBAJK7H9OV5zZo1npfoeLsY7kMlAnW8hNPjfLU6UIE6WIjH6jTcmI+n7GDtJT29CYSaTKE913toKA8VOvlHLboIEMgJBBCoc8JVSJ82cH9Mn2uZCj0JJ8DEKlCHs4ZVQWf37t2pgIg2JoBAuHcNbYI+G/J+nYCLQRUWgXD3RzxMWKjYgQAEIAABCLhOAIHadcRUAAEIpAqBcLO79YOLvmTrS7RTIdTHSgRqpyindjnhPuyoBZ++RMcaQo1BrGBipZqZ54X72KP3NBWfdQ3rYEGXWFAXeAQIJJuAijDqrl63gQIuvgNRIS0YAe6PwciQ7haBUGMuXhFZPaWEWpMaV7ZuXdXUK5f369S7ZpnQ4lD3R+1/rBN4wo133q0zYXTRRwhAAAIQiJYAAnW0xMgPAQikJYFI1gWMVwgMBE6FmmBrufECE4hY5qXp2qpqxRcsxLvWnwowwSxamSQRjDrpgQiEsjbV/KZ1dKgxp/n4sK0UCMkmEE6AYQmEZF+h1Kqf+2NqXa90aG2oCY7xvmOEKlvZufHOlA7XJNP6wPt1pl3x1OmvWwI1HiZSZwzQUghAAAIQyDkEEKhzzrWgJRCAQBIJhPsQ7ZalVKh6+fidxAGRg6p2+yNgKAtqt8Z9DsJLUxwiEO4jpFprmWulh7rvaXMYdw5dFIqJmYDed+vWrRvUeloLZiJFzHgz7kTujxl3yXNMh4NNjIh3cmO4MW1OSMsxIGhIUggk63kvVL28XydlKOS4SkMJ1HiYyHGXiwZBAAIQgECaE0CgTvMLTPcgAIHICJQvX97jvjtYbhVWnHTtbdYTbJatG+7EzTrZphYBHSMqIgcL8awTHU78jqfsYO0lPT0JqKtP/SAYLNjHUrgxbRezg5VHOgTcIqBeK9S7iY7TYAFX9MHIkB6IAPfHQFRISwQBvY+NGDHC+n3WdxkV6NSCOp4Q7vkRgToeuulzLu/X6XMt060noe5heJhIt6tNfyAAAQhAIKcTQKDO6VeI9kEAAq4TCCeWxPuSEq4D+oI0cOBA0Y/iGtSt8qhRo0Q/gBMgoARCfeCJR8wLt04WLhoZf5ESCGWJr2X4T/IJN/b4uB0pefI5RUCtafR3ONiyG/Z6GJ92GuyHI8D9MRwhjqcagVAWqtoXnh9T7Yo6317er51nSonOEsDDhLM8KQ0CEIAABCAQKwEE6ljJcR4EIJA2BPRjtFpLBQt8ZAlGhvREEQj3ITCWtaJDuTbTfsUjfCeKC/XkDALhxlKg8RlubXUsVHPGtU2nVqhLWrUk1PEaTwg0nuMpj3PTmwD3x/S+vpnYu1CWhyYPlkAwSWTulvfrzL32qdJzPEykypWinRCAAAQgkO4EEKjT/QrTPwhAICyBcOLf7t27PWJd2ILIAAGXCOgLdPHixUO6nFXRRK36InFFH27MazdYo82li5mGxQazQDC7GmySj45pFQ2DBT5wByNDerQE9B6qkx5CjbdIymT5jUgokcdOgPujnQb7qU5A76F16tQJeS/V+6S+OxEym0C4dw3erzN7fKRz78ON/WDvRenMhL5BAAIQgAAEQhFAoA5Fh2MQgEBGEAjlapaPLBkxBFKik+Feds1O6Fq/pUqVkm7duplJnq1avKxcuVImTZoU8sOiZsZ62gcdkRAE9GO1Cs3BQqh7aLgxrWNYJ10QIBAvgXBjLZLydSyvXr2a5TcigUUeDwHujwyEdCIQ6X3U7aWR0olpOveF9+t0vrr0LRgBPEwEI0M6BCAAAQhAIDgBBOrgbDgCAQhkCIFQL9C4mc2QQZAi3Qy1FrWTXWBmt5M007usAQMGiH60DhZCWeKH8wzARIlgVEmPlkCo3/lIylLPFIsWLUKcjgQWeSwC3B8tFOykMAF1U6/LI+iEi0jC66+/LurVh5DZBEL97vJ+ndljI117r/dIPEyk69WlXxCAAAQg4CYBBGo36VI2BCCQEgRCuV9krcmUuIQZ08hIXnzjhaEW2CoqEiAQjkA4gVnP37lzZ0i386E+YOr5oQRuPU6AQCQEIrX8C1WWPg/o5B2dOEGAQDgC3B/DEeJ4Tieg981IvO7Y+4H1tJ1GZu/zfp3Z1z/Teh/pcyb3yEwbGfQXAhCAAAQiIYBAHQkl8kAAAmlNgBfotL68adc5dR1Wt27dkOtRx9ppXCrHSi4zz1OrKhWYg4VIPsKEc4WHlU0wuqRHQ8CpNajVknrNmjUhJ11E0y7ypi8B7o/pe23TuWd6r9Sxq9b/0Qa9P+pvOpN4oiWXnvl5v07P60qvfAngYcKXBzEIQAACEIBALAQQqGOhxjkQgEBaEeAFOq0uZ0Z0JtJZ2tHAwJ1yNLTIqwRC3Tv1eKRuPsO5ro+0HK2TAIFgBNQDhbqp1Y+J8QRE6njoZc653B8z51qnQ09VWB45cqTMnz8/pu5wX4wJW1qfFOoeiIeytL70GdE5PExkxGWmkxCAAAQgkCACCNQJAk01EIBAziXAC3TOvTa0LDsBN8RpsxY+MJok2IYjEM7yWceSuveOJISzNMSyPxKK5ImFgGktqOdG48oWy/5YaGfOOdwfM+dap0tPw/0Oh+qnio1TpkwR/d0nQMAkwPu1SYJtuhAwnxnxMJEuV5R+QAACEIBATiGAQJ1TrgTtgAAEkkaAF+ikoafiKAm4KU6bTUGkNkmwDUVAP87oeAwWolk7Wj/4FC9ePKjbeqz7g1Em3WkCK1askIEDB3rc1IYrO5oxHq4sjqcXAe6P6XU9M6E3sQrU3AczYXTE1kfer2Pjxlk5jwAeJnLeNaFFEIAABCCQXgQQqNPretIbCEAgBgK8QMcAjVMSTkDdLrZs2TIh9WIdmBDMKVtJOEHZjY7xEdwNqpQZjEAkk4GYOBGMXmanc3/M7Oufqr2PVqBu0aKF6O8yVtOpesXdbzfv1+4zpobEEIj2/mhvFR4m7DTYhwAEIAABCAQmgEAdmAupEIBABhFQ0S/YmmuskZVBAyEHdzWaD946ZvVf//79fXqkloEffvihROqWDEHQBx8RG4F4PtTYiolql0kTUeEiswMEIhnn3CcdAJ1mRUQybpzuMvdHp4lmXnmRjlvz+VK3BAiEIsD7dSg6HEslApHeH/37xDOiPxHiEIAABCAAgcAEEKgDcyEVAhDIIALdu3cXffEIFNQyINJ1VAOdTxoEnCAQqTWfrgGoVi2hgordOuaDTcowz8U60CTB1p9AKKsY/7xOxl9//XXP5Asny6QsCIQiEM5VM8JgKHqZeYz7Y2Ze91TvdTgBRp8tu3Xrxm9wql/oBLaf9+sEwqYqVwmEuz/6V46HCX8ixCEAAQhAAAKhCSBQh+bDUQhAIAMIhBP/du/eLSrWESCQDAKRWE/Hsm50uHGvfWXmdzKueM6uU9dhK1++fFIaqR/HdRIGAQKJJKDro+/atStolTwjBEWTcQe4P2bcJU+bDquXHZ1cESwcPXo02CHSIRCQQLj3DH47A2IjMQcSiFSgxsNEDrx4NAkCEIAABFKCAAJ1SlwmGgkBCLhJINzaviqIqDBCgEAyCIQbnzp5Qj+Kx7IOINaBybiiqV1nuDHjdu/4oOk2Ycr3JxDuIzuW/f7EMjfO/TFzr32q91wnQxYqVChgN1R00fscAQLREAj3/sL7dTQ0yZtMAuEEajxMJPPqUDcEIAABCKQDAQTqdLiK9AECEIiLQKiPMlowH2biwsvJcRII98E7HitnHfvqohbrwDgvUoacHok1v9so4hnvbreN8tOTQDir2Hnz5oVdWiE9ydArOwHuj3Ya7KcigWDPm9zjUvFqJr/NvF8n/xrQAmcI4GHCGY6UAgEIQAACEAhGAIE6GBnSIQCBjCIQbs1ALKQyajjkqM6qO2UVSAIFJ9aJxjowEFnSAhEIZ0EQ6Byn09RTwM6dO50ulvIgEJSATuBRN9/BAlZgwchkVjr3x8y63unaW/szof7e6qQwtQ4kQCAWArxfx0KNc3IagVCTLTBkyGlXi/ZAAAIQgEAqEkCgTsWrRpshAAHHCYT7sKgfaVQkdHMtansb9GVn1KhRHutWxztLgSlFINT6p/rRUC1b4gnhrAMRX+Khm17nhvvQuGnTJkfuWeHqYcJQeo2rnN6bcPdIxmNOv4KJaV+4+xb3x8RcB2qBAARyDgH7u22gVvF+HYgKaTmRAB4mcuJVoU0QgAAEIJAuBBCo0+VK0g8IQCBuAqGEQC3cCTEwWCO7d+8u+hLvH5z6oOlfLvHUIRBqXPbv399j3RJPb0LNCtdyEajjoZs+54YT6dRVvN6vnAjh1i3s1q2bZ1w6URdlQCAcAbtFYaC8atGvH9kJmUuA+2PmXnt6DgEIhCYQ6j1Gz+T9OjQ/juYcAvbnQX3uw8NEzrk2tAQCEIAABFKbAAJ1al8/Wg8BCDhIINwsb63KjZdo+8uOf3dwG+VPJPPioT7sIFBn3nhIVo+DWQ6Y7XF6IkOoca917t6921WPFma/2GY2AZ3Ao5Mv1M13oKBeVXQsEjKbAPfHzL7+9B4CEAhOgPfr4Gw4AgEIQAACEIAABCAggkDNKIAABCBgIxBqvV8zm36snjZtmiOubINZTpt18fHbJJG521BuQ52YwBDOWhX3tZk79syeq0ingrFuAwUn1kL3LzfUxB3Nq1YLOkGDkNkE9P6lv6M6Np22ZtEy69at61neIxhlrPmDkcmcdO6PmXOt6SkEIBAbAd6vY+PGWRCAAAQgAAEIQCATCCBQZ8JVpo8QgEDEBNRKSoWYSIJ+mM7KyvJ8FI8kvz3PihUrZODAgSE/fGt+J93m2utnP3UIhLPMitcNfMuWLUVFnmABS9VgZDInPZz1ixOW/P40VfQpVKiQf7IVVzFSXSsTMpdAsHGpv806gUEnTsQadILEiBEjgk7KMMtlAo9JInO3wcahSYT7o0mCLQQgkKkEeL/O1CtPvyEAAQhAAAIQgEB4AgjU4RmRAwIQyDAC4SxK/XGoUNKzZ09PcjCLPhVb9COmhkg+ensyGv/DStAkkbnbcONRx5+ufxmLGBPOSpUJEpk57vRDYrNmzcJOoAlFJxpRRuurU6eO6DbWwL0yVnKpe55OYNDf1mBBx+AZZ5wh9evXD+vxRO+FGnbs2GH9Vgcr10x3woOFWRbb1CHA/TF1rhUthQAEcg6BcO8z/i3l/dqfCHEIQAACEIAABCCQngQQqNPzutIrCEAgTgLhhLs4i4/odMTBiDClfaZw7kMVgH7E0TWAVTCJNISzzNZyEP0ipZk++dS7g1rVhxL+Iu2tjsd58+aFnDzhZH0tWrTw1Bdp+8iXugRUJIzU24kbvdQJQToxSO+9hMwh4OT9ivtj5oybVOipjm0VEM3JtGab9V2kTZs2LKlhAmEbFwHer+PCx8kQgAAEIAABCEAgLQkgUKflZaVTEICAEwSS+RKtH73XrFnDx28nLmQalBHpWNQP3vpPhbpAwol+eFThUcXpcMGNdYXD1cnx5BPQ9Xz9P1DH06pwLpCdrk/dfgca+/H0gXNzHgG9j4VyAe92i3Xihd5nCZlFwOn7FffHzBo/ObW3+puvYztU0GdLHa8ECMRLINJ3mnjrCXS+Ph/yfh2IDGkQgAAEIAABCEAgeQQQqJPHnpohAIEUIBCtOzInuqTWCosWLUJkcQJmmpShYoyOi3hcIEeLAuvpaImlR34EmPS4jpnQC6fHaqTM1FuFrnNNyDwCTo85BOrMG0M5scfhlksw28zEHJME23gJ8H4dL0HOTyQBPEwkkjZ1QQACEIBAJhJAoM7Eq06fIQCBqAioG8+BAweKvpy4HfSjt378JkDAn0AiP+ZgKeNPP3PiCDCZc63ToacNGzZMyG+zslKvEirQ6P2RkJkEuD9m5nVP914fd9xxEXWRiYsRYSJThAR4v44QFNmSSgAPE0nFT+UQgAAEIJAhBBCoM+RC000IQCB+AioQjhw50rPuZPyl+ZagrkIHDx7ssZL1PUIMAl4Ckbwke3PHtqeW2qtXrw65bnBsJXNWKhBgjdVUuEq00U4gEe5C+/fvL1lZWdwX7eAzcJ/7YwZe9AzoMhbUGXCRc3AXeb/OwReHpnmWk1FPZuECHibCEeI4BCAAAQhAIDgBBOrgbDgCAQhAICABnfG9cuXKiNbxDVjA/xLVGks/eAdbLzjUuRzLXAJOfiD3p6hjUV+wCZlNQF3JN2vWLK7JOCroqbVVJEHrq1OnTlwu7LHsioR0eudRoVrvj/rPiaBrVfbs2dPjzlt/rwkQUALcHxkH6UYgksmPeNZJt6ue8/rD+3XOuya0SAQPE4wCCEAAAhCAgPsEEKjdZ0wNEIBAGhPQD5U681tDuA/jKv5VqlTJk1ddefPB24OC/8VAQMfdgAEDrLEXQxE+p6gQowKfjlECBCAAgVQnoIKLafEyZ86ciCZb2CdU6AQLAgQgAIFMIaDvMPo+o/dOe1CvOm3atBHuiXYq7LtNgPdrtwlTfqQE8DARKSnyQQACEIAABGIngEAdOzvOhAAEIAABCCSVgFobqPiiloOxBLWIUVFaJ0wQIAABCEAAAhCAAAQgAAEIQAACEBDPpJ3u3buHRIGHiZB4OAgBCEAAAhAISwCBOiwiMkAAAhCAAARyPgG1fFGLgx07dmSzgDFbb1rCaBxrGJMKWwhAAAIQgAAEIAABCEAAAhCAgC8BPEz48iAGAQhAAAIQcJoAArXTRCkPAhCAAAQgAAEIQAACEIAABCAAAQhAAAIQgAAEIAABCEAAAhCAAAQCEkCgDoiFRAhAAAIQgAAEIAABCEAAAhCAAAQgAAEIQAACEIAABCAAAQhAAAIQcJoAArXTRCkPAhCAAAQgAAEIQAACEIAABCAAAQhAAAIQgAAEIAABCEAAAhCAAAQCEkCgDoiFRAhAAAIQgAAEIAABCEAAAhCAAAQgAAEIQAACEIAABCAAAQhAAAIQcJoAArXTRCkPAhCAAAQgAAEIQAACEIAABCAAAQhAAAIQgAAEIAABCEAAAhCAAAQCEkCgDoiFRAhAAAIQgAAEIAABCEAAAhCAAAQgAAEIQAACEIAABCAAAQhAAAIQcJoAArXTRCkPAhCAAAQgAAEIQAACEIAABCAAAQhAAAIQgAAEIAABCEAAAhCAAAQCEkCgDoiFRAhAAAIQgAAEIAABCEAAAhCAAAQgAAEIQAACEIAABCAAAQhAAAIQcJoAArXTRCkPAhCAAAQgAAEIQAACEIAABCAAAQhAAAIQgAAEIAABCEAAAhCAAAQCEkCgDoiFRAhAAAIQgAAEIAABCEAAAhCAAAQgAAEIQAACEIAABCAAAQhAAAIQcJoAArXTRCkPAhCAAAQgAAEIQAACEIAABCAAAQhAAAIQgAAEIAABCEAAAhCAAAQCEkCgDoiFRAhAAAIQgAAEIAABCEAAAhCAAAQgAAEIQAACEIAABCAAAQhAAAIQcJoAArXTRCkPAhCAAAQgAAEIQAACEIAABCAAAQhAAAIQgAAEIAABCEAAAhCAAAQCEkCgDoiFRAhAAAIQgAAEIAABCEAAAhCAAAQgAAEIQAACEIAABCAAAQhAAAIQcJoAArXTRCkPAhCAAAQgAAEIQAACEIAABCAAAQhAAAIQgAAEIAABCKQBgX/++UcOHz4cc09y5colp556asznmyf++++/8vfff5vRqLcFChSI+pxgJ+zZs0eOHj0a7HDY9JNPPlny5s0bNl+4DH/++acol1hDnjx5JF++fLGebp138OBBOXDggBWPdue4446T/PnzR3ta0Px79+4NeizcAR2rOmbjDdqGI0eOxFyMjg8dJ/EG/Zs5dOhQzMUoCyf/duwNQaC202AfAhCAAAQgAAEIQAACEIAABCAAAQhAAAIQgAAEIAABCGQwgbVr18ozzzwjK1eulB9++MEREjfccIN06NBBmjdvHnF533zzjUyaNEkWL14sn332WcTnhcpYrVo1eeuttzwCswqj0YQaNWrI+vXrozklaN6LLrpIrr32WunRo4fofqThlVdekZkzZ8qiRYsiPSVsvtatW0unTp2kUaNGYfOaGT755BOZMmWKLF26VL788kszOa5t3bp1ZdWqVVGVoRMoJkyY4OHx/vvvR3VusMxly5YVHa+33367nHnmmcGyZUufPXu26L/XXnst27FYEs4991xp2LChdO3aVXTcRhp0fD/99NOyYsUK+f777yM9LWS+a665Rtq3by9t2rQJmS+agwjU0dAiLwQgAAEIQAACEIAABCAAAQhAAAIQgAAEIAABCEAAAhBIUwK33nqrR3h0q3vXXXedTJ06VYoUKRKyiscff1x69+4dMk88By+88EJ54oknpHHjxiGLeeONN6Rnz57y+eefh8wXz8GHH35YBg4cGLIItdq+5ZZbZOHChSHzxXNQBUidmKCW1aHC/fffL/fdd1+oLHEdq1Chgjz11FNSsWLFkOWoSB/NhIeQhQU5qEKvCsShwhdffCHdu3eXNWvWhMoW1zH9Wxg/fnzYMu644w7PuA6bMcYM9evX99wfihcvHmMJ3tMQqL0s2IMABCAAAQhAAAIQgAAEIAABCEAAAhCAAAQgAAEIQAACGUlAxeMlS5YkpO+//vqrFC5cOGBdDzzwgAwbNizgMacT1SK5SZMmAYtdvnx5WAE74IkxJA4ePFhGjBgR8Mx9+/a55mbZv8I6derI6tWr/ZOtuFoVT5w40Yq7ufPee+9JpUqVAlbx7LPPSseOHQMeczpRheFgkyW2bdsmZcqUcbrKgOWppfucOXMCHtPEm266ydUJDPaKv/76azn//PPtSVHvI1BHjYwTIAABCEAAAhCAAAQgAAEIQAACEIAABCAAAQhAAAIQgED6EOjTp4+MGzfOp0M33NhM/q/s5XLiiSf6pEcT0TWSt2/fJs8/96zPaWr5umDBAp80jbz00kvStGnTbOl9+w+SQoUKZUuPNEHXjP7RcFc+aeKEbKfs3r1bChYs6JP+xx9/yOmnn+6TppFut94m55xTVKJ1D24vSNeOfuyRh+1Jnn21jm7WrFm29FatWsm8efN80lu2aiMXlS4jxx9/vE96NBFdm3jrZ58a7rF9r4OK0GrB7h/U3XqvXr38k0WvTTxrWeu1+fbbb2T6tKnZyg601vfHH38s6obbP/Ts1VvOiMIlt//5Gtfr/vj4MdkObdiwQSpXrpwtvXr16h6X8fYDHW7uJMVLXBjXWta6pvdHWz6UpUsW24v2TGLQyQz+ISsrS0aOHOmTfO1118f99/vff//Jzq++lOdmzfQpWz0PxOvKHIHaBykRCEAAAhCAAAQgAAEIQAACEIAABCAAAQhAAAIQgAAEIJA5BAIJfjNnzZab27d1DMLyFaukccP6PuWpGK1r/drDFVdcIR9++KGVNGTofTL8Aeesqd9593150hBaZz07w6rjzjvvzCbO9+vXTx577DErz00tWkkXw9XzVdWqWGnx7jw2Zrw8cN9Qn2L8Bdlly5bJ1Vdf7ZNn3oJF0siPpU+GKCMvv/Jqtmv97rvvypVXXulTkr8o/9DI0XJ7rx4+eeKJfPzJZzLioYd8RNlRo0bJgAEDfIr1F+y73nKr3Nqju5S+qJRPvlgj+/YZEwjGjJVxYx61ilBxWkVqe9A1uNUlvhmqVasuwwz351UqB7b6NvNFs3121vNyhx/j7777TooWLWoV89VXX4m6rLeHiU9OkfbtWtuT4tp/+513pVrVylIgf36rHF1vu23b2O8RCNQWSnYgAAEIQAACEIAABCAAAQhAAAIQgAAEIAABCEAAAhCAQGYRGDRokKgQaIbJU5+R7rd0NqOObV9fuVoaNahnlacuxRcv9lqI6hq+devWtY736Hm7PDkxuyWvlSHGnb/+/ltOzZfP52y1WM2bN6+V5i/GfvHlV3LGGYFdklsnxbAz9N77ZcI4rxDuL9q3a9dOnn/+eavkufMWyNWNG1pxp3YWLHxRunb2usy+7bbbRC2mzeDvUnvg4Hska7CvcGzmjWe7c+fXUu7y//Mpwi7a//TTT3L22Wf7HN9ruEB3I/Q0xt9sm+X/pk2bRCdQmMHfenrVmrVSsYL3uJkv3u2TT02VQQP6WsWoK3i7FfWDDz4o9957r3X8kcfGSfduXay4UzvvvveBNKzv/fusXbt2XOtuI1A7dWUoBwIQgAAEIAABCEAAAhCAAAQgAAEIQAACEIAABCAAAQikGIFq1arJO++8Y7XaLghaiQ7t3Nyxs4/1sr2u4cOHy9ChXovitze8J1UdtEa1d0EtTG/v6bV+VXFcBTcNGzdulIoVK3r29X/DR4ySO26/zYo7ubN123apXMlbV//+/WX06NFWFeeee658//33nnjTZjfJjBnPWMec3rmpeQtZsWK5p9hLL71UPvnkE6uK7t27y9SpXhfcn23dJkXP8RWKrcxx7jw86lEZ+dADVilffvmllChRwhNftGiRqHt4M0ydNl1atvDGzXQntmveeFNuvP46qyh1e67uzzXohIaTTjrJOta9Ry95ZPRIK+7kjv6NFCxQwCpSLeqXLl1qxRs2bGhctxVW3C3BXiu4u29/mTZ1slWXuvDPnTu3FY9mB4E6GlrkhQAEIAABCEAAAhCAAAQgAAEIQAACEIAABCAAAQhAAAJpRMBuLdyla3eZ9rRXgHK6myr2Dh0yyCpW1/w115ZWd8nqNtkMdvHaTHNqu/7tDVLjqqpWcbNmzZL27dt74q+88oqP6/EXX14sdevUsvI6vWN3m9y6dWuZM2eOpwpd/9e+xnT/gVlyj42d0+0YbFhF29fotvNXUVTdjZvBTRH0JYN3xw7tzKpk7dq1UrNmTU98woQJoi7ZzfDeBxsdc+1tlmlu9+7dJ+efd64Z9bgaNz0NqGhesmRJ69ijhrv2bi54HTAr6NLlFlm4wLsOuf3a2P9+dW3yqTYB2Tzfqa2/NffXX38t559/fkzFI1DHhI2TIAABCEAAAhCAAAQgAAEIQAACEIAABCAAAQhAAAIQgEDqE7ALXN1v7SmTn5roWqdGPTLGx13xr7/+KoULH3Odfcstt8i0adOsuu0inJXo0I4Km3bL5RkzZkjHjsdcXL/44ovSrFkzq6bFS16TmjWusuJO79gF6hYtWsi8eceEyEOHDvm4HR885F4ZNLCf09Vb5d0z9D55fPwYK27nn0gr3SVLl0nb1i2tdqxevVrq1KnjiY8dO1buvvtu69jmDz8yrKuLWXEndw7sPyBnnXWmVWTfvn3l0UePrUu9fft2KV26tHVs3ISJ0rlTByvu9E737j3khbleV+/2a2P/+23broM8+aR7f79PGxbrfft4Jwjo+tfFixePqbsI1DFh4yQIQAACEIAABCAAAQhAAAIQgAAEIAABCEAAAhCAAAQgkPoE7AIXArUIAvWxMW0XQRGoRRCoRRCoU/9+Tw8gAAEIQAACEIAABCAAAQhAAAIQgAAEIAABCEAAAhCAQNIJIFCLsbYzFtRYUPv+KWJB7ctDYwjU2ZmQAgEIQAACEIAABCAAAQhAAAIQgAAEIAABCEAAAhCAAAQgECUBBGoEah0yCNS+fzgI1L48NIZAnZ0JKRCAAAQgAAEIQAACEIAABCAAAQhAAAIQgAAEIAABCEAAAlESQKBGoNYhg0Dt+4eDQO3LQ2MI1NmZkAIBCEAAAhCAAAQgAAEIQAACEIAABCAAAQhAAAIQgAAEIBAlAQRqBGodMgjUvn84CNS+PDSGQJ2dCSkQgAAEIAABCEAAAhCAAAQgAAEIQAACEIAABCAAAQhAAAJREkCgRqDWIYNA7fuHg0Dty0NjCNTZmZACAQhAAAIQgAAEIAABCEAAAhCAAAQgAAEIQAACEIAABCAQJQEEagRqHTII1L5/OAjUvjw0hkCdnQkpEIAABCAAAQhAAAIQgAAEIAABCEAAAhCAAAQgAAEIQAACURJAoEag1iGDQO37h4NA7ctDYwjU2ZmQAgEIQAACEIAABCAAAQhAAAIQgAAEIAABCEAAAhCAAAQgECUBBGoEah0yCNS+fzgI1L48NIZAnZ0JKRCAAAQgAAEIQAACEIAABCAAAQhAAAIQgAAEIAABCEAAAlESQKBGoNYhg0Dt+4eDQO3LQ2MI1NmZkAIBCEAAAhCAAAQgAAEIQAACEIAABCAAAQhAAAIQgAAEIBAlAQRqBGodMgjUvn84CNS+PDSGQJ2dCSkQgAAEIAABCEAAAhCAAAQgAAEIQAACEIAABCAAAQhAAAJREkCgRqDWIYNA7fuHg0Dty0NjCNTZmZACAQhAAAIQgAAEIAABCEAAAhCAAAQgAAEIQAACEIAABCAQJQEEagRqHTII1L5/OAjUvjw0hkCdnQkpEIAABCAAAQhAAAIQgAAEIAABCEAAAhCAAAQgAAEIQAACURJAoEag1iGDQO37h4NA7ctDYwjU2ZmQAgEIQAACEIAABCAAAQhAAAIQgAAEIAABCEAAAhCAAAQgECUBu0DdqXNXmf7M01GWEHn2B4aPlGFDs6wT9uzZIwUKFPDEb7vtNnnqqaesY//++6/kzp3biju5s3bdW1K7ZnWryNmzZ0vbtm098VdffVWaNGliHZu/8EVp2KCeFXd6p0D+/FaR2gZti4ajR49Krly5rGN39xsow+4dYsWd3uk/YLBMeWqiVazWb4Zrr71Wli5dakZl77591r7TOwsXvSxdOnWwil23bp1Ur37sWj3xxBNyxx13WMfe3vCeXHpJGSvu5M4ff+yW4sUusIocNGiQjBw50hPfuXOnlChRwjr28OjH5LYe3ay40zudOnWRFxct8BRbtmxZ2bJli1XFpZdeKp999pkn3vymlvKMi3+/T0x8SoYMHmDV/e2338q5555rxaPZOc4YYN4RFs2Z5IUABKIm8PXXX8uqVas8P7jNmzeP+nxOgAAEIAABCEAAAhCAAAQgAAEIQAACEIAABCAAAQg4SaB27dqydu1aq0g3ZaOWrdrI/HlzA9Y1evRoGThwoHVsxao1Ur9ubSvu5M4jj42TAf36WEW+9dZbUq1aNU/8k08+kf/7v/+zjg0Zep8M6H+3FXdy54ONm6VenVpWkUOGDJHhw4db8QsvvFC++uorT7xRo6tl3vwXrGNO79iF8vLly8vGjRutKm6//XaZONErXr+/cZNcVKqkddzJnfvuHy5jHxttFfnNN9/Ieeed54n7Tx6Y8MQk6XhzeyuvkztLli6Ttq1bWkVOnjxZunfv7okfOXLEZ/LEzR27yOOPj7PyOrmzd+8+Of88rwh8ww03yEsvvWRVoZMplIsZvv/hR8mX7xQz6ui2Z8/bZfZzz1plxnOvQKC2MLIDAecJjB0zViZPPjbjS8VpM2zdtk0uuMA788ZMZwsBCEAAAhCAAAQgAAEIQAACEIAABCAAAQhAAAIQSCSBBx54QIYNG2ZVqdagA10QZOfOWyBtWrWw6mnVqpXMnesVq9977z2pXLmydbxtuw4+Yph1IM6dr3bukgtLFPcpxV9os1uVa8Z33n1fLrm4tM85TkR69+4jM2dMs4pasWKF1K9f34qrIDp16lQrPumpKdKubWsr7tTOlKnPSP++d1nF9evXTx555BErvmDBAmnRwnvtet5+p4wc8aB13KmdjZs+lLq1a1rF6USBjz76yIrvMyy3TYt7M3Hnrq/ltNMKmVHHtnbBXgv9/PPPpUwZr7V248aNZfny5VZ9blnajzL+HkcMv9+qZ/z48dK7d28rPmbMGOnbt68Vv+fe+6W/bfKFdSDOndeWvS6tW95klaJW9XZh3DoQ4Q4CdYSgyAaBWAiotbS6KFltbJ955hlPESpMq0CdaUFneS1ZskTWr18vn376qXz//fceNpnGIZ37qw8GZ599tlx88cVStWpVueaaa0Tdi+S08Ntvv8nLL7/smRWqDzc6A2/37t05rZm0J04Ceq+96KKL5Morr5RGjRpJjRo14izR+dP/++8/WbRokaxevVo2b94s6hrol19+cb4iSkwqgXPOOcfj8qlChQqeF8zrrrsuqe0JVrm+AOu/Dz74QHbs2CHfffddsKykpyiBM888U4oVKyaXX365qHVE06ZN5aSTTspxvXn//fdl2bJlsmHDBtm6dav8/PPP8vfff+e4dtKg2AmcdtppHhdw+qFJf591tr/eK3Na2Ga8s+n7i1rSmO8vf/31V05rJu2Jg8Cpp55qvb+otZS+v1x22WVxlOjOqfp8qO8vb775pufjrL6/6HcGQnoR0N9ofX9RUUbfX6666qoc18HDhw973l/WrFljvb/8+uuvOa6dNCg+AvqbXLJkSTHfX/TeSMgMAvr74m9QNeqRMT4WxvGSmPHsc9K5o9dts5anVts1a3rFSE2rU6eOvPHGG7rrCbfedrsMGthfil1wvpkU13bqtBmyaMF8473D6676vvvu8xHotQK1Yh46dKhPXaMfHSu3du/qkxZr5Keffpbx4x+XSRMn+BThL5S/8847lmW3mXH845OkU0fnrIafmvx0tgkJX3zxhaj1tj34i/bqcvyuO+8wBGOvi3J7/mj3/d1H6/lTpkyRbt18XWf7i/Y3Nm0uTZs1kxtv8Lplj7Zue/633t4gc+bMkVkzp1vJbdq0keeff96K6868efNEJ1nYg47zpjdeb0+Kef+/f/+TscYYefD+e33K+Oeff3ze53///XcpXLiwT55hhhX6Xb1vl1y5c/mkxxrxd7uu5bz22muiIn2sAYE6VnKcB4EoCCxcuFDat2vnOaPP3XfLiBEjojg7tbPq+hA6g8fuciK1e0TroyGgs/3uuusu0dlUyQ76kVtn/ZmTRZLdHupPLAH9CK7r0/g/0Ca2Fcdq0w+Ko0aNkieffFL27t2bjCZQZxIJ6Aefnj17yuDBg33WkUpWk8aNGye6ftOXX36ZrCZQb5IInHjiiXLrrbfKgAEDcoQ4qC//Ogv83XffTRIRqk0mAV1nTy00rrjiimQ2w1O3TjLW9xf7+npJbxQNSBiBevXqSZ8+fXLE+4tOjND3l5kzZyas/1SUcwiUK1fO8/7SpUuXpDdKP3qb7y9M1En65Uh4A3Rd0V69eomuu0pIfwKBBFntdddbbpW8xvtDrEHXkd6+9XNDdF7tU8Qtt9ziYxlsHtTvyf6itR5r2/5mKVgwDitZY7XbH374Xl56caFZlbX1F4XNAzrB1269q+nXXNtEihp/G8cZ/8Ua9u3bK3PnHFtn2l6GCvO1anndfZvH/N1rm+mdu3aTPMfnMaNRbw8dOigzpk/Ldp5a06to7x9eeOEFad06u/V2h5s7ySn58vlnjzh+5MhR+e6br41ncK+bavPkQNdGjd8CrXvcrHkLOePMs+S42C+N7P7jD3lhrq8QrW3Rb8ulS2e3oNfJ3/7aR9269aWEMdknV67cZjei3h7Yv1+enflMtvN0jXZ9l/cP/lbU5vGOnbrG9ff733//ylfGZIU1a1aZRXq29rXSfQ5EEzEuLgECEHCZgPER+uiJefN6/hmuMFyuLecUb/xwHjXuR/yDwdH27dsfNUS5pA1OY1II45Bx6BkDxgvO0Q8//DBpY3HWrFlHzzjjDMYj4/GoMQv56OLFi5M2Fo1Z6keND5+MRcbiUcOK+uikSZOSNhYN7xFHDc8CjEXGomcMGOvtJW0sGpaBRw1LDMYiY9EzBjp06HDUmEiYtPFouFllLDIWPWOgbt26R411UJM2FqdPn360UKFCjEfG41FDlDlqWMolbSxScWIJJOJ7rjEpLGSnjLV+E3bvMSbJBm3Lli1bEtaOCRMmBG2HHjDWHU5IWwzhMWQ7Evmcou+LwYLekxIxVrUOY0J1sGZ4vnknqh133nln0HbogUTpMYanl6MHDx4M2ZZIDmJBbYwcAgTcJlDGmFljrkG9/8ABt6tLevk6g0ldW6g7PP+QK1cuueG6OlL07JPllBNjcC8R4/Qn44bo35QMjEc2dSxWVgcOHpGffjkgK1a/L3v2BnY5Z7xYJ9ztt87mUqusQKFGg1pyyhn5JPeJsc9mC1RutGk5cXRGNlqi7Wn8+SP6Uz4icvjPQ/LN57tk2+dbA1aqbhKvv94ZdzsBKwiQmJWVJSNHjgxwRKRB9cpywWmnSKG8xvzbJMKPiG/AHpAYiMB/xh/3buPe+NWvf8raDR8EyiJqwWy8YAQ85lbi008/HdSbwOWXV5LTT79Acuc+ReS4GH6n3Wo05cZN4Mh/+w1X2b8YrrN9rRbMgnUc6nhMZNAlDtRNWqDlDS447zypdtmFcubJueUEhqLnsuTE54Vox8uWH/+WCwufLN/vOyiLV2d/V9DyjA9vMn/+fMmTJ3ZLkGjbpcsR6fuLLnPgH/Kdkk8aVy4nRYznxZOS+But7UqHMeDP1414pJwOGhl/PvCfrNr8qfwRZMmfzz77zLOEkRvtDFZmy5YtPX8DgY5ff20dOa9oPsmfL8nvL5FCDtSJDEuL5P368L8iv/5+SD7Y/KV8vnV7QELq1eHqq68OeMytRPWyYl971F5Pg2pXSrH8J0l+Yygm82eaoWi/KqH3I2FlvErL7n+Pyld//C1vvr8xYIETJ070eIQKeJDEtCHw4IMPyr333utaf3r06OHxKheughdffFHuNryR7tq1K1zWmI7r0keGKCzqdS9U0GdFtWBWd8ZuBf12Gcgy2b8+XWdYLWXdCvfcc4/o9Q8XdE1sdbPtVtB3Ar3fFC1aNGQV6v5c32V1qSg3glpMjx07Nuxv8H7D2vm2225z1fON/iar16lwYfTo0TJw4MBw2WI+3rlzZ1Er7hNOOCHmMswTEahNEmzTgsDYMWOlz9194u6LltOlS2cpULBg3GWpMK0CtYZMWH9a1wksUqRINm4tmjWQFo1Okeuv2ix5T2AdwWyA0ijh6NHjZOmGqrJgxb8y4znvWi5mF42Zh1K2bFkz6ur2xhtv9KzXZq+kaq2r5LRKZ8qO8/6SH/L+Zz/EfhoSqPT7KXKS8Y1n6czF2XqnH79vuummbOluJOgD5GOPPeZTtIovPWqWkqvz/CLFDv3pc4xI+hHYmregvHbgdBm5cL0cOnTIp4M6cSFRLvOMWeiiHwP8Q4OGXWXfvxfIj/+c6n+IeJoRKJDnoBQ5+Qf58ft18sknm31617VrV9EJDIkIKk6rK13/0OPGunLdaX9L9QM/+R8inmYE9uXOI8tzFZWXv/lXXl3jK1brx8IVK1bI8ccf73qvA623qJW2qV9DrjvhoNT75DfJrTOOCGlNYFXZwrLkv5Nk1utvZuvnxx9/nLC1qXVpJH/38o0a1JBW1xaWG6vvkEL5uTdmu0BplvDWR5Vkweo8Mm7SK9l6pu5D9YN9IoJ+7FfRxh5KG+uQdr7kbGnw629y/rcH7YfYT0MCWy88RZbnP02Gv5r9vvjoo4+KimSE9CagorDhRUH0uX39+vVxd1bXNa9Ro4YYXhY9a5xHU6CKYUuWLJFXX83u/jmacjSvCo4VK1aU5s2NNYsN18zRBl164b333hNdiiPeoGu86z911xzNc68aABke+jzrdzuxRFK1atU863537NhRSpUqFXG39u3b51kfetmyZaLL5MQbLrnkEqlSpYpMmzYt6qJU4NcJDZs2bXJkCTM1atF/+o4cTVCDPW2Lbg0PjtGcGjCvunvXJTR13OmScZEGNSDUZS5Xrlwpb76Z/T4eaTlmPl2KybCaFjUEq1q1qpkc9xaBOm6EFJBTCPQy1nPUPzr9Y504aVLMzTLLufzycrJ8+bK4RWptk5apYcSIkY4I6DF3LgEn6g3T/wdp2tim0uXadQmonSpyGoGFa6vLTd1e8mnWpZde6llf8pRTDOs8F4POWtMHWHu4tueNsrbsPnsS+xlCoOLvJ8t/b/wp61astXqcO3duw5Jwg+fFxEp0YUctEnUtQ3u4s7mxvmG+b6TgYV+h0p6H/fQk8M0J+WT8H2fJtFd8rVife+45adeunaud1pdGf8ub2rVvkL+OqyS/7Hf3nuxqxyg8JgK5jzsiJU/9TFa87vvyP3ToUDFctsVUZqQn6ceuypUrZ7OcfrlzVal18IdIiyFfGhGYlquE9H1ujU+P1KJ57ty5PmluRPRDqf9H1ynXVZWmmxEC3eCd08tcWu5M6bjkXZ9m6uRa/fh7Yhxrb/oUGCSiH0D1+4E9PHJfM+nXNv6PivYy2U8NAm9/XFGGT/lHXlvuvf46BnUsuj3hO5DlVZ9ra8kdX34vp/7JJO/UGEHOtXLX+SfKxFPPkBl+E3h0HVr1+ECAAAQgAAEIxEoAgTpWcpyXowjs3bNHGjVqLFu2HJuVEqtIbYrT2jkVqF+Y94LH6jmeztrLfNWY6RXIUiSe8nPSufpBc/jw4T5NWrfgaqle1h0XGz4VEcmxBLbuukQubuh9qdaG6t9oLLPhIu3k7NmzPTMy7fmvGdRU3iy2157EfoYROOW/4+TyNSfI6wu8LplUIFGR2q2wefNmKV++vE/xD7WtK73kS580IplH4OF/S8rD81ZZHc+fP7+oG9Fw7qusE6LcMdYGEp2NrK7JzFC/fnvZ/lcFM8o2QwmUzr/LEKnH+/T+9ddflwYNGvikORlp0qRJNuuHbR3LyFmH9ztZDWWlGIEVeYtKi+lv+7R6/Pjx0rt3b580JyOB3NeuqHe5lNvKhEYnOadaWWo1WOPNT3yarS4s1QuJW0Et1PQdyR7mT7lRbqodv8WavUz2U4vA3/8UkttGlZRZc7zvLzqpxglLqGAkVABX6zV7eLhJDem66Tt7EvsZSODhcufLY0u8E74LFy7seX8544wzMpBGZnT58OHDHnfFakGt75HxWOqqxfJ5hhe56tWre1x2R0tQraf1n1otx3sP1PccteZu1qyZVKpUKdqmiLrAVnfSY4whaAAAQABJREFU+s4UT1BrVH1Hb9y4sact0ZT1+++/i05yVxbqDSjQMjWRlqcMihUrJurBqEOHDnLqqdF5VZs3b55h5Ldctm3bFnC5z0jbofnUmvzKK6+UYcOGRXOaJ69OONXl/PQ7nL/xXLSFKQt1+67vrbG8F48aNUrefvttUSvmjRs3Rlu9lV9/j9WiXfUktW6PNsyYMcPD4osvvojr26f+/eq3KrW01/cnJwMCtZM0KSupBOIVqe1CslPW0wrEXH+6QIGC8tPP6TsLf/v27R4XKfZBsHrutVKnvO/sc/tx9jOHwGdfXSqXNva+yGjP9WGhbt26rkC40HA9Zhdhru3XVNaWRJx2BXaKFXqi4YL+0pePytplXutVN9cAVhd8r7zyikVpSKt60j/3F1acncwmMPRASXl8kVek7tatm8c9lhtUhgwZYnhyGWEVXbfuTfLFP1dZcXYym0DpAl/KiuVPWBDUZZe+ULsR1N2ZugWzB8RpO43M3l9ywnnSboZXkNPJO7pkUkEHll7yJ6tum/2tEJc2KCeVPuOZ0Z9VJsY/K5VPar3xsU/X165dKzVr1vRJcyJy5MgRz8T4777zCoDPPt5UOjTCC5kTfFO9jH/255eWg86TJa9536cnGV4D1WOYG0GFEhUazDD0uprSe/O3ZpRthhMYWvZ8eco2Fnv16iVPPOF9hsxwPGnVfV32R99P3QrqsUkNncIFXV9Yl0xz692kTZs2ohMiw020+PPPPz2TJlXwcyOoYYN6r4jEsE3FTzeXCIt0gqhOGNB1jp1wdR6IaU/DI+3jjz8uuXLlCnTYStN3hbvuukt0GQw3gn671jW/L7/88rDFZ2VliS7h5laI1POe5tPJBm4F/b7kb6QYa10I1LGSS5HzTnLIBZWunVyyZElPr8saf4y639yYZRTvGs16A1GRSmdxfGSsS6vbuYaLmHLlylmEdT1odRuj1tHajltv7RHUTXasInW84rT2Y7Tx47Bx4yafdtapW0eq/m/maTNjXQu16kzXcMcdd/g8lI4b3kzubPlmunaXfsVAYO7K6tKmp/dhQYU7Nx4e/NdXvbpDE1l3Feuex3DJ0vaUK/acJOsGLbH6V7x4cZ8JDdaBOHf0RUpnF5qhSd2rZFYR74dHM51t5hLYb7iZb/55QXn7g00WBJ1co2PSyfD33397Xrj37z9mnVqo0Gly/v/1l92HTnSyGspKcQIXnrRe1qxZaPVC1++68cYbrbhTOyp+2z1X4NbbKbLpU86jR0rK8LneyTsPPvigx1LF6R7qR1f7mutjm1wl7TfhYt5pzqlc3otXFJHur75jdeGmm26S+fPnW3GndvTjq91TQP/eN8jo299yqnjKSQMC739eXq68wWupp+unbt261fGevfHGG541SM2Cm9W5SiZv575o8mArsreA8f4ieWTLZ59bOHRyjVteoKxK2EkoAbdFNrMzKg4///zzZjTbVt9H1Mo5EeHLL7+UEiVKBKxKx7hafycihBMgAy0H4ka79LlEhepQ4bjjjgt12JFjamWuk6aCLROp602rNXwigq7lHGoCgb+BilttOnr0aNiiE3FtdP32RYsWhW1LuAwI1OEIpfhxpwTqYBjUBdUAY6aMCsfRBF0gvrWxppgKu/aglssb3j3matVfbLbn22q4jAhWp/954dx9xyNOa136o63rRGnbu9/a3eOWS/vVqGFDz03LXEMq3defVquGvXuPWRvUrllF1jyNhaB9zLJ/jECbIRVk7nzvbGx1Q+P0Q57/OoIVH20kW/Md5hJAwIdArQ9OlSVPv2ylqZWzuu5xMvhP3JnfuZo0OPi9k1VQVhoQmHd8Men+rNciRmeh6mxUJ8PUqVNFXZOaoUGj22Xb3gvNKFsIeAgUPXmfvLPa60rNDSFGXeGpyzYz3HpjXRl18pdmlC0EPAT+zJ1HKi7fJz//8osnftFFF3lcBjqJ59ChQ6LW2br8gYYG1a6U57/+1ckqKCtNCNx60TmyaI1XLP7pp5/krLPOcrR3uuTMe++9Z5X53fpKUvTMnVacHQgogUGTqsuocd4J3/rBvqHx3cnJoM+L+txohoWNK0jNj/8wo2wh4CEwt/zZcsfity0aavXZv39/K85OahOYOHGi3H777QnrRN++feXRRx/NVl8gTzfZMjmcEEz4U3fP6kUlUUFdQvsvFad1q2vxhx56KFHNkMceeyygO/YVK1Y4/vsTqlPBrotOwL/iiiscf08I1ZZgz4GJmjhgtm3u3LnSytDW/INa+Hfu3Nk/2bV4jx495Mknn4yrfATquPDl/JNNgVrF0bKXl7Ua/NGWjwxhdbAnrusihwt7DCH2m6+/sSyZ/fPHKr76i8lmOWZ6hQrlPQK4WlZfd+21VrXPGZbIzQ2L5GDBPD/cmtTxiNN2kT2QCK6W3+pyY+/ePZ5mvmOscWq3DA/W9lRM1zU3GjVqZDV9zIPNpE8rrKctIOxYBF5YVV1a3+Z9qZ4yZYqjLoN+/vlnKVKkiFVf47bXyvqa+604OxAwCZTde6K8PXCpGRV1HaQvYk4Gu6v5+ldVlgUXpO8yD05yy8SyLl93RL7+9pjrRLW6f+st74dwJ3jorHOdfW6Gi6uPkr//PcGMsoWARaBE3jfkjbXHJu+cdNJJ8s8//1jHnNhRS9h7773XKmpx5ypS4+CPVpwdCJgERv1XUka+4LWi3mJ42/J3x23mjWW7ePFiuf76661THzOsp2/GetriwY6XgL8VtX74i2UNQG+Jvns6Ydc++f7OntfLuLu8wo9vbmKZTGDz9nJS/rqVFgJ1Zzp27Fgr7sTOueee61kvU8tqXL2KzNr5sxPFUkaaETh8wnFy2Z7d8sfu3Z6e1alTR3SNYkLqE9htXNPTTjvNpyMXX3yJ4eGrhBx//PE+6bFEjhiWnz/+oGvyfuBzun5j93ef7G+N2qJla7mrTx+pVsU72dWnkCgjQ4c9IMMf8E7O1dP1nqr3VntQK2L/tL79B8m9Q7Ps2WLe/+jjT+VJY9mG52fPssrQZ1RdS9kePvnkE8+ayPa0+x54SLrd0kXy5TvFnhzT/h9/7JYpU6fJyIce8Dn/F2PCqL/7c12P2L6ucqfOXaWHsezExWUu8jk31sjgrKEy6YnxPqfrOtctWrTwSdOJMf6TGx4YPlLu7N3LJ1+skbfe3iDXNG7oc7our6HLbNjDa6+95lk725726Jjx0rVzR8mVO5c9Oab9b775ViZPmSpPTBjnc76/cK8TcPPmzeuT54477za8EXeT884t6pMeS+S/f/+Tp5+ZIQP69fE5Xb9f2b1H+hyMIIJAHQGkVM5iCtQqQttdEKhbbVPw3X/gQMRdtJ830fhjzBqcZQmwgUTaSAquUrmKxy225lURt3ixYobY2dgzC6TP3d4Bb/ZF84WyoNbjGsKJ1PGK042NNqr4HKzfCxculPbt2nnaYrcM9ySk2f/8PzZ+vKyuXFbiozTrJd1xgsDev86QguU/t4rSGWZ214rWgRh3/D82XjOoqbxZbG+MpXFauhP4vzkH5Z21x4RAnZ1qf8COt+/+LqBYezpeoul9ftb+C2XSi8c+6qgrpsOHD0tuw/23U+Gcc86RH388JgLWrn2DfHWgtlNFU06aEShdYKexFvUEq1dq0VepUiUrHu/OtcaE06VLj00O0pfkj2vG/6Er3jZxfs4ksC7v2dJk+jHPWtpCtei75ZZbHGusvwXKhqsukQt3ManRMcBpVNBvhY+Xi7fssHoU6MOkdTCGnQULFvh8cF349I3SrOb6GErilEwgUOeWkvLGm8fujVWM5eR0SSGngi4zoxNszXCvsfb0Haw9beJg60cg6//Ol6nL1npSTzSWlzSXEvLLRjTFCKjYZ7eGv/TSy4z7QknHe6Gi54YN3slYavFpeiDVygJZTx8w9At/8S3ehr1vLNV5ZUVf99D+op+/q+TlK1ZJlcrOvR+ZfejatZssmP+CGZX169eLurc2w5133ikTJnjf0x4e/Zjc1qObedix7ZixE+T+YfdY5ek64bpeuBn8xdgON3cylvz0tsvMF+925ao10rzpDVYx6m3GvkzUv//+K3ny5LGO684HmzZLqZLe3zGfgzFGfv/9DylRvJjP2eo59/zzz7fS/A0CVMRtcVMz67hTO/cMvU8eHz/GKs7f6Oupp54SfU41w11395P77/NODjfT493OfWG+3Nqtq1WMThzQCQSxBgTqWMmlyHmmqOuGQK3Ctr8IbFpAR4pH/6DLGGvnaNBZwyo8q3Csa1uPGDHCKkZnUplrOZv5rIMhdvzbZ4rJ8YjT2ubKV1b2iNMqPC9fvizgWtxqQW1aqZv1hmhqSh9q3769z/raR7cXTun+0Hh3CTS8rYysWHXso4s+bOlDl1NB3c/069fPKq7KI1fLJ6cec91oJbIDgf8RqLHuZHlt9que2Mknnyy6Tq9TYc2aNVK3bl2ruJmdasgNh76x4uxAwE5geu4S0mfWGivps88+k4svvtiKx7PjPwu+QcPusm2fM2XH0y7OzZkELjhlt6xb5f0AEW4NtGh7UbJkSdH13TS0blxbnjoNF7bRMsyU/HvynCDFZnpFQX2+e+SRRxzrvn5IUWHQDL8WLW7usoVANgJnfO+9V+nznU7cdyrodw/70h5frakqxYt6x75T9VBOehC4bVQVeWrasfeXQoUKyR9/OOd+e9myZXL11VdboGZfc6U03PKrFWcHAnYC08oXlUGLvd9yQq3faz+P/ZxNQL1jqpdMM1zX5AbJ5dI6w2+9tV5+//03T1U6ofr77783q5Vx48ZJH8Na2gwvL14i1193jRl1dPvgQw/Lvfcc8zKrBdsn6G4zdIoyZcpY9fUbMFiG2vJaBxzYWbf+bbnumsZWSffff7+P5yn9PrB161br+N59+6x9p3cKGMvgmMF/MtTdd9/t473jjTfXyxXlyprZHd0OGjTEsC5/3CrT7l7b35urW4K9Vr5g4Ysea2izIdOnT5dOnTqZUbFPYmjVuq1MmfKUdczJnR9++MnHSt1fGFZvw/Y1obfv+MJYluZMJ5tgldWlyy2ycIFXlPaf2GFljGAHgToCSKmcxW2BWtnYReACBQoafv+3BhRsA3H0F3FLliwlHxhuPmYbLrztwZ4vWhHc3j4tUwVuFZk1hBKYPRn8/udfVihX47o29dgxx2a1hMrnV0VKRhs0aCArV3pdTSFQp+RlTFijOw6rJM/Oec1Tn36o3rHDuQ8wAwYM8Pl4ee4T9WXP8UcS1jcqSi0CtT7ML0ue8rqc37t3r2c9Sid6oevBtGnTxirq9S6V5MoDv1hxdiBgJ7A073nSdrr3A88bb7whtWrVsmeJeV9fYu1id/1GfWT7Xu9s35gL5sS0JHD6Cftl85ted3XB1h2LtfP58uWzJgP1blZPHjjxi1iL4rwMIFDw+WPvbNrVDh06yLPPPutYr2vWrCnr1q2zykOgtlCwE4BArzLnyrxVx8bLJZdcIp9++mmAXLEl+VtEHfr0HMMi6FBshXFW2hO4b1oNuX+Ud9kWJy0KZ86c6fPBfWW9snL51j/TnikdjI3A4ivOlC6vvmud/Pbbb0vVqlWtODupScAutBUteq5UqFDRtY7s3PmVYSn9kVX+PkNwPfXUUz3xXr16+bhRdvJeZ1X4v51Va9ZK/bq1reQ5c+ZI69atPXH1/KQeoMwwd94CudrP5bN5zImtXRhWY7BZs2ZZxdqvjVuWsWZlffsNkKdtIqtdfGzSpIm8+uqxiVKa302hfN78hdKta2ezWZ6l0ExX0upmW8eJGVTgL1v2MjPq6Pbnn3+Ri0qVtMrUiYXDhw/3xFVjKlasmHXsoZGj5fZePay40zsd2t8sr7xy7DumLiW7efNmqwpdDkm9D2i4sWlzmTlzunXM6Z3xEyb6TOzQCSY60SSWgEAdC7UUOicRArXisFs4RyMgtzNcYC8yXGFr0PN0zeZAArc9n781uOfkMP/zF5Y1e7Riup5jt7xuZsxK8RfSNY8Z1DLcFMKjcaNunp9KW/uPpLYbgTqVrl7i29rtocry9MwlVsX2Bx0rMcYd/w88hZ6sK4ePi7EwTkt7ArU/zi+vTvQK1IHW1okVgn5Et69P+EbnClLu4LHZwbGWyXnpS2BV3qLSfLrXxdny5culYcOGjnRY123VFxcz1G/YV7bvO9eMsoWAD4H8eQ7KJ+sGWWlq2Td4sNeiwDoQ4479mbFfi3pyTx4E6hhRZsRpdoG6ZcuW8sILLzjWb/tY1EIRqB1Dm5YF9bnkPHluxZtW35x8f+nRo4dMnjzZWzbeyCwW7GQnMOLZGjJkuFegdnKCrS6l0L17d6vSdbUukzJfOOdhyiqYnbQg8PrlZ0i7pe9ZfXFygq1VKDsJJ2B/PrrggmIewy63GvHtt98Y4tomq/hff/1VChcu7Inrsi7Tpk2zjjn5u2sV+r+d9z7YKJUreYX4GTNmWN9yXnzxRVH3zWZYvOQ1qVnjKjPq+NYuUNutY/3XFh485F4ZNLCf4/WbBd4z1NeVtJ2/fqdYsWKFmdVVgXrJ0mXStnVLqy5d617XvNeg64WrNbcZNn/4kZQoUcyMOro9sP+AjyVy3759rbWvt2/fLqX/5x1YKx1nCLedO3VwtH57Yd2795AX5j5vJdmvjf3vt227DvLkkxOtfE7vPD1tuvTtc6dVrC4TUrx4cSsezQ4CdTS0UjBvogRqRWOKt9Gst1zkrCIeV9lq1VywYCHpP6C/qDsC/2CKvdG49/Yvw2yfmR5OYDbzmVu7CK9pul62/YOvmU+3Kkybrst17W8V1dM52G+A2k8E6nS+2vH3DYE6foaU4AwBBGpnOFJK/AQQqONnSAnOEECgdoYjpThDAIHaGY6UEj8BBOr4GVKCMwQQqJ3hSCnxE0Cgjp9hTizB/n0XgVoEgfrYKLWLoAjUIgjUIgjUSbyDq0i5ZvUaY82hlfLbb7/Lli0fxt2aaCyOo60skQL1QsMSur1hEa0hEothXbfpOpubjGCCsV0YDpYnHBd/cdrMH83a0HYr7nAifDwuyc22pdLW/gCj7UagTqWrl/i2IlAnnjk1BiaAQB2YC6mJJ4BAnXjm1BiYAAJ1YC6kJocAAnVyuFNrdgII1NmZkJIcAgjUyeFOrdkJIFBnZ5IOKfbvuwjUCNTmmEagxoLaHAvmFoHaJJHA7TPPPCNTJk9xRJD2b3a6CNR2q+FQ1sVm/+0ibih32/Z8E431BVRUjibYxWmtZ/bzs2VI1hDrWkYqUpvW3lp3uGtmWnxr3lhckut5qRTsDzDabgTqVLp6iW8rAnXimVNjYAII1IG5kJp4AgjUiWdOjYEJIFAH5kJqcgggUCeHO7VmJ4BAnZ0JKckhgECdHO7Ump0AAnV2JumQYv++i0CNQG2OaQRqBGpzLJhbBGqTRAK2ar3b49YelpjpRpXhxM546kykBbW2M1h9gfpgF3FDicRqZa3W1hq2btsm6uY70mAXp9XqefnyZVKgYEHxX5M6VP1al906XOOhRGe7oB6PS3KtJ1WC/QFG24xAnSpXLjntRKBODndqzU4AgTo7E1KSQwCBOjncqTU7AQTq7ExISR4BBOrksadmXwII1L48iCWPAAJ18thTsy8BBGpfHukSs3/fRaBGoDbHNQI1ArU5FswtArVJwuWtWk1nDc7yrJEcqCq1xq1YsUKgQ1GlqdvqaK2CI60gmGBsd68diTtus75w5wWrzzzf3NqtrTUtlMW1WWa0Ym8wcdpsQzQitV101vODMdMyK1eu7FmDWvPF6pJcz02lYH+A0XYjUKfS1Ut8WxGoE8+cGgMTQKAOzIXUxBNAoE48c2oMTACBOjAXUpNDAIE6OdypNTsBBOrsTEhJDgEE6uRwp9bsBBCoszNJhxT7910EagRqc0wjUCNQm2PB3OZogdouYJoNjmRrtyI2BclQ54WyYA11XqTHVJxWgdM/qEh6q2FR3ax5s6gsef3LSVTcZOnPy36dgomtgdoY6jwVZ4sUKeI5zb8+/7LsfEOt52zPZx8jKhiHugbhxGmzPZGK1FlZWTJ2zBjztKACta5TvfGDDyyBOpo2W4Wn4I79AUabj0CdghcxgU1GoE4gbKoKSQCBOiQeDiaQAAJ1AmFTVUgCCNQh8XAwwQQQqBMMnOqCEkCgDoqGAwkmgECdYOBUF5QAAnVQNCl9wP59F4EagdoczAjUCNTmWDC3OVqgVsHvmWemy6hRo4JaHpsd0W2fu++WChUqGJbIFS3BV0XQj7Z8ZLh1Xmm5djbPUTGzVatWhsVxZ4+rZjPdya2/O2ezbBUb3azXrMfJbSIF6lDitX+f7AKyXcT1z6eC76KFCz3Jpuit12fRokUye/Zs/+yeuL1su1vvgJmNxEhEan8L6kAW31qvug/X9qqFuAYzX7g2ezKn8P/sDzDaDQTqFL6YCWg6AnUCIFNFRAQQqCPCRKYEEECgTgBkqoiIAAJ1RJjIlCACCNQJAk01YQkgUIdFRIYEEUCgThBoqglLAIE6LKKUzGD/votAjUBtDmIEagRqcyyY2xwtUJuN1LWbGzdqHFakDmW9axc8tdxQQqZZb7xbFStLly7j02515T37+dlSr169eItP+PmJFKhNK+NQFtEmAPv606aIax6zb4ucVcS6FjpWzDXBzbWk7Xl1P1px2jw/nEit9VatUsXM7nHdPWniRI8greLzI6MfMSZalJeJkyZZ63BrZl0zW8fxlMlTrPWvrULSaMf+AKPdQqBOo4vrQlcQqF2ASpExEUCgjgkbJ7lAAIHaBagUGRMBBOqYsHGSSwQQqF0CS7FRE0CgjhoZJ7hEAIHaJbAUGzUBBOqokaXECfbvuwjUCNTmoEWgRqA2x4K5TQmBWhvrb3VqdsC+Na1i7Wnmvt29swp/bq3TbNanW7vAqXEVp5ctXyblypXTaMqFRAnUdmE/3EQCu9gbTsy2C9SaV4PT4rR5UcOJ1P5jwzxPtzo2R4wY4RGsTebm8UisuM28qbq1P8BoHxCoU/VKJqbdCNSJ4Uwt4QkgUIdnRI7EEECgTgxnaglPAIE6PCNyJI4AAnXiWFNTaAII1KH5cDRxBBCoE8eamkITQKAOzSdVj9q/7yJQI1Cb4xiBGoHaHAvmNmUEam3wdddem81Nt9kR3eqazmpl6h/URXLlKyt7rGfVDbiKf24HrVMte+3hOcONdPPmze1JKbVviqX+EwHs1umhrNj9OxvsPNN6WvPr9dTrGizYJy6osKuTD4IFzTt58lOyZ89eqVe/nphWy/757eJyPIKwvZxAkxO0n3YX3uaa5H3u7mM1SdusLu6LFSsmdevVTcjYtSpP0o79AUabgECdpAuRItUiUKfIhcqAZiJQZ8BFTpEuIlCnyIXKgGYiUGfARU6hLiJQp9DFSvOmIlCn+QVOoe4hUKfQxUrzpiJQp+cFtn/fRaBGoDZHOQI1ArU5FsxtSgnUdqHZ7ID/NpDFbZXKVWTLlg89brVVXE1E8LeQTZQw7mbfEiFQ2y3dA11LN/tnL1vF5Z69egUVse15Q+1rObr29fCHHkpZy/lQ/XPjmP0BRstHoHaDcvqUiUCdPtcy1XuCQJ3qVzB92o9AnT7XMtV7gkCd6lcwvdqPQJ1e1zOVe4NAncpXL73ajkCdXtczlXuDQJ3KVy942+3fdxGoEajNkYJAjUBtjgVzm1ICtTbabjFrdsJ/a7fwNYXieCxh/cuPJG53J635f/rpJ4/L5kjOzal53Bao7ddW1+hO1GSCnMo7U9tlf4BRBgjUmToSIus3AnVknMjlPgEEavcZU0NkBBCoI+NELvcJIFC7z5gaIieAQB05K3K6SwCB2l2+lB45AQTqyFmR010CCNTu8k1W6fbvuwjUCNTmOESgRqA2x4K5TTmBWhseztW3ulPetm2rLFy0yLMOdCD3yiYAN7Z219VafjjX0260wY0yIxGoIxWV1Rp+4wcfiFpMa1D31pqmwb4GsyeB/2UUAfsDjHYcgTqjLn/UnUWgjhoZJ7hEAIHaJbAUGzUBBOqokXGCSwQQqF0CS7ExEUCgjgkbJ7lAAIHaBagUGRMBBOqYsHGSCwQQqF2AmgOKtH/fRaBGoDaHJAI1ArU5FsxtSgrUkbj6VotpdeutIdFrP9stgZNRv6fTLvwvEoE6nmpVpH7IWB88ldfpjqf/nHuMgP0BRlMQqBkZoQggUIeiw7FEEkCgTiRt6gpFAIE6FB2OJZIAAnUiaVNXOAII1OEIcTxRBBCoE0WaesIRQKAOR4jjiSKAQJ0o0omtx/59F4EagdocfQjUCNTmWDC3KSlQa+P9RWCzQ/7bZKxjnJWVZbRvjNUUFcsLFz7diru506x5c48Fsht1OC1Q2ycRpIuVuRvcM61M+wOM9h2BOtNGQHT9RaCOjhe53SOAQO0eW0qOjgACdXS8yO0eAQRq99hScvQEEKijZ8YZ7hBAoHaHK6VGTwCBOnpmnOEOAQRqd7gmu1T7991EC9S//fabnH76MS2me/fuMnXqVAuHXSC1Eh3aeefd96ValSut0p599lnp0KGDJ/7yyy/LjTfeaB17efESqV2rhhV3eqdA/vxWka1atZK5c+d64v/++6/kyZPHOjZg0BAZkjXQiju9kzXkXpn4+DirWDv/Ro0ayeuvv24d27tvn7Xv9M7iV5dK+7atrWLfeOMNqVWrlic+fvx4ueuuu6xjH2zaLKVKXmjFndz566+/peg5Z1tF9u/fX0aPHu2Jf/HFF1KqVCnr2JhxE6Rrl05W3OmdW27pLvPnHRsXWrb92tj/flu1bitTpjzldPVWeZOnTJMB/fpY8V27dnm8LVsJUewcZ3TiaBT5484aztW3VrB127aYOxRrAyNpV6xlhzvPTUE+EoF6/4EDPk20TyQI1Db78Xc2bJBy5cr5nE8k8wjYb4DaewTqzBsD0fQYgToaWuR1kwACtZt0KTsaAgjU0dAir5sEEKjdpEvZ0RJAoI6WGPndIoBA7RZZyo2WAAJ1tMTI7xYBBGq3yCa33EqVKskHxvKeGvIbYmnt2nVda5B60f36611W+XaJatiwYfLAAw9Yxz7c8rFcXvYyK+7kzrTpM+UWm6Co4muDBg08Vbz77rtSpUoVq7rRj46VW7t3teJO7uza9bXRx/+zilTxdezYsVbc/u3dbfGxTZt2snTJYk/dF110kbEs7zarHZ07d5YZM2ZY8V1ffyOFChW04k7ujBk7Qe4fdo9V5NatW6V06dKe+AsvvCCtW3vF6+eenytNrrvGyuvkzgZjEkOjBvWsIh977DG5++67PfE///zT87diHryjdx8ZPvx+M+r41j6JoX79+rJixQqrjjp16oiK+BrcnDig5Q8efI9MmjhBdz1h//79cuKJJ5rRqLYJF6jV1XeZ/w2kYC2tV6+eRLoucrAyok1HoPYlVqVyFY+79WBrgZvH1cW33qwLFHTnRuTbKmI5lUDDhg19bogI1Dn1SuWMdt08rKLMmrPM05iSJUvKjh07HGvYwIEDrVlsWuj5T9SXP44/4lj5FJReBGpvzi+vTn7J6tQ+Y+bnqaeeasXj2Zk3b57ojFczLOtypVQ58LMZZQsBHwJLTjhP2s1Yb6WtXbtWatasacXj2dGXyTJlylhF1G90l2zfe4EVZwcCdgKF8+6XTWuzrKQxhoepPn28M6OtAzHu6IcufYnX0LtZPXngxC9iLInTMoGAXaC++eabZebMmY51W60v3nzzTau8X4sWt/bZgYA/gV6lz5V5q9d5ki+77DL5+OOP/bPEHNcP0GoFZIaDn50nJxy/34yyhYAPgWFTq8sDj3jfXw4ePCgnnHCCT55YI7NmzRK915phRb3LpdxW9yzjzHrYpiaBV644S7q+usFq/AbDgKly5cpWnJ3UJHDnnXfKhAle0alWrTpSoEABxzujYtaKFcutclULWrlypRV/7bXX5JprvGJjgwZqtXvsO6KVyaEdu/CrRe7Zs8fqs4rmuXLl8qnpt99+lzwneK2ZfQ7GEXl41KMy8iGvKK/W0/ZvSs2aNZMXX3zRquHVpcukRvVqVtypneWvr5SWNzWzilNB+plnnrHikydPlh49eljxBx96WHrf0dOKO7WzZ89eueD883yKs09iUIvd4sW9z+8tW7UxrO4n++R3KtKoYWPZsOFtq7i33npLqlXzsq9QoYJs2rTJOu6WNfdzs+dKr9u6W/UMHTrUZyLHkCFDZISxFK8ZnprytLRp3dKMOrb9fOt2qXJlRas8vffrb0CsIeECtTbUboEbrOGJXoO6V8+ePn9swdrlRnogK2Wn6onFglrrtq8Zrm69N7zrO8jsx9VF+ezZs51qMuWkIAF9idGXGTMgUJsk2AYi0KBHaVm5+i3PoRo1avh8HAyUP5o0nV1ozmLT86qOulo+LnAwmiLIm0EEqr95kix7fomnx/ny5bNEEycQqMBYu3Ztq6jpHWtK08NfW3F2IGAnMC1XCen73BoryT4z2EqMcWfv3r1S0DaRsEHDbrJt3yUxlsZp6U7ggny7Zd1K74eR559/Xtq0aeNYt3UGvjkxrVXjWjL5tF2OlU1B6UXg9zx55cKZ261ODRgwQEaNGmXF493RD346mcwMCNQmCbaBCJzx/U4r2d9axToQ487DDz9sWKEMts7+YnV1ufDcrVacHQjYCdw6sopMmf6qJ0ld4apLXKeCWg2q61YzPHttZbn6w1/MKFsI+BCYWv5cyVp8bOKOHti5c6cUK1bMJw+R1CTgL9jWqVPPsYn8SuSAMbHmvXff8QjBJiGdhGifIKPp/u14bOx4ufuu3uYpcW8PHz4sffsPksfHe5d87dSpk0yfPt2nbBVjVZQ1Q5eu3eX++4cZVrPOGDdoudOemZGtb3YxVvMsWLBAWrRoobtWWLn6DalUsbwVj3dn3fq35bprGvsUoxMHdAKBPfhfG6eFUJ0EMGzYffLcrJlWtfqsZBdf9YBOYtDJDGbQ63nvUO9kazM9nu3YcY/LffcO8SnC/9ropO6+fftaeZo0uUHuNzwAXHihV0C3Dsa48+qS16RdG68RjBbj3w5N8782c16YL9dc7f1t1zzxhO07vpBhQ++VpUuPPYtoWU8++aTPpIVoy0+KQK2NNC1wgzVYLXe3bduaMMtcf9E8XVxXxypQ63XR2TEq3GvoY7gt8L8J2Jm5KbJ7GsD/cjQBHRs6S8cMHy6pJ5eX2mJG2ULAIvDH3rPl9Epei4Nu3boZa2JMsY7Hu+M/y/KagU3lzeJ74y2W89OUwKXP7Zd317/j6Z26snrvvfcc6+lPP/0kZ599tlXeoJb1ZNDxWApaQNjxITDwnwtl8kurPWm6ttShQ4d8jscbOe+88+S7777zFFOr1vWy82CdeIvk/DQlUDr/l7Li9Ses3m3cuFHKl3fuo8f1118vixcv9pR/dpEi8nndvFZd7EDATmBN3nOk6fRjv9GaPm3aNOnSpYs9S1z7/q4j36pxqVz01T9xlcnJ6UngxyInSNmN26zO3X777fL4449b8Xh3XnrpJWnatKlVzLzJN0qLOl6vKtYBdiBgEKja4QLDgGSjh0X16tVl3TqvQBgvIDVEsQuM91xXU+7c/G28xXJ+mhIYcNl5Mn35m57enXLKKfLXX3+laU8zr1sq0vp7rdH1qM86q4gcf/zxMQM5cuSI/P77b8ZkVe8ERC0s2L1MheJAz37qZvv000+LuR164rfffpdNdNT0QOvo6uSLEiVK6GGfMChrqJx77rnZBEGfTGEiOpn8/ffelRcXLfDJqX3X6+Af/Nd/1uO39bxDShse0+xrVPufFy6u3jg+//wzmTr5SZ+sHTt29HHnbR586KGH5J57vK63Nb214Ra8fIWKcQn3Oka+NlyGjxo53KzK2gbyGKK/gYE8zw27f7jxPa6IdW60O5988okUKXK23BNgne9ly5b5TOYyy1YPO59++qkZ9Wzvuru/IVJfKLlz5/JJjyai3ga2fLhFnp3ptWLX8wcNGiQjR47MVlSvXr1k0qRJPukdO3WVspeXlZNOOsknPZrIf/8dkS+//ELGjXk022mBhPJsmUIkJE2gjsSldiItcxcuXCjt27WzUKWL4BqPQK0w2hlMFhlsNKjbdf8ZM/bj6SLqezrL/6IisGrVKtGZ5GZ45P5m0q/NsQdVM40tBJTA7BU1pH0vr0sapz82/vHHH8aD6ukW7EatrpG36hyw4uxAwCRwxe6TZN3gY9bTmta7d28f94pmvni26lbZXKunVpWK8nKJX+MpjnPTlMBhw2VYmdf2GS/rv3t6qG5nzXWDnOpyy5YtZf78+VZxl9V4WPYdRhi0gLBjESh2wkrDs8mxe6MueaBLHzgZ9CU6K8s7q/2lzlWl9sEfnKyCstKEwEOHS8oj81dZvdEPPpdccokVj3fHf1Lj6CbVpfOm7+MtlvPTkMC8K86WXq963Tqq97i2bds61tMff/xRzjnnHKu8Xt2byBP9vJMzrAPsZDyBdz+tIFWaLrc49O/f32d5K+tAHDvqLlUFGg0Nql4pz3/D+4sHBv/zIfBXvlxSeue31qRaXa9XLfAJ6UHgn3/+EZ10kKjw+eef+yxJZa9Xv9M4OSnMXrb/vhrqqTvrQGHOnDmO/vYHqsNMU4tttUgNFPT+bHdrHSiPk2m7d+/28cZmL9vfG5H9mNP7SwxNyu7y3V6+rgfdr18/e5Jr+yrKP/jggwHLf/vtt+Wqq64KeMzpxHD3XPXmqF4dExHUtfkVV1wRV1VJEajtlrfhWp8oV997jfUFihiz+M0QyK21eSyVtvEK1MpF/cjrTMpA603r8dKly8jevXsCHk8lVrQ1PgKFCxe2Pq5Xq1pR3pq5K74COTstCbQYWE4WvOhdV+aHH37wsTJ1otM6WeL/2bsKeCuKLn4UJRQBFSkpAUlBUelSEekOEUmlG6S7kZBOaaRRuhsECVE6JCxUUhSVkLrf/Ndv583Gfe/de3fve/e+c34/2JnZ2Zkz/ztvd2ZOQWlCp0LDhZvvJP/qWb4yAhoCxfclpnWzV0k0vGlBygp+JODiB65+dJrfsCiVv8tWCDoefP0PgXnxXqDWn+2QcMCFLVzZOkmzZ882bLZLlW5B393I6mQX3FYYIJD+yT9p99b+ciRw7Q0X307S4cOHDRvYxpXeopGJzzvZBbcVBgjAvXfupb8QDkhBuXLlIlgyOE2IqagrYbxZ4HVa8st/ikJO98PthTYCjTKnojW7IgTGUCh75pnALLfMiCDs0e7dEVbT328vQi88H2G1ba7P+biJQMexhWn0xIj9y/bt2w0hhZxABR4CJk6cKJtaVC4flTzinBtx2TAnQhqBua+moY9W/xe2DQMZM2YMIXYxU/ggAOMPWPDqno/cGBni9k6fPp1eeeWVSJs3x9WNtLKfN71ZLKvNQeEbit9uEs6QRo60WqiqfZ47d06zLHfSg4baPtKw1AYmqldAcx3kmzVr5qhXTLs+Vq1aRRUrVrS7Jcvw3cL3y02CYNpsNW7uD0Lqxo0bC2v0U+ZbjuWhGAAPBwkSJPDaJqyuYf2uGil4reznDViM4+8XcsNAKegCat1SGS68N2zcQL2EW2BVkGAeUDBdfZvdjttZDJv5i+35QAXUGB9+H1i8g+ys2tX7cL0x0eRGQHuQ/wt7BBD3F/F/dWIrah0JvuoIzN1QjBq0jbCerlGjhisfS3yosZDWqfR75WlPidt6lq+MAOX//Una1vM/F7OAA5bObiwgoUmITZdO7xQrSEvSXdSzfGUE6PfHElCFfR46deasRAOuuJ9//nmZdyKB+FopUqSQcb4eFVbbeYsPpKt3nnCieW4jTBDIlGAH7di5Uo4mMk11WcmPBLwE7NoV4WlnaaPCVOpftlz1A8qwfWTo/Sw0bEmEsiFi9Hbt2tXx8bZp04YmTIhwaT9MWFF/wFbUjuMcyg0ufDU1tV0dYT0ND3Lz5s1zfEgIeYRDXp3aNq9EYztG9KuX8zXuIrDzcH56o9Y6CUCePHnoyJEjMu9UYt++fVSoUCHZXPlihWj295dknhOMwKWUj1O5yzfpwq//rd0Q7/TKlSsEoxWm8EMAyqoQQkEhxinCGQniTcM6Orq0d+9eTXkGXkycJLgmxv4brrqjQ1BSgxHCokWL6Pvvv4/OI9GqU7t2bWopwqxCYS26hLjYOP8ENk4R3GVDtgPhZnQJxh5TpkyhlSsj9pHRfdZbvSxZshCUpWEZnSRJEm/VDOVnzpzRvCKa3VsbKvmRwfkyhN/q2V5UzQwfPlxbLx47diyqqtG+/8477xDCZOIsPboEAfW0adNo8+bN0X0kynovv/wy1atXzxBzO8qHoqgQVAE1rHAL5C+gWdtCiIkJr5Z549VOKOqtbiDlasxltGNnMRxI+zHxrBMCavANV3yj/28FZmfVrt7Xf9uYGC/3GXMI2LkZ2TCvApXOvy/mmOKeYw0Ch868Qq9WiLCcBmM4nPZl8eXLYMyxPyq0r0o7st/wpQmuG6YIpLoXj861MS7OsLBv2rSpKyPGRmPx4sWy7Y9qlKTe8c/JPCfiNgKd/slM01f9F3saSEBYMm7cOFdAGTBgACHmqk5vvFGZvr/zhp7laxxHIFuS70Ts6SkSBbgFc/IgSjYsEsuWLaPq1aurRXSkYS7KcPcfQxln4iYCyx7PQB/MiVBgeO655wj7jCeecF6h5uzZs5Q1a1YD0MvLvEZFj103lHEmbiLwTc6kVGbzYcPgDxw4QPny5TOUOZXBXMSc1GnqyGrUtFLE34Jezte4h8C1P9LScwWMczE61n7+IlWtWjVavjxCsbxL+RLU+fDP/jbHz4UZAp1F7OnZ/489jaFFx+IzzCCIk8OBRSZkOFB89pegJA1F7GTJkvnbhPYcBMM3b970u43cuXPTr0LBIlCl8EuXLmmeRAOJv4v1rV18a18Gh/jvFy5coAcPHvjymKEuYounT58+oPU24kfDuhtzxV+CwgsU61Uvx/60hbkKuV4gilwIdxXobwOFBoRyCWSOxI8fX3Prjqu/dPfuXUIsdVz9Jfz9wqLeaS9C4CdoAmq4gi5duoyYGIepg7C0HDJkiMQjOi6/7YSisgEHE9mzZdNeuHqToW4R7JSAGnjoFuawat9/YL/2h67jZL4P6/ioXHSoz3I6PBAYNGgQ9e7d2zCYLQsrUMnXWEhtACWOZQ6ffZnylo+wgsHwI4up4gQ82FBjY61S+U5VaWcWFlKrmMS1dNp/49Hpdkbh9FtvvRWpJ5dAMUIMargmVTcLvd4tSZ3isZA6UGxD/fl+/2ahMV9EvBuxCUOMVTcW/DpWZuWdkiXfpXO3CogN0yN6Fb7GQQSyJT1PmzdGWJECAjeVyNC+OS46yg43fIky3v0bSaY4isDq+Omp3uwvDaOHRYZqWWq46UCmX79+1L9/hGt7NLmy9KtU+PgfDrTOTYQqAt/mSEqltxgFgu3btzd4DHN6bEuWLCG4bVRp1piq1LCc8W9Cvc/p8Efg0rX0lLrwt4aBwvUqLNbcIlh8wUJbpT4VilObQxfUIk7HQQT65UlPE9fvlCOHQAv7l8SJE8syToQfAlAuheIqBMOBCLjixYunWSoXLVrU4PUwuojBffK6deu0OQehbCAEi/9XX32VqlatSrDW9ZUQ9/jgwYN09epVXx811IeAOmfOnFSmTBmCgrAvBIEwLMqxb/v5558NZ06+tIO6EFBnzJhR4wFGFr7Sli1btDj0p0+fDlhAnTJlSsqfP7+mvO8rHydPntQsuQ8dOkSInx0IwXIbygwVKlSg119/3eemYAgD63aEtsRv5S9BMI05WrJkSapcubLPzaxYsYK2bdumKQ8E8verK5gULlxYs+T2mZFIHgiagLqVcFMAC2VvsZ3hKmnZF194ZTVYrr51F+QqI0OGDBVC9Q5qUciknRRQI2ZcGaFkgHjT+KOAC3SV1Pv4nTcKIXXSALWi1PY5HRoI4MUNl5AqTRpWjVpUZe1vFZO4kp6/uRjVbRWhfY1xYxG4f/9+bQHkJg6dO3e2xG4p37gyHcz7D92M53Gza247FiJQ+NJTtKmf0eUQYk9iwZgjRw5XOYZLHbOFNuKutn3mMqVni0FXsY+NjZ9M8DSNu5iMFm3YYWAPG39skN2knTt3Wja+RYuWoYfxC9Evt6LnOstN/rjt4CKQ6LF7lC7Rcdqyea6hYygSd+/e3VDmdOby5ctUsGBBzTJWbXtRwyJU5u4vahGn4wgCEygz9VoQ4VECw4Z7wdmzZ7uOQNmyZS3CntEVi1Ddb39zvW/uIPYhsCRvamq15isDYziM27Nnj6HMjQxiuJo9qfTtWpV6NcDeyX+rFzd45TbdR2DD/kJUtt5qQ0cQqsANd+bMmQ3lTmfgIrVVq1aGZpuWKUGtfr9EaX7juWgAJg5kTryYmCY+mpSWbtttGO2aNWuo/P9DQhpucCYsEIB7YBghQeneDRo7dmy03HxD6IjzPQin3aAWLVpocdSjY6EKZTXw7QbBeGLYsGHREoZC+AnDH7cIrsPhhj0q2r17N3Xr1s21NRL2pKqRqzd+/hSGsR06dHBt3wADKMQGf+GFF7yxIMuHDh2qeSKWBQ4mYHAAPKKKyY0u4XId8duhROQGYa526dLFkaaDIqBWXWfvFQspO8taWFhny5ZdE356G1mwXH3bCctD1ZLaSQE1fhfV2t1OcK/eD1XMvM0/Lo8eAn/99RchLgIEkCpVLPcm1SiTjCoUOkfPJOUYrCo24Za+eSsZrdv/Ei3bcpsWLd1oGR4Wt2Z3ipZKDhUgLoY5TlzOl3JRpjez0uWMt+jUk/67J3KIRW7GRQSgh1BACKYfOX2PNi62bmZgeQALhGAQrLNgpaUSNBB71HqT3kn0B+X593f1FqfDEIGvE6Sgjf8koZFLI6ym9WHiMBruvYNBeCfi3Wimt0vVp38fZqSfbj5tvsX5MEMgRcKb9HSCX+nYkRV06ZJxTeamm3kzjOY4l/r9+hXepPLJ79Jb936jxz3+a5vr7fE19iLwa/wnaMuDlLTi3C3avveAgVEIjd06iDR0JDKwsLDzXlGheCEqL3R33vr5Gj3z+33zY5wPIwRuJItH219ITuv+iUfLd1gF0XAzD1eRwSBzeBj0me+1V6hutUxUqcglypjmTDDY4D5iCIH79+PTpq9fp+XbHtD0OUbFf7C0detWghAjGNSrVy8aPHiwoauECRNSp7fzU6l//qCcZwOzYDQ0zJlYicDXuZLR5seT0Oi1EVbTOqNuezjR++FrzCDgppBNHREU+SFsjYzg9tltgoUsjK3gXtqObty4oQkFv/zSfa8msHiNzFIWgtgxY8bYseloGYSb8JQaGQXjt4lqT2AXsicyngO5h/1rgQIFvDYBmSLitrtN+P2h1OiNRo8eTR2FB2u3CedKc+cald396dN1AbVqkRyVwFIVbnobDKx2Yb3rJqnuyNV+YBU8eMhg1/tX+ww07bSAGvyoAnw7hYMKQnsOi2ZQsFyza53xf7EGARzywD3Z5s1GV7o6g2XeKUbPp3qKnkgUTy9y8er+QsZp5j0Umta9d/59SBcv/0NrFZdPZmzOnz8fcAwPc5tR5aFV6G3Bm79wAUqa6mmKlzAYczEqTp24H8h8D815Z4faw/seunPjNh38cj/dunXLrormospXF0q2DflQCA1DaJfaUa5sWSn3C2koacJH6dFAfka7xkOszBM+U5EeiLH8cfs+fX3qB/pJxIWyoxkzZhDWyMGkRYsWUd26dW3dgKVKlVooEb1Gj8cXyh30aBDZ0id+GE2AoKAXPbxQ68GD2/TH9V9EyKWvbTnr0aOH5SDatqKDhVBorFOnjuYy0NwsXM2VK16QUjwVnxJEORX1+WNuxf98qK7H/B9xYE9a3t2R/CQ373rolz9u0ravjEJpnYP33nsvKIc7en+4Xrt2jSAY1Pex6j2k3xFrxjSJE1DCeJEMzPwQ52M9AnfEh/rSzX9pwx6jcrXK+C+//BJwnEq1veikGzduTFgf2FGJYgUoQ9pn6KnEj9ndDr2yAP6kLO+d0Bu95PjuvYd05eot2rR1L925c0eWqwlYqhUpUkQtcj1tF8ZN7/TlnDkoR+rklPTxRykI8iO9W766jAD2L9f/vU/7vvuBfhWuae0IAgk7hVe7ulwWegjAe02jRo2CxjiUYQYOHGjpDy7F3fYWoXZavHhxgscxO7LzFmpXz6myU6dOUfbs2S3NBUtxQO8Y3jRgYW4meJWBq/ZgUWR7g9dee42+/dYYCsNNvmCYh/jUZoKi94QJxrBZ5jpO5r0pMtiFjHGyX3NbgcTX1ttyVUANy+ke3XtIq+iJYlJHdgAHF9GFhKu3yAhaqzjIcNt1tDchNXiDgBzW3HBTa2cNHhn/wb6nC6hh7Zzn5YgYMkePHBXuBv5z3Xfby+LXG6+qtbsutFfrwq1CXaExAvIWr1qtz+nwRQCCGAhkmBiBJk2aaB/q6LjMcQMtLKrgEsibsNKNPrnN2IkAXOHAWhXxdWKCVq9erWkynjvHMahjAv/Y1CfWkdBsxUY4JgibOLgoC4YWeEyMj/uMPgKwFIDLspg6aIRgEBt6KE4wMQLBcDEfGcpwVTdixIjIqvC9OIJA69atafz48TE2WqxXMR///fffGOOBO44dCCAEDOZD2rRpY4Sh5cuX00cffUQ//PBDjPTPncYeBBAXFvsXhD1gCk8Ebt++TYiLrFKrNu2FO+mm9JJQSgmUfv3tIn06bQYN6Nfb0NSZM2foxRdfNJTZeRR5882StsJBw4PRzJw6dZLOnjV6JYFxizk8m5077SbNWtDHwojxsccDVxbbvWcvlS9r9OwHoy/z3ghnSGaMOnftIeJ516e0z6eJ5qi9V/vhh59o5qzZNG7MJ4ZKf//9tyXOfLFixQhKUzrVrFWbmghr+AL5fY/VrLehX2/evEVdu3Wnz+bM0ou0K87SoCigElzQm628Z86eS9WrVVGr+Z1ev2ET1a5Vw/A8LJMRg1wlxGg3ezfpP3AI1a/3vvDSFLiHuuMnTtGM6TNo5oxP1W7JTjhstmr/sEkz+vDDDylXTqvCg6GxaGR+//06zZk7j/r37WWojZjfgchIHRdQQ3i5RVjPbhP/IKBWCcLKrl27aoJS1Qr6p59+0jSVEYPam8ay2o4uFFXbUO87lcZYYC0cHZ4C6dPOVXYg7anP6gJqtcyc9lVAjeeBCSylo0P4vfbt3xedqlwnDBH45ptvaNSoUUG3gghDKENySJUqVdIEIG+++WaM83/p0iXtwBHxgLHAYopbCGABDQFIzZo1Y8XAobwDt2hwGckUtxDImTMntWzZ0hLXL6ZQgIXWxIkTCZsKpriFwHPPPUfNmjXTBCB2WuDBRgNxDHEA780DT7D54f6ChwCs5XFwAgGI+eAteFxE9MT7lwgs4mKqRo0a2v4l2Jaqdlj/+uuv2v5l+vTpdPPmTbsqXBbGCMDbE/YviH0Z0/TgwQPN+AD7lwtevALFNI/cv3sI5M6dW9u/uBnz1j3uuWVfEMBaXHUd/FHnbjRy+FBfmohW3dFjx1PH9m1lXcytyZMnyzxCA5otiMuVr0iPxXPW+yG+rVu3Gr1/moV+ZoHfshWrqORbb0henUjcuX2HUqY0uhc/cOAA5cuXTzZvVqLsN2AwdWjvfJiwIUOH07ChEa69IQCGu2+dIBN6++239SxBOD19ulFwKm8GkFi1ei3Ve/892YKdhbv5t9m1ew+9nCe3fMaJxM8XfqHcuXIamrp48SKlSpVKlpmVKcZPnCKE03XkfacSncXf46dTJ8nm4O2gQYMGMg9ZLPZUOjVv2ZqGfTxEzzp2nTX7M2rftpVsD975PvvsM5n3NeG4gDq6gktVKBod197mgUE4DXffwSDwh4PkGzf+dKW7UBRQAwi4ARwtBEpb/lAAAEAASURBVI/RoQ5CuyQ6Qe2j0xbXCU0ELl++rMXzgIbVyZMnCa7SsOFmCh8Enn/+eUqdOrW2iCxUqBCVK1cuxqxUI0MVm+uVK1fSrl276OjRo/Tzzz8TXI8zhQ8CmIuwCMQhN7S833nnHcKmOjbSli1bNHfjsGaFVQI2YkzhhUCuXLk012SwmMZGLjYceNshDA9FEAwePHiQoJ194sQJu2pcFsII4J0Ib1TQbi5RooRFAz22DA3vwQ0bNhBifCENBTMcAjCFDwLwYpIuXTp66aWXCApk8G6SOHHiWDfAK1euaPsXuDHE/gV7F6wbmcIHgfTp01OaNGkoR44cpO9fsI6MbXTv3j25fzl27Jg2D+H6lCl8END3L1mzZtXiW5YuXZqg1BgbadOmTdr+BcqNULbl/Uts/JUC4wnfZ7hWhutc7F/wfmSKGwiUF8Zo69atk4O9cuUqPfdccpl3MqEKF/E9hgGjTnCVDAUdnUqUeFN4aU2qZx29nj+Pve9x2SbOZvLmzavlcVaYJUsWea9dh040oH8fmXcysWXrdqpetbJscvDgwZrsRS/Amdbx4xF83hCupt2gu//eNfzmcOWtel0zC8o3bdnmiOW03Vg6ftSZZkybKm/B89azzz6r5bdt22YIwztw8MfUtk1LWdfJxIKFi6lFsyaySQhjIZTVSZ3L1arVoFmzjUa7er1Arz/++JNBAG92fQ7Le7j41unYiZOUPp073lfq1WtAq1Yu17uyteaWN6NIOC6gjqK/kL0Na+qZM2eJOKZTDC9MJwbkpoDaCf64DUaAEfAPAVhqfv7555aHjxw5QnnyRLjct1TgAkbAYQQ6depkcUGDQ1YcyDExAsFGAK6Z4F1BJbivwmKaiREINgLXr1+Xm1y971atWgU1fpTeL18ZASCgHnAkS5aM/vjjDwaGEYgRBCC0PX36tOzbbFEkb3CCEXAZAfOBKxQ83fao6PKQuPkQRQDxaWHZrhPcn1ep4owrWb1NvjICMYmAug6tU7c+zf9sjmvs9O47gAYN6CvbV11JQzitxvOtULEyPfrII7Kuk4l//vmHtm3bIptcvHgx1apVS8tDabZs2bLy3nwhqKxQPiIvbziUSJokiWypfv36NGdOBP7qb9OmXUcaNLCfrOt0ooMQxKvupNU1YOXKlWnVqlWyS7cE5ehg0eKl1KxJhEXw3r17qeD/wwPDo4caH3vHrt2U9xV3ztp/++0S5cieVY5ZjZsOryJQsNBp0JBh1KZ1Cz3r+PX99+vRmtUrtXahSKHG33755Zc1QyzcrFS5qrBqjpg/TjMyesx46tcnwrL+t99+04zW/OmHBdR+oIZY2du3baer167SUSFoCpQQzzqy2NyBts/PMwKMQMwggJAGw4cPt3T+1VdfsQaqBRUucBMBu7gs0ICEJiQTIxBsBGB1AasQlWI65qjKC6fjFgK3bt2iJ5980jBoeABZGyRPTYaOOcMICATUwycAoh4IMUCMQDARQIxRHATqBA9YsdG6WOePr+GLQIcOHWjMmDFygAhNgnApTIxAsBGAy90CBQrIbufOnUv16tWTeU4wAqGOgLoObdqsJU2dMtG1IQ0bMYq6dflItn/16lVKnvw/a+3GjRsTQlHpVKmSe4ogiLu9efNGvStS3SZDCUUNs7B67XoqXqyIrOt0QhVQw+hJt4a9e/cuJUiQQHbXvWcf6ta1k8w7nejVux+NHztKNqvuR+ChUA3J5KaAeu26DVSn9n/KAmAGVtN6CMnRo0cT4kHrdOjwUcqUKaOedfRqdsGOsEQjR47U+kD89GzZssn+xoybSI0auvddaNq0OS1etED2p/426t9vHSHInjzZvb/f6TNm0Ucd2kk+4NnnhRdekHlfEiyg9gUtrssIMAKMgA8IzJs3z7BZgXYXNjNwrcnECAQbAcSua9IkwiXN2LFjqW3btsFmg/tjBDQEsNHDwSJc94LUzZdWwP8xAkFEYOnSpcJL0lQRf2yr1ivCVUADmIkRiAkEPvnkE4LnE53gUhrusJkYgWAjYI4xCGsZuGNnYgSCjYDZ28mAAQMICrhMjEBMILBs2TKChxP8QwgfJkYgnBBQBVwsoCZiAfV/s1sVgrKAmogF1EQsoA6nNz+PhRFgBMIWgbNnzxJiSOkEa+rOnTvrWb4yAkFHAG5n4H4GVLVqVcLmmokRiCkEEC8Hrr1BiBl++fLlmGKF+2UECNZYrVu3lkggriIrlEk4OBFEBBDvWPVwolpxBJEN7ooRoJs3bxpig8OKddSoCGsahogRCCYCauzNt956SyqVBZMH7osRYAQYgXBHgAXUxBbUYpKzBbXxL50tqI14IMcCaismXMIIMAKMQKxEIHv27PTdd99pvOGwEW6VmRiBmEIA4SRmzZqldf/YY4/Rn3/+aXFtG1O8cb9xDwGzVT9cf5cqVSruAcEjjhUIIM4q4q3q1K9fP+rbNyImml7OV0YgGAg888wzMvY03Ap+8cUXweiW+2AELAhAELh9+3atPHPmzHTu3DlLHS5gBIKBgNnN96+//kpp0qQJRtfcByPACDACcQYBFlCzgBqTnQXUxj95FlAb8UCOBdRWTLiEEWAEGIFYiUCXLl1oxIgRkje2yJJQcCIGEDC7J4Lb+WbNmsUAJ9wlI0CaxXSqVKkkFA0aNNC0lWUBJxiBICMAN434ToPgAUVXMAsyG9wdI0ANGzakOXPmSCQ49q+EghNBRsAc32/9+vVUpkyZIHPB3TEC/8WdLFmypIRi2LBhhL02EyPACDACjIBzCLCAmgXUmE0soDb+TbGA2ogHciygtmLCJYwAI8AIxEoEvv32W3rttdckbxAGQijIxAjEFAIQCOqulPPmzUuYo0yMQEwhAFfzK1askN3/+OOPlCFDBpnnBCMQTAQQiqNr166yy8WLF1OtWrVknhOMQLAQ2LBhA5UtW1Z216tXLxo4cKDMc4IRCBYCv/32Gz3//POyuypVqmjxGGUBJxiBICKQLVs2OnPmjNYjW/QHEXjuihFgBOIMAiygZgE1JjsLqI1/8iygNuKBHAuorZhwCSPACDACsRYBaHpv27ZN8oe4vxDKMDECMYHARx99ZIgfOG/ePHr//fdjghXukxHQ3NbWqFFDItG2bVsaO3aszHOCEQgmAlevXtXioet9FihQgPbt26dn+coIBBWBPHny0LFjx7Q+EydOTD/99BPB9TcTIxBsBOrWrUvz58+X3e7cuZOKFy8u85xgBIKFAKymu3XrJrubNGkStWjRQuY5wQgEE4H79+/TyZMnCd9rJkYgXBBgATULqDGXWUBt/ItmAbURD+RYQG3FhEsYAUaAEYi1CEAgXb16dQN/f/31Fz311FOGMs4wAm4i8M4779DmzZstXSBO+qlTpyzlXMAIuI2AuvlV+zp8+DC9/PLLahGnGQHXEfA2H6dNm0aNGzd2vX/ugBFQEbCbj4i/OmrUKLUapxkB1xFQY1DrnWFNuXHjRj3LV0YgaAiY342w7kdc9IQJEwaNB+6IEQAC6lyEkDpHjhwMDCMQFgioc7tps5Y0dcpE18Y1bMQo6tblI9k+lIWTJ0+u5bH/mjFjhrxXqVIVmXY6cfv2bXFWFrGumT17NiH8GMgcJm/12vVUvFgRp1mQ7SVNkkSma9asSUuWLNHyd+/epQQJEsh73Xv2oW5dO8m80wkWUBsRZQG1EQ/kWEBtxYRLGAFGgBGI1QjABdn3338veRw6dKhB+1ve4AQj4BICsC7w5l6+T58+1L9/f5d65mYZASsCCxcupDp16lhviJLy5cvTmjVrbO9xISPgBgIXLlyg9OnT2zadIkUKTYmHLVdt4eFClxBQDwfVLvbs2UOFCxdWizjNCLiKwLvvvisPR9WOWHlHRYPTwUDAbD2t98nKOzoSfA0WAlDQKVOmjOxuwYIF9N5778k8JxiBUEZAXYOygJoF1Ppc9ng8epLMxi83hAGWW7R23QaqUzsi5Ba8k7755ptad6NHj6aOHTvKrg8dPkqZMmWUeScTLKC2oskCaismXMIIMAKMQKxGYMSIEdSlSxcDj7du3aJEiRIZyjjDCLiFwNSpU6l58+ayeVjw//333zK/e/duKlLEPU1Q2REnGAGBAKz2c+bMKbHIkiWLZgGjF4wfP55at26tZ/nKCLiOgHoYkylTJoNSGTTooUnPxAgECwHEPl+6dKmlO3Y7b4GEC1xGAEq1PXr0sO3lxx9/pAwZMtje40JGwGkEzEJBtf3169cbBIbqPU4zAk4jcOXKFUqZMqVsFuc8UKBgYgTCAQF1T8QCahZQ63OaBdR3xHs/hQ4HIXTiyJEjtfyZM2coW7Zs8t6YcROpUcN6Mu90omnT5rR40QLZrPrbqH+/dd6vR5Mnu+cBgQXU8ifgBCPACDACoYHAH3/8YYkb2KhRI5o5c2ZoDIC5DHkEDhw4QDjY1qlKlSq0YsUKPatdEUcrXrx4hjLOMAJuIaAunqEFu337dkNXBw8epNdee81QxhlGwC0E8H7Ee1KnrFmzEjabOn366afUpEkTPctXRsBVBCITCqoHIq4ywY0zAgKBDRs2UNmyZW2xYI8ntrBwoUsIXL58mVKlSuW1dey3kyVL5vU+32AEnERA3cdw2AMnkeW2YhoBdW6zgJoF1Pp8VIWgbEFNLKAWE4MF1PpfB18ZAUaAEQghBNSFns42XJK0b99ez/KVEXANAXPMGrghgwW16kq5YcOGNGvWLNd44IYZARUB8zsRruYHDBigVqE7d+4YYi0ZbnKGEXAQgZ49e9KQIUNkixBIN23aVOaR2Lt3LxUsWNBQxhlGwA0EzELBxx9/nO7duye7mjt3LtWr555mvuyIE3EeAbNQEFaDKNMJ1tWDBw/Ws3xlBFxFQF07pk6dmi5evCj7q169On3++ecyzwlGwE0EqlatalD2VoU3bvbLbTMCbiOgvmdZQM0Can2+qe84FlCzgBrzggXU+l8HXxkBRoARCCEEatasabtphoAQFghMjIDbCKibDfSFuOhwZasSDhm9uXJU63GaEQgUgbZt2xJceet06dIlLX6bakmN2JeLFi3Sq/CVEXANAbhThltlnZYsWUL79++nTz75RC/SrlevXqXkyZMbyjjDCDiNgFkoWK5cOVq3bp2hm6+++ooKFSpkKOMMI+AGAur6EXMOyjoqQbkRSo5MjIDbCMAD1MqVK2U36dKlowsXLsh89+7dDcpm8gYnGAGHEejfvz/169dPtvrzzz8T5iMTIxDqCKjffBZQs4Ban88soGYX3/pc0K8soNaR4CsjwAgwAiGEACyzYKFlR0eOHKE8efLY3eIyRsAxBOBWHnFU4U45X758WqwsCGEgBFTps88+o7p166pFnGYEHEcAIQ4+/PBDrd0WLVrQpEmTNJfKavwe3OzcuTMNHz7c8f65QUZAReDcuXP04osvakV4/+E9CML7cseOHVoa/7EbRwkFJ1xGQD8grFy5smal1bx5c5o6daqhVz4QN8DBGZcQ0IWCpUqVotdff51SpEhBHTp0MPS2ZcsWKlmypKGMM4yA0whAIAjBIKhdu3ZUunRpggKPSpMnTya8L5kYATcRWLVqFeH7DEIIGHjeYWIEwgEBff2JsbCAmgXU+pxmATULqPW5oF9ZQK0jwVdGgBFgBEIMAXzUseDDZgabGp1y5MhBW7duJbgqY2IEgo1A3759La6VN27cqAligs0L9xe3EIDLWriuVWnZsmUEN40qjRw5Uovzo5ZxmhFwGoHr16/TM888Y2j2hx9+0KxUVZe29evXpzlz5hjqcYYRCAYCxYoVo927d8uuChcurK0fEyZMKMs4wQgEA4HGjRvTjBkzDF0dPXqUcufObSjjDCPgNgIjRoygLl26GLr54osvqFq1aoYyzjACTiNw+/ZtSpQokdPNcnuMQIwiwAJq0ow6GjRooP0Oy5cvN3xPVq9dT8WLFXHtN0qaJIlsG144YVACMofs696zD3Xr2knWdTrRq3c/Gj92lGyWBdQsoJaT4f8JFlCbEeE8I8AIMAIhhsCff/5JRYsWpRMnTkjOcci4adMmevLJJ2UZJxiBYCHw/vvv04IFC2R3Tz31FG3evJkKFCggyzjBCAQLgWHDhlG3bt0M3U2bNo1wIM7ECAQbASjslClTxtAtXNSPHTvWUMYZRsBtBBCaA0Lq3377TXYF68G1a9fKPCcYgWAhYPYwkTVrVm0vkyFDhmCxwP0wAhoCzZo1s1iwslU/Tw5GgBFgBHxHQBVQN2nWgj6dMsn3RqL5xNBhI6lHt86y9rVr1+jZZ5/V8vBMMH36dHmvUqUqMu10AsommzdvlM1CERkKyaAVK1YQYs7rtGrNOipRvKiedfyqCqgRfmrx4sVaH1Dsjx8/vuyva/de1KO7UTlL3nQg0bNXH5owboxsSRVQw3sJzq51uvHXX3rS8etqgXfdOrVluwgH98Ybb2j5MWPGGDz6fHvoCGXO/IKs62Ti5s1blCZ1Ktlkp06dCApyoLNnzxLWwDqNGjOePvzgPwUHvczJa5MmzWjJ4oWySfW3Uf9+a7/3vvC+NVnWczrx6bSZ1Pmj9rJZKPZnzJhR5n1JPCIG4fHlAa7LCDACjAAj4AwCsDIoUaIEQVit09tvv00bNmygePHi6UV8ZQSChgDm465du2R/qVKl0ubjyy+/LMs4wQgEC4E2bdrQhAkTDN3NmzePoEzBxAgEGwEckOCgRCUoUQwdOlQt4jQj4DoCcDkPwaBKqoWFWs5pRsBNBC5evKjtZXAwp1PevHlp/fr1lDJlSr2Ir4xAUBAoX748rVu3TvYFZVvsq6EEzsQIMAKMACMQPQReffVVOnTokFb5ndJlaeOGiPdq9FqIfq3mLdvQ1MkR+31VRNWrVy8aPHiwbKy04CVBggQy72QCXrR27444B8M6RldO/uqrr6hIkQiLaTeFj7/+dpFyZs8mh4bzkHHjxsm8KnysU7c+TZ4UgZ2s5FCiXr0GtGrlcq21zJkzE8Jh6QThvR4OC2XgO3Fidwytxo2fRL17RhguwMgrZ86cGisLFy6kOnXq6GzRoiWfU9ky78i8k4mD3xyikm+WkE1COA0hNejGjRuULFkyea99x87Uv19vmXc6oSoxYE+4bds22YV6pps/f0HavCVCkUBWcihhtrK/efMmPfHEE361zgJqv2DjhxgBRoARcAYBWKginqVKZcuWpTVr1tCjjz6qFnOaEXAdgUuXLmnxA0+ePCn7SpcunTYfOUa6hIQTQUQA8dF1t1Z6t7D0f++99/QsXxmBoCEwZMgQ6tmzp6E/5AcNGmQo4wwj4DYCsKaoXTvCmgD9IY+DGiZGIJgI4BAbsaf/+OMP2W2+fPm0tSNiVTMxAsFC4J9//qG33nqLvv76a9klwnZgX12oUCFZxglGgBFgBBgB7wi0aNGCpkyZIisMHjrcYOUsbwSYOH7iJOV+KZdspXjx4rRz506ZV+O8o/DZZ5MLQbE7lsurVq2Q/SJx9epVSp48uVZmdq2NQrcshhs2/ICWL/tc6xf/QQhct25dma9YsaL2TdMLtm7fSa+/llfPOnbduWs3VapQTrYHAwEYCugEIwIIz3WqV7+hMCyIEKTr5YFe7/57l5577r/fQW9LVWIwWy7XFUL1iRPH61UdvZqFsVAYhjBYJ5yXHjt2TM/SiVOnKe3zaWTeqUT/AYNp1MhhsjmzwjxCnuiW3ajUqUt36t2ru6zvVOKnn36mPLlfks1BseWbb76ReV8TLKD2FTGuzwgwAoyAwwhA+AIhjEpwmbJy5UrXNATVvjjNCKgInDp1SlOa+OWXX2Rx2rRptfmIRQcTIxBsBKC0AwsYlcybNfUepxkBNxEwb/rQl3lj6Gb/3DYjoCMwdepUat68uZ7VrqorQMMNzjACLiIAd4tQuL1//77s5bXXXiMcLqdJ4/zhnOyEE4yACYELFy5QqVKl6LvvvpN3nn76aW0fg/AITIwAI8AIMAJRI6Ba6qL2l7u/oqJFnFP0Of/9D/TRR51o5YplkhkIxRGuQSUzHwULFianld/Onj1Dp05FGGjgbHbRokUqG9SoUSMtLrVe2Lptexo8aICedeS6aPFSatbkQ0NbqjBWv6Fi8vbb79DgoUMoe7as+u2Ar4ePHKMSphjbUfGBTufOW0CVK1UIuH+9AQinu/fsRdM/jVCW6NChA40aFREXG3WhmIZ1qE69+vSnzp066FlHrlOmTqeunTsa2jJjAq9qPXr0kHXerV1HKLEPFPP1OVkWaMKsOID2zHygTJ0jyDsdN/3ixUvUq1dv+nzpf+7n0ccnn3xCHTsaMUJ5dIkF1NFFiusxAowAI+AQAtAK3Lp1Kw0cOJAgiIbgBTFOGjZsaOgB2ljLli0jaH4zMQJOIgD3d5iDWNy1bt2axo83ahlC8w1CQWiO6vTcc8/R8uXLDe6N9Ht8ZQQCQQCuk+EmFLEC4WLevMi+c+eONh+hparSp59+anG5rN7nNCPgLwKILY135OrVqwkxyRImTGhoCvGnze/N9u3b0+jRow31OMMIOIEA1ohw3TZ37lwRH28zIRyMTubYayivVKmStn7kcDE6Snx1CgHsSzAXJ06cSCNHjhSHyx/JphEHvUIF48HkSy+9pK0ds2TJIutxghFwAgG8CzEXP/74Yy30i2rZdfr0aW3d+OOPP8qu4HIS+xiz5zJZgROMgJ8I7N+/X1szYt2IOWnex/jZLD/GCMQoAlB4XLp0qYGHjzp3o7x5X6FEiRIZyn3JQJHthLCcHmDj/tjub2fSpEnUqlUrQxfPP5+WMmTIaIjHbKgQzczNm/8IjxsHLLXhTTBHjhyGchhx6G6l1RuwLs+QIb1a5HP6zz9v0P79++izObMMz2LssGY3EyzNv/zyS0Nx5649NJ7jx3/cUO5LBpbix44dp9GfDDc85i2MELyIwbuYSh+K2MjwooMQG/4S5sH3QoGhj43VL8JjJk2a1NA0YmHjXN1MI0eNpdRKzGjz/ajyJ0+e0pQh9uz+0hDvGc8hLnnlypUNTQC/7NmzE+Iwq9S77wARn/rFgDyk3rp1iw4fPkITx49Rm6Z27doR9oJmgmwB+0eVoFTxyiuB/f0+ePCAzpw5S4MG9FWb1tJ2f7+WSpEViAaYGAFGgBFgBIKIgNDw8oj3svz3999/a70LIY0s0+8Li1XP999/H0TuuKu4gIA+v/Sr3Zj37dvnEW6NDHNSbEY84gDSrjqXMQJ+IyDcdRvm2ZUrVyxt/fXXXx6xGTPUw/wVB+SWulzACASCgDgMMMwzcaBt21zLli0N9TAfP/zwQ9u6XMgI+IvA0aNHDfNMCAQtTeE9qH/P9auIR+b5/fffLXW5gBEIBAF9fuEq3HpbmhIHdpa5mCFDBo9wuWypywWMQCAIqHMRaTMJN5sezD1zPeG5zFyV84xAQAgIN7eGeSYEWQG1xw8zArEBAezHze9PN/ORrROEsC1ovIh4z17hF8rxQeNDuNT2ysfx48eDxgd+c+GZxCsv5cqVCxovIryRVz769+8fND6EFbdXPoSwPGh84Lf5999/bXkRIU88kCW4+Terti2MTGz58KXQupLz5WmuywgwAowAI+AzAuaDRKGZKNuYNWuW5SOSMWNGz4EDB2QdTjACgSLQuHFjwzw7ceKEbZOYd6lTpzbUxUJEaOPZ1udCRsAfBGbPnm2YY8JK0LYZLLTNCj6Yj8K9sm19LmQE/EHg3LlzhvkoXM15bUZYUhvqYj5WqVLF62bRa0N8gxGIBAH1AABpOxLW+5a5+PLLL3uEJaFddS5jBPxCoHr16oZ5JuJOW9oRbr09jz76qKEe5u369estdbmAEfAXAeGJzDDHhHtPS1PY3wjrfUM9zMXJkydb6nIBI+AvAiLGuWGO4XvMxAiEAwLCC4Wtgrh5XRpIHu9o4WEySriEFbXh7yyQPr09KzxoRcmHnVGRt/b8LcdZXVQkPB56RMxjVzEpUKCAJyqFm4cPH3rMxgb+jjuy5+bPnx8VJB7hYttVPMCfCPUVJR/CW6XrfJQpU8ZjZ9ShMnfp0iWP8BrjOi8QyjtB9jtcJ1rmNhgBRoARYARsEcBmWf34fvDBB4Z6It6J4b5eV8SkNtTjDCPgLwJQitDnFa6RbaRhvZU5c2ZDfTwzbNgwf7vn5xgBAwLCvbdhftWpU8dwX83cu3fPI1yIGupjPoq4UGo1TjMCASGgvh+Rjoy6du1qmY+FChXy4FCHiRFwAgHzoZxwPWjbrIjdZ5mLmL92ghvbBriQEYgCAbP10IIFC2yfEO6XPYkTJ7bMRyjiMjECTiAAJVr1W+3t0BhKZ3aH+H369HGCDW6DEfBgb6LORQgEmBiBcEJgwoQJHuEa2DDP1Tnvb7pfv34+KfVC8OeGxS7OEeB1I7qE70rz5s0dxwPvDl/PfEWYC8f5EOFZIj0ftMMJZ9giRKXjvEAZPDILbjMvuiW+v3PS23NQQBchHMzdec0LV+Se7t27O46HcJ/umTZtmtd+7W5MnTrV8/rrrzvOi3Dx7tG9wdr162sZx6AWs4+JEWAEGIFgI/DII48YuhQvb0MeMYIR6wOxJlRCzEvEDGZiBAJBQFiiGuLCCA08EpYtXptEDLcaNWoQYlOrZBe/Wr3PaUYgughE9U40t1O3bl0SmrSGYsRlRQzClClTGso5wwj4ioA46KYRI0bIx8RBuBZPSxaYEkJjm3r06GEqJS2merFixSzlXMAI+IKAsEg1xDkbNWoUCfdytk0sXLiQhJKP5R7ikNWvX99SzgWMgC8IiENCSp8+ItYi5pQ5xp3eHuKyYi+DZ1QaMGAA9e7dWy3iNCPgFwLRXTsKKyNtLgoXlIZ+hJI4zZgxw1DGGUbAHwQqVapEq1evlo+KQ3sSSjoyzwlGIBwQ+PXXXwnnQkIpw+/hxIsXj9KkSUPCAMLvNnCWJTwEEa7+0htvvEHCEIOEApO/TWjPIV71tWvXAmrjiSeeoGzZshnO53xt8KeffqJffvmFECPYX3rssce0NV7atGn9bYKuX79OZ8+epdu3b/vdBr7tKVKksMQB96VBYdmt/b6Iubxjxw5fHjXURSztXLlyUcKECQ3lvmSAhzDIIPDkL8WPH58yZcpEqVKl8rcJEhbVIrb394RY2f6S8JAk4nqnphdffNHfJrw+xwJqr9DwDUaAEWAE3EOgc+fOJFx9yw6++uorEhZXMo8EDnZq166tLQLVGx07dqRPPvlELeI0I+AzAkJDk4SFi3wOi8jIFl4iBjC9++67tGHDBvkMEuXLlyfhkpmeeeYZQzlnGAFfEBBxg0hoUctHhIYqiRiqMm+XgIBmzJgxllt271NLJS5gBCJBYOvWrQSFB52iI1ARloUk3IHrj8ircGFPDRo0kHlOMAK+IiDiixm+z/h+b9y40WszwtWa9r0W2vuGOnjH9u3b11DGGUbAVwSiKxREu8LKSJuL3377raEbYa1EM2fONJRxhhHwFYEmTZqQcLcqHztz5ozXQ1Mc2teqVYuWLVsm6yOBtSb2MYEcyBsa5EycRGDixIkGIwLhrUxT7o6TYPCgwxKBq1evknDFTT/88ENAAmoIuPC+LVy4sCZw8wcsnGEJ19MBCajR77PPPkt58+al/Pnz+8MGHTx4UDPggIDabHDkS4NPPvkkZc+enbC+hwDfV4LSwJ49ezSFwPv37/v6uKz/+OOPU4YMGQjK1c8//7wsj24C+5UtW7YQvsVOCKiFtbDfCgTAAwoILVq0oCFDhkR3CJZ6EFALi/Ioz6UsD/6/4LvvvqN9+/Y5IqCGUgfWLMmSJfPWnddyEZKHhEctRwTUUDApWLAgZc2a1Wt/ft3w1eSa6zMCjAAjwAgEjoA4/Da42PDWolhseMTizVBXvOw9FStW9IiFkLfHuJwRiBIBNRZ6yZIlo6yvV4BLesxB8z8hFNSr8JUR8BmBvXv3GuZUdBuAq3nzXEQeca2ZGIFAEFDnFVwsR4cQe9XOra2wro7O41yHEfCKgOrSUHiQ8FpPv3HkyBGP0Pi3vB/ff/99j9Cc16vxlRHwGQG49NPfj2XLlo3yeaHgaBuaA20Iq5Ion+cKjIA3BMwhi7zVU8uF9yc5f/V5jKs4VFercZoR8AkBvMvU+eTTw1yZEYjFCOA8smHDhob5rc71QNII2yWEd9Ee/cCBA13hA2MQ3mCizYfwVuQaH1hjRZeE8p8HrqcD+Q28PSsMpaKMP63zeefOHU+nTp1c4UMIQj0rVqzQu4ry6i3ckbdx+lIuvKtF2b9eAeGVSpUq5QomcC9/+fJlvatIrwil17RpU1f4gEv66MSPj5RB5WbkQdWUipxkBBgBRoARcBYBxP09f/58lI0KLTjPe++9Z/tR+fLLL6N8niswAt4QQCxB4erF222v5cIKy3Y+Cjd5Xp/hG4xAVAgIN8meEydORFXNch8xMO02F4gNzMQIBIKAP4o3hw4d8iB2l3lOVqtWzYN4VEyMgL8IrFmzxqdHhZs9r7H6IMBmYgT8RUCE0/D5fWaOpa6/I6HYw8QI+IuAsFz1KT4l+hk+fLjlG435KEJp+csGP8cIeISVnkdY7DESjEDYILB27Vrbd6X+/XbqOmnSpCgxK168uOu8NG7cOEo+2rRp4zofiBcsXDFHysusWbNc5wO/75IlSyLlA7G77RRinZobejuI5xwViRBHrmMiQiNGxYYHgmydbzevwnV5pLwgZrab/etti9BTkfIR3ZssoI4uUlyPEWAEGIEYRqBXr162HxhoiTExAsFG4LPPPrOdj8IFfbBZ4f4YAU37Wl8kq1doZkdXw5RhZAScQgCCaG8a7bt373aqG26HEYgWAt4O0+bPnx+t57kSI+AUAjjEUr/RehqCHSZGIJgIfPHFF7ZzEZZJTIwAI8AIxHUEoKSrf6ODcY1sTWrnUdItnuBlwxt99NFHQcVEuMm2ZcXb98stTEToIFs+rly5ElQ8YEHvjeAhyq3xm9sVIQ69seGB0py5vpt5b4wcPnw4qHxMmzbNGyvRLucY1GKmMDECjAAjECoICIsFqlevnoXdli1bEmIfMTECwUTg66+/to3Zg9itiAmHGDZMjECwEEC8VcS1FG6gLF0iVpUaU9hSgQsYARcQ6NatGwk39JaWhaWAFhPLcoMLGAGXEMCcExasltYxR4X3Cks5FzACbiGwbt06Eod7luaFtygSB1yEWIxMjEAwEDh+/Djlzp3b0lWRIkW0uZgjRw7LPS5gBBgBRiAuIFCgQAE6cOCAYahTp07VYuAG8p2+d+8e7d+/n959911D28iIEDSEOMgq2e2lBg8dTqVLl6LHH3uMnnnmGbW6T+lz57+nlStX0ZhRIwzPbdy4UYsHrRZu2LCBRFgTtYgyZ85CGTO+QAkSJDCU+5q5/+AB/X7tqohnfdDwqPAGRx9//LGhDBghFvEvv/xiKJ/z2Xx6Ne8rFD9+fEO5LxnhqpsOfvMtfdiogeUxIWW0lNWvX5+E0YqhfNiIUVSiRHFKmiSJodyXjEdEE/zuuzO0ZvUamjF9quFRYbGtxYRWC3Hu2KRJE7WIPurcTcyRdyidiHfuL/1+/TohpveWLVtp0IC+hmbGjRtHQgHYUCas3rXfRi18r05dqlK1KuXKlZPiPep7fHG9rZu3btLevfuoTasWepF2FR7aSCgsGMqQeeutt7SY0+qN8ROnUOFCBemJJ55Qi31K339wn44fP0HdunSmn3760fAs4lz7Ex9bb4QF1DoSfGUEGAFGIEQQELFG6MMPPyShFWXgGJtp4bKZcubMaSjnDCPgJgL//POPNh+F+x9LNxAUVq5c2VLOBYyAmwgIbxM0ePBgSxci7joJzWdLORcwAm4iMHfuXGrQwLrRF/GgCAc9TIxAsBAQruC0g0Vzfzhww/oxbQCHOOY2Oc8IRIaAiGlJH3zwgeXwDM8ILxOEPQ0TIxAMBB4+fKjtY2bPnm3pToSQIShOMDECjAAjEJcQWLx4MYkYxHLIwoKZoFyWNGlSWeZEAoY3MMDRqW/fviRCyelZgvL5008/LfNIbNuxi94sUcxQFmjm0+kzqVmTDw3NmAWywrUzQXCtU/78BSlVqlR61pGrsJimzZsj+kCjWC+pRh+ffPIJiXjPsr8PGzejUSYBu7zpZ+L+vfvUpl17WjBvrmwBCoTCBbrMQ1CcJ08emUdi7/6vKWeObIayQDNjx02kPr26y2Zq1apFmJ8qPfLII2qWZsyaQzWqVzWUBZrZvGUb1ahWxdDMA6FY8Oijj8qy9u3b09ixY2UeQvI+vXvIvBOJixcvUfZsWQ1NrV+/njA/dRKu+Ul4EdSz2vXM2XOUMmUKQ1mgmb79BhqUO3DOhvM2f4kF1P4ix88xAowAIxCDCEBzDgsEs8YaWEJZ3bp1Y5A77jouIjBo0CDq3bu3Zeh9+vSh/v37W8q5gBFwE4FFixbZHiqK2ESaUDBx4sRuds9tMwIGBERcau2bDQUzlfLly6fNx7x586rFnGYEXEPg2rVr2lxcuXKlpQ+UVapUyVLOBYyAWwi0a9eOYIViJjvLFHMdzjMCTiJgPvTX2+7cuTOJmNV6lq+MACPACIQ9AtgvL1y4UI5TuN8mlDlNly5dotSpU8tmIfA8cuSIzONcE1a6Oo2bMMliQarfC/TaolUbmjJpgmzm/PnzlClTJi1/9epVSpEiQriXLl16ypv3VVnXyQTW6V99tVs2OX78eBJux2W+aNGitGfPHpl3QyiMxnfu2k2VKpST/cDzzZo1a2QexgAwCtAJFtxVKlfUs45ezdbYqqX9wYMHCftpndp37ET9+/XRs45ex4ydQH0VgbN535Q+fXq6cOGC7PPGX3/JtJOJWbM/o/ZtI7xitWjRguApSycowUOhQCdYTtev5/zf78MHD4UCSTK9G+3vBX83/hILqP1Fjp9jBBgBRsAhBER8VFq2bJn2D5pOOKyJLnnbTEN7a/To0dFthuvFcQROnz6tzb+ePXtqC08714vRgWj16tWaex3MaZXKlStHIlY6pUuXTi3mNCNgiwA2gcuXL9fmZIkSJah79witWdsHvBSeOnVKm4/qJg5Vs2XLps3HN954w8uTXMwIGBHQv9HQ5Fc358ZakeegZQ33Y7NmzbJUhPWq2TWZpRIXMAL/R2DXrl3a+xFa+mYLj+iCBCuVAQMGWKpD0cyu3FKRCxgBgcDRo0e1uQhFRLhLzpUrl8+4zJw5U7NgNT+IQ2msHRMlSmS+xXlGwILAzz//rM3FDh06aBZ5Ih6lpU5UBVu2bNG+xbBYU+nNN9/U5mLWrEarJbUOpxkBHYG/hFBCXzdizgRiUaa3yVdGIJgIwCMj9tEguPret2+fa93DMyTWATqpwkdYCuO8U6dff7tIaVI7a7Wst7185WqqViVCSRNnEVWq/Gcxu23bNipZsqRelYoXfyMgV8ayIZvEQ+FKe83qCCVS7A+xT9RJtRZu0qwFjRwxTL/l+LVFi1a0YP5nsl11zwFL5qVLl8p7bglj0cGMmXOoY/sId9rffPMNvfrqfwoC2FfDI49Oa9ZtoGJFC+tZR6+wQs73WoRigoiJLYX0OP9ULep79u5HXTp3dLR/tbGqVarRtm1btKJChQoJpYav5O38+fMTQjGCSpUqTZ9/EfE7yUoOJYYId/vDhg6Srf3+++9+u91nAbWEkROMACPACMQMAuoiAxtgLIB8IdSHlpRZWwmueCZPnmxxveJL21w3/BEwx5HGAm/GjBl+Dxxag82aNSO4mlHpueee0+Zj9erV1WJOMwIWBNR3Im6qmyFL5WgUID7QhAkRGtH6I4gN3KVLFz3LV0bAFgGEKVi1apW8B23/lClTyryvCWjCt23b1vIYvKLgm/2YiKfGxAh4QwCWfIhJpxMOwauK2Gb+EMJw4Ht95coVw+OlS5fW5uILL7xgKOcMI6AisGnTJhHfr7QsgpAaXnP8IXiZwF4GljAqIQYw3otQVmNiBCJDQF07eovJGNnz+j0crmIu4t2qEjzvYC6ylzIVFU7bIaDORdwPdB9j1weXMQJuIqDO4UDep9HhEQrjO3fulFWhqJ48eXItj72Rei7l5t/S/IWLqW6dCLfmCPugh2iCsBo46OSGe2+9bVxXrVohszVr1iQ9lB6E92q86/IVKtGCBfNkXacTVSpXFaFYtspmVfzfeecd4Y58s7znpoB6uIhrPXhgP9kXzr9xbg6CUVbHjhGCYDcF1H/88SdlzJBe8qG6tD5z5oxmBKHfdMP1ut42rk2bNqfFixbIIvW3Uf9+67xfT6xdJsp6Tifatu1Ac2ZHnB0jDre/+0cWUDv963B7jAAjwAj4iAA081RXiz/88ANlzJjRp1Zg1dW8ufhImeJxxIsXT3P3gY02EyPgDQF1EYM66gLH2zNRlcMKC26/zQRN2BEjRpiLOc8ISATwLlNj86pasrKSj4k5c+Zo78g7d+4YnoRgBy6RVI1XQwXOxHkEcEDRqFEjicPEiROpZcuWMu9PAlrOmOeI36VS7ty5Ce0XK1ZMLeY0IyAROHfuHL344osyD5eLcL3oL3lTKkuWLJn2buT4q/4iGzeec3r9CDeFsJo208cff2xQzDDf5zwjULZsWdqwYYME4u+//6ZAwrkMGTKE4FnKTK1atbJVejTX43zcRaBbt24EJVidduzYwUo2Ohh8DQkE1G+72wJqxJxWw8HFlID6wMFvqEC+1+XvE5mAumTJUvTkk0/Kuk4noiug7t6zD3Xr2snp7mV7vYQV8Pixo2RePSMMpoB6rbCKrlO7luQjMgH1ocNHhavpjLKuk4k7t+8Y4jhHJqAeI2JnN2pYz8nuDW3FFgH19Bmz6KMOER5gWUBt+Jk4wwgwAoxAaCFgjq0yatQognsyf8iby29o/+HQ282FlD/88jOxAwFsCrA50MkcT0Uv9/UKq0McNv7222+GR4sUKaId7rzyyiuGcs4wAkAA2rjY9OiEg56hQ4fqWb+vJ0+e1ISCX375paENCKfxflQ1ow0VOBOnEbhx44bBjZs/nk7sALx37542H1W3dno9tu7XkeCrHQLqwSHu3759mxImTGhXNdpl5gNC/UHEvYPVPxMjYIcA5ge+nzp9++23Ii5jXj3r1xXvRCgB/fvvv4bnER8dfaVNm9ZQzhlGAAjABSo8QugExUQ1dqle7ssVLr+xj4FikEqY45iLcKvJxAiYEdi/fz8VLFhQFsNrDkJyMDECoYKAus5kATVpocfUcwIWUJN2VhMsC2oWUFvfHCygtmLCJYwAI8AIMAIBIoCDxSeeeEK2gvgm2BD7S7t379YOdsyWWVmyZNGEgqo7Pn/74OfCC4ETJ07QSy+9JAfVsGFD2zipsoIPCcRjwUGj2VUemsChNw43mRgBMwLqxhj3VI1dc11f83DrbWfFD8UgKAgxMQJmBGBpD3fIOgWiHay3oV+nTZumvSPv37+vF2nXihUrat/s9OkjXIkZKnAmziJgVkaEoqMTbmcRmgPfa3P8VQhjECYBoWOYGAEVga1bt9Lbb78ti2Bxauc9R1aIZgLrUliqqm4/9UcXLlxItWvX1rN8ZQQ0BK5du0YIJ6QTPJTBLWugBEtsvBfnzZtnaQohFzp37mwp5wJGwM19DKPLCLiNgDp/WUDNAmp9vqnnMWxBTcQW1ERsQa3/dfCVEWAEGIEwQQAuGnHgohM0tTNnzqxnfb4+ePBAO9hR3eTqjfTo0YMGDx6sZ/nKCGgIqBsRFKgLUCcgMh+o623WqlWLxo0bF1BMV70tvoYPAoglhJhCOm3fvp0Qo8opwqEllCPM1v2vv/66pjihWj441Se3E7oIzJ07V8Yhwyig4IBwBU7R8ePHtW/2rl27LE06JXy0NMwFIYsAFCTUNSLipKsKFIEMDCFjIBhcsGCBpRl4soBHCyZGQEXAzfVj9+7dCe69zQSrVig5IpQREyOgI1C+fHlat26dniW8z5ImTSrzgSQQDgbvRjNBmQz7GF/Dc5nb4Xx4IYDzFtX7EywNVWWe8BotjybcEFC/6yygZgG1Pr/V80EWULOAGvOCBdT6XwdfGQFGgBEIEwRgXVq9enU5GvXjLwv9SOBgu02bNgQXpSoVLVpUczX16quvqsWcjsMIjBw50mAF4NQcVCHdt2+fJhRETGEzIX46hNVMjAAQQIxeuILXyY35eOXKFe39uGTJEr0beWVBjISCEwKBf/75h5566imJhRvzEY3D+hBxL83UuHFj7Zutelsx1+F83EJAPTysWbMm2b3HAkFk8uTJ2vf64cOHhmbKlCmjCWPUONiGCpyJcwjAfa3uBr5UqVK0adMmRzFYs2aN9q02W/ajE3icgucpJkYACMyYMYPwvdTJ6W/1kSNHtPcivJWZSY1Xar7H+biHwNdff0358+eXA3d6LsqGOcEIuICAusZkATULqPUppr7HWEDNAmrMCxZQ638dfGUEGAFGIIwQaN++Pb377ruOx7PCgQ4Oj1avXm1BC0JJuCZhYgTOnj1LsBKE28RcuXK5CojZOlbvrHnz5jRmzBhKkCCBXsTXOIwAYgm+9957jlpO28EJ17VQ5DETwiFgPmbPnt18i/NxFAEIAd1WpNmwYYM2H80xLwE5BDWwEGNiBIAAYqDim/3ss8+6Aggs+/Fu3LFjh6X9KVOmGOK9WipwQZxCAFbO2MO88MILrowbirbYy2Cdaian3Iqb2+V86CFw/fp1zcU83ouqcNDpkXhTJmvQoIGmTOaU1bbTfHN7wUWgadOm2nuRlWiCizv3FjgCLKAmUpWO4HmNY1AbPSyygJoF1HjTsIA68Pctt8AIMAKMQJxDwJuL5XLlymmudLNmzRrnMOEBxxwCK1eupHbt2tFPP/1kYWLt2rWEecnECAQLgWPHjmmH33aCGAiw7dw6Bos37ifuIXDr1i3t/Th9+nTL4DlWugUSLnAZgX79+lH//v0tvUBZA6EY0qRJY7nHBYyAGwjMnDlTezfCq4WZ4KWnQIEC5mLOMwKuIABPAdjHnD592tL+F198YRBmWCpwASPACDACsRgBFlCzgBrTs1fvfjR+7Cg5U9mC+o4IS5hC4sExqFlALScDJxgBRoARYAR8Q+Dbb7/VNtN2rslgidOyZUvfGuTajEAACPz111/afISGqplYCGNGhPPBQGDgwIHUp08fS1dVqlShUaNGuWYdZumQCxgBgQDiAL///vu2WLBrW1tYuNAlBHbu3Enw9HP48GFLD3PmzKH69etbyrmAEXADAcRgx1y08ww1aNAgLVSCG/1ym4yAGYG7d+9qcxEhEcwEr1BYNyZKlMh8i/OMACPACMRqBFhAzQJqTFAWUBv/TO/cZgG1EREWUJvx4DwjwAgwAoyAjwh4s4apWLEiwdKaYwv6CChXDwiBefPmUb169WzbWL9+PSHmJRMjECwE9uzZQ1CQQPw4M02aNIlatGhhLuY8I+AaApcuXdLm46JFiyx9dOrUiUaMGGEp5wJGwC0EMOewTjQTwjGgPHXq1OZbnGcEXEFg7NixmnDQrvH9+/e76uLZrk8ui7sIwGK6Ro0atgAsW7aMqlatanuPCxkBRoARiI0IsICaBdSYlyygNv51soDaiAdy7OLbigmXMAKMACPACPiIAKyoEQvYTgiDQx/EemNiBIKFAIQwmI8LFy60dIm5iIPvxx57zHKPCxgBtxDo0aMHDR061NJ8pUqVaOTIkazIY0GGC9xEYMaMGdS4cWPbLhC3GjHTmRiBYCCA+Va2bFnbrjBPP/jgA9t7XMgIOI3AiRMntLUj3C2bCW7p7TyimOtxnhFwAgHESYdy46xZsyzNIRYx1o1PPfWU5R4XMAKMACMQ2xBgATULqDEnWUBt/MtkAbURD+RYQG3FhEsYAUaAEQgbBO7du6cJ6WAthbh+djEonRxsr169aPDgwZYmcfgIoWCOHDks97ggvBG4fv26Ngdbt25N48ePJ1yDRXD33ahRI9vu4M6xQoUKtve4MHwRePjwIS1evJiWLFmiuUqE2+NgEWJSv/nmm7bdjRs3jtq0aWN7jwvDGwG418Z8nDZtGqnxuNwe9YULFwjxrpYuXWrpCi5vcQAeL148yz0uCG8Ejh49qr0jhwwZQkjnzp3b9QHjvQylMig0mqlmzZra+jFdunTmW5wPcwTwjsL3unPnzgTvON5CFDgNA/YrsO43ExR3IKQuXLiw+RbnwxwBxCnHXMS/V155hYYPHx6UEWP/Do8SdoR1A96PTHEPAVjS4/f/448/aOPGjXEPAB5xSCHAAmoWUGPCsoDa+GfLAmojHsixgNqKCZcwAowAIxA2CKgLQgwKh4DmMqcHC2vqYsWK2TaLQx8cQjLFHQTM8y2YAhigfPHiRU0IY2dNjTjpmJMJEyaMOz9IHB/pW2+9Rdu3b5cowEolSZIkMh+MRM+ePQnCHzOVK1dOEwqyIo8ZmfDNm5W61q1b59Wa1C0UIrOmXrNmDZUvX96trrndWIYAwmDgPaQT3lWIwxssisyaeurUqQTLQaa4g4C6foRCoV2caLfQgDU1FHjshD+9e/emAQMGuNU1txsLEVDnItgL5l7mzz//1ObizJkzLcjAwwSUyZ5++mnLPS4ITwSglPD555/LwX3//ff0wgsvyDwnGIHYhoD6/qxWrRohjIFbZA49ePXqVUqePLnWHTxHYc+jk5vv8QMHv6EC+V7XuyIYTTRo0EDLL1++nICDTiVLlqInn3xSzzp+XbVqhWwT7w8ot4Du3r1LCRIkkPe69+xD3bpalfNkhQATLKA2AsgCaiMeyLGA2ooJlzACjAAjEDYIjBkzRnMRpg8omNrWffv2tT3AKVWqlLaZzpMnj84WX8MYAVgwY1Gu06FDhzTrAz0frOvcuXPlxsDcJ8d0MyMSvvnJkycTFBN0iimhx5dffknFixfX2TBcR40aZXhvG25yJqwQOH78uMFCtX79+jRnzpygj/HXX3/VDsBhHWYmeL3AAbh6iGGuw/nwQUA9SMSo3DzA84YaBIN4D5oJsVehVMaH8WZkwjNfsWJFgpKMTnhPwRtUMMm8j9L7huJOly5dvH7H9Xp8DQ8EoJSgKuusXbvWoMwTjFHC20mtWrVsu4I3IG+W1rYPcGHIImCeBwgf1K1bt5AdDzMe/gio60oWUBOxgPq/Oa/uL9555x3avHmz/GO48ddfMu10Yu26DVSndsS3dNu2bdLD3ejRow3GVIcOH6VMmTI6zYLWHguorbCygNqKCZcwAowAIxA2CPz222/0/PPPy/GoWnOy0MXE3r17vbrCGzZsmHa442L33HQsQACx/NR4pnDVGCzXeObhX7lyRRPCwFWkmWCZhYPvxIkTm29xPowQ+P3336UmNYYFIfHOnTtjbIRwFzpw4EBL/9ioQSgYDPe6ls65IKgIqAc36PjWrVua+/mgMvH/zqBM5C0swooVK6hy5coxwRb3GUQE4NoY30KdcGD09ttv69mgXdEv3oN2NHHiRIOikV0dLgt9BD777DOC0o5OmJcx4YXp1KlT2toRHgbM1L17d1uPKOZ6nA9tBI4dO0aqYnW9evUIiq/Bpr///lubiwgJYib8rWDd+Nxzz5lvcT7MEDCvG1VBT5gNlYcTBgio85UF1Cyg1qe0+t5iATVp33Z8w0FnzpyhbNmy6VDRmHETqVHDejLvdKJp0+a0eNEC2az626h/v3Xer0eTJ0+U9ZxOsIDaaUS5PUaAEWAEYhkC0PKH21CdLl++TClSpNCzQbnCFR4sqs2EeKz4EL/66qvmW5wPIwTUhQ2GpS56YmKY8+fPp7p169p2HUwvA7YMcKHrCNSuXVuLI6h3BBee3gQheh03r3v27KGiRYvadgFlDih1MIUvAhMmTDDEH581axY1bNgwxgZ86dIlbZNsF5+9efPm2jfbTVd0MTZw7lhD4MCBA1RL+ryNAAA+UklEQVSgQAGJBlwi2glDZAWXE7BSHTFihKUXWNdCYPniiy9a7nFBeCBgdj+JUcXk+nHcuHHUrl07C7iISYy5iBAiTOGLgHkvc/PmTXriiSdiZMBwkVujRg3bviE4hwCdKXwRwFoMHqB02rdvn+G7rZfzlRGIDQio7063BdQ4W9yxY4ccdky5+J6/cDHVrVNb8hGZi+/8+QtSqlSpZF2nE9F18V2+QiVasMBqxOEUP7HFxffwEaNo8MB+cliRWVCvXb+RihYpJOs6mfjzzxuUIX062SS8R3kTUH/YuJnwLGXdC8mHA0zEFgF127YdaM7sCDf8gYSweERsGDwB4sKPMwKMACPACDiMANyFqofdMeU+dv/+/VSwYEHb0Q0ePJh69Ohhe48LQx8Bc5xVxBFEPMGYJFjSYiFo506XY7rF5C/jft+Yf5UqVZId4d2Dd1BMkzluls4PDr2xYcmbN69exNcwQgBKY+rBRJkyZcjOUi/YQzZbL6r9I/5h9erV1SJOhxEC6mEihvXgwQN69NFHY2yEW7du9WrFPXbsWGrbtm2M8cYdu4sA9i/qOu3bb7+N0W8hrFqwdlRdj+sIxKSHIJ0HvrqHgNnde0wrk0FAjrmoCir10depU0dbN6ZOnVov4msYIQCBSsmSJeWIOnToYBsWQ1bgBCMQgwjkyJGDTp8+rXGAs0B4WHSLmjRpQtOnT5fN//vvvxQ/fnwtj/elGj7mt4uXKHWqlLKuk4kVq9ZQ1coVZZNw612lShUtb/77LV78DUqWLJms62TioRDRrVm9UjZpVjpV1/tNmrWgkSOGybpOJ1q0aEUL5n8mm1XFh/Dyib2lTm66+J45ay51aNda74q++eYbaSw1c+ZM+vDDD+W9dRs2UZHC9ufXspKfiXPnvqfXXn1FPg2DLoQTAUFZXP1+9+rTnzp36iDrOp2oXq0GbdmySWvW/DeaP39++vrrr7V775QuS0uXWsOBOcXPx8NG0tDBA2Rz165do2effVbmfUmwgNoXtLguI8AIMAJBQuD27dsGDW+4x1PdNwaJDdkNYnjpH19ZKBLYaA0ZMoTwEWQKLwTMcVbVBWlMj3ThwoWEgxw74phudqiER5m6IYPgF4fesYFgBVGokL2mLt6PcCfKFH4IQGECihMgxJG0s16OiVEjLAJcPkNYbSZs4LGWSJo0qfkW50McAcS01JUGsTbbsmVLrBgR4mwiPIyZypYtq81FHIIyhRcCUNYpV66cHFRsWT/CzXzr1hEHnDqDL730kjYXY9Iri84LX51FwBw2K7bMRYTfqFq1qu1gcdjuLWyH7QNcGDIIqPsYWFRPnjw5ZHhnRuMWAmbPZYij7s0DRCDIXL9+3SDMwvcY4Rl0MhvtTJg0lVq1aKrfdvTaqnU7mjRxnGzz7NmzlCVLFi2PvVXKlBGC8XTp0gvFO3e8SQKT3bt3ST7Gjx9vWLsUKVKEvvrqK3l//9cHKXu2rDLvVGL3nr1Uvmxp2RzWdWvXrpV5hDtD2DOd5i1YRBUrRKz99HInrh980Ji++HyJbOrOnTuUIEECLW/2IvVR527Up7c7RlTjJ0ymXj26Sj5UJQYUpk2bln799Vd53y2h/b79X1PpUhEKT82aNaMpU6bIfs1KH1M+nU7vKTG8ZUUHEkmTJJGtZMyYkX744QeZ9zXBAmpfEeP6jAAjwAgEEQEsAuDuOzbQwYMHKV++fLas9O/f37BAsa3EhSGHQKtWrTTBizdXxjE5oD/++EOzQoA1hJk4ppsZkfDJL1u2jOBqLDaSeaOm8whr6o8//tjr+1Ovx9fQQwCbQQinY6PAN7KwCIsWLaJ333039ABnjr0icP78eU1JAoeKsc2FNlw3woWjHUFhIiZiFNvxwmXOIYDfFHMxtimw4u8EFlkrV0ZYJ+mjbt++vSaojknPAzovfHUWgQ0bNhA8ncQmwgE75uKkSZMsbNWqVUuzpk6XLsKVqKUSF4QcAvD8lClTJu3dqAqrQ24gzHDYI2A2BihevLjmKcrpEAlQxoErbZ1gEAOrVJ3gPS958uR6Vrt+ufsrx104z5g1hxp/0NDQj1mhyRxz2Q0337fFd2Hzpg0GPiDwg+BPJ4TQQSgdnRqLWMSfjByuZx25PnzwkNq0bUfzPpsj24Pnj6ZNI5QDDh8+bPGOc/DbQ/RilszyGScSEyZOoZ7dI8YLb2Cq5Tb6ML9P53w2n6oo1vBO8LFj55dUuaLxXB5hbR5//HHZfJs2bQhhwHTq0q0n9VQE2np5INerV68JL1TtaN3a/5Tk0RZkBqpiqNnzYMWKlWnc+HH0zDNPB9K15dkBA4fQJyM+luWBegZhAbWEkhOMACPACDAC0UFAtdJR65cuXVoTUhcuXFgt5jQj4CoCiD/tTdDCMd1chZ4bt0EA7pS8HcirbqBsHuUiRsBxBCILi9CgQQNNGOOvGy7HmeUGwx6Bnj17al53zAMtVaqUNhdz585tvsV5RsAVBGC52LJlS9u2zQd9tpW4kBFwCAHzQbLa7KeffkqwhGJiBBgBRiDYCLz22msWb2UwDIDidSCC6nv37hHCCI4bN462b99uGBa8SCZMmNBQBq9QZk+Sw0RM4nLCujdRokSU5KmnDPV9yZw5d14orK2iEcOGGB5bt24dwdOPSigzGw69+GJWSp8+AyUw8aw+F530g/v36fr134Vb5gOG6hBEm70QmT1t6g/Agjlv3lcowf/do+vlvlzvCPfqXwuL7EYN6lkeMwvsUQEeDaHMoNLosRPojRLFhQt0/711PXz4kL47c1b7baZOjhD4op9Dhw7RK69EuNlGGRTGW7RogaSkbj16i9+wDKVPl1aW+Zr466+/6Oat27Rp02bq16en4XG7EJywus+a1WjNni1bdho6bDi9lCsnxYsXz9CGLxmECPlq7z5q3rSx4TF4dLNTuoRSyZdffmmoO3XaDCpcqGBAf7/3xVw9dvwELRdGI/PnzTW0j3OHZ555xlDmU0ZMMiZGgBFgBBgBRsAnBIRrXU+JEiU84oNj+Sc0H31qiyszAoEicOPGDY+Iz2OZi5ifYuHsES7+Au2Cn2cEfEJAWEnYzkehfe0Rbrl8aosrMwKBIiAOD2znI96RwhV4oM3z84xAtBHYtWuX17koDuGi3Q5XZAQCReD777/3CDfLtvNRuAL3iDiYgXbBzzMC0UIAc01YXtnOReE1yIO5ysQIMAKMQDARiGy9ZncGGGiZsKT2Ojyh/G37fgy0T7vnhft9r3wITytB4wO8CaGkLS/C5XpQ+RBeSGz5EO6sg8qHcCluywcKheeRoPEiFGu98jF27Nig8YE54o2E99Og8iGUBLyxEu1y76OJdhNckRFgBBgBRiCuIoDDRLuF3euvv+7ZuXNnXIWFxx1DCAh3P7bzEXNUxHSLIa6427iKQGQbg8g2WHEVLx63uwiIsAieDz74wPYd+f7773suXbrkLgPcOiOgIABlRrv1o3AF7oESJBMjECwEhNtK27mI+SliBQeLDe6HEfCsWbPG61wUrsAZIUaAEWAEgooAvoF2azWnyyDUi4oKFSrkOi8NGzaMig2PCIHnOh+vvvqqR1jjRsrL9OnTXecDv7MICxUpH1izi9BCrvMiQmJEygduijjprvMhPAhEyceQIUNc5wO/zebNmyPlZePGjUHhwykFYxZQR/pz8k1GgBFgBBiBqBAQ8Uc8JUuWtP34de/eParH+T4j4CgCf//9t6dZs2a28xGalT///LOj/XFjjEBUCIiwCLbzERsLaKczMQLBRGDx4sVe56Nw3RdMVrivOI7A7t27vc5FeKFgYgSChcBPP/3k9WAT1lTerJiCxR/3E3cQEO4zPe3atbN9NwpXnp4zZ87EHTDiwEiFu944MEoeYigjAEEpPNI5LZRGe/As5ste2JtyoxO8TZs2Ldo/07x581zBA+Po1q2bR7i4jhYvIrSYp2LFiq7wUrNmTc+JEyeixYdwhe3VC4gTvw32rtElNy2YBw0aFF02PBAOCzfbrvw2Ina758KFC9HiBetbKF448TuY23jjjTeiFJJHi8n/V+IY1AJhJkaAEWAEYjsCQqOahBtOQrzdO3fuUIIECWIdyyNHjqTOnTvb8rV161YtXo3tTS6M9QggDsz8+fO1f2KxBeW2WM/z8uXLSbjFs+WTY7rZwhJShZs2bSKxOdTei7/88gs9//zzsZp/ochDQvOXtm3bZuGzR48eJIQxlnIuCB0E8PtiPiJGGr7TYlMfq5lHTC3MR6F9b+Hz3Xff1cYR2/+mLIxzgUTg4sWL2nxE7LoOHToQ4qTFZurXrx/179/fwiLiHH788ceUL18+yz0uCA0EsGfB+hHvx0ceecT2GxibRjJjxgwSIWNsWRJeeqh69eq297gwNBDA3gBzcZmInRjb9zLCpaolBqqOMmK3CpfgepavIYiA8DSnzUWsw44dO0YvvfRSCI6CWY5LCAh3zoR5+8MPP9Ddu3f9Hjri8KZNm5YKFy5M2bNn97mdBw8eEN6PJ0+epH/++cfn5/UHsCZBvNy8efNSsWLF9GKfroil/c0339DVq1d9es5cGTG9c+TIQUJgT/H9iCF9/vx52rNnDwlDDAI+/tJjjz1GGTNm1PBInz69z82IsHu0ZcsWEopUhFjZ/hJ+mxQpUmjrf+He3a9mcOZy5MgRbR8kPNf51QYeekrEOMf72RyTPLoN4v2+b98+EiEHCWeq/hLO/zNnzkzC05SGja/tXL58WYv5LkKGkAgr4uvjsv6jjz6qnbsVLFjQ8e8WC6glzJxgBBgBRiB2IoDDOWGJLJkTruioadOmMh+bEsePH9cOvSE8MhOE18OHDzcXcz4EEGjSpIlBkIEFMDYVsZ2wMIYQZvLkyRZWRdxBTQjzwgsvWO5xQexGQFh5knBVLJmEcgx+51CgESNGEIRGdoSNFDYdTKGFgLAsoKxZs0qm8W7B4Xco0BdffEHCHZotq8KSwKugxvYBLow1COBgR6XYLogBrzi8Ee4bVbZlGsLrQA6XZEOcCDoCeL/gPaMT3pdZsmTRs7HyCqW3Tp06kbDYsfAH4TXWHEmTJrXc44LYjcCAAQOob9++kslQUTjA+tZOyahcuXLaXIRQgym0EFi1ahVVrlxZMi2sQgnzk4kRiO0I/P777/Tjjz/SvXv3/GYVAuo0adIEpFwuPE3QqVOnSHg38ZsPCNggSFX3cP40hnXNtWvXAlJ6evLJJzU+EiVK5A8L2jMQgGL9Amz8pccff5wgmE6ZMqW/TWiCaWDihIAawvJASP99oUjgLyVJkkRTHvD3eTwnrJ0JysOBCKihuJApUyZKliyZ36yIcF8BK5hAQJ06dWpKly6d33x4ffD/ltR8YQQYAUaAEYilCMB9h3iJy3+IzxfbSWykJb8q70gLjcfYzj7zZ0JACM4Mv6fQ2jfViN3ZlStXGvhX5+TEiRNjN/PMnQUBuHFXf0OkQ4mOHj3qKVWqlGUMGIcQXofSUJjX/yMAF1fqnBSb0JDBRlgfeA2LIKwFPcJSImTGwoz+hwBi3KvzEXFNQ4XEIb2Bd3UcQjkuVIbBfP4fAeFRwvB7+uIeMaZBnDlzpoF3dS5GFZMxpnnn/q0ICCVqw++JsD+hQkLx28C7Ohex52YKPQTU3xBpJkYgNiMA99cFChTw+h4yz+fo5IX1tAdhsHwh4ZXRIxSBHeVD//vzJXyCENK74tK6fPnynrVr1/oCiUcozXmEha+jmAircs/48eN94gPxysuUKeMoH/htunbt6hEW6tHmRVgse4QyoeN8vPfee569e/dGmw+EbxAeojzC6tlRXooWLeqZO3dutPlAxdmzZ3uKFCniKB+IO449m7DG9omXyCrzlzAydPgeI8AIMAKxBAFzbBGhlRZLOPPOhnC74xGuUGw/hMLlZLRjq3jvge8EEwHzRiOYfTvRFxZPrVu3tp2PiOkWCn9TTuAQLm3Url3b8FsK91ohNzRsKM1/V3p+8+bNITeeuMyw8NJg+C0R/yrUSLg+NYxBn4u4YnxMoYMAYsapv1+9evVCh3nB6YEDBwz8q2NB/EGm0EJA/f2QDiUSFkkeHEqax4A8YvoJa7JQGk6c59X8OwpropDCRFj2285FxHHFoTxT6CDQtm1bw2+5Y8eO0GGeOY0zCAi33l6Vqs3vU3/zOXPmjJbgr2PHjoa/GX/7i+y56Ox3IOyLrA0n7jVv3jzKOSbCS3kgSHaiP29tQKgZnTMyt2Icq3wJbzxRYhKZkZTaViDp6OxDoEghrL9d/W1wfvnnn39Gisn169c9FSpUcJUPCOCd+n6F1g4hUuj5JiPACDAC4YuAiN9m+LCEkgXCmDFjDLyrC4L169eH748WZiPDYkz97WAVE4oESzJ1HGp6woQJoTikOMkztHTV306EEAhJHGDRU7p0acNY9HHhIJIpNBCAkEL/3fRraHBu5PLWrVueli1bWsaCMcFiQcStMj7AuViLgD4P9St+21AjrHV1/tWriEfn2b17d6gNJ87y26xZM8Pv6IsFSmwBbc6cOYYxqPNx4cKFsYVN5iMKBMx70ilTpkTxROy7LeJ7ep2LUHxkCg0E4BFEfY+0aNEiNBhnLuMMAlDgUeeo22kIXL2RCG8YNF4iE1LPmDEjaHzUr1/fGxwe4d48aHzgd4eynjeqUqVK0HjB+Y83gjW+23NUbx9W3d5o+/btQeMD/Ai34baswDhHuLEPGi9OrO05BrX4RZkYAUaAEYjtCCBeBeK1qCS+RGo2VqcRhwTx3BBzyUzCmto2tpa5HudjFgGhmU958uSRTFSrVs0QV1DeCIHEgwcPCDHRR48ebeFWaCNq81FoA1rucUHsQiAU46x6Q3DcuHHUrl07y238zSH2YMmSJS33uCB2IVCzZk1CTEudTp8+TdmyZdOzIXUVijwkPLfY8jx16lQSB0W297gw9iAgrPipffv2kqFZs2aRsHCQ+VBJHDp0SFs/ilAjFpYRlxrxqZliNwL47dRvWKiu+4WLSW0uCteKFsAbNWqkfasDiQ1oaZQLHEfg8uXLlCpVKtmuCJtFdu8WWSEWJ3r06EHiQN7CobCm1uZirly5LPe4IHYhEE77mNiFLHPjBAJ16tQhoYBlaKpNu46UN+8rlDBhQkO5LxnESD558hR9PGSg5TG7881PP/2UhKKboa4IraTtU1KkSGEo9yWDvs6fP2+7jkTsYuHC2NDcd999R8ItuaEMmQGDhop4vGnJ/PdsqRhJwZ9/3qADB/bTgnnG9YW3PRfGv3PnTkOLOXLkpOeeSxEQHzgju3r1Cn333WlD28JznWUuoIJwYW3Br179hvTa6/koSZKnDG34ksHZ948//kSDBvS1PIa440888YShXAiF6a233jKUITN46HARLznim2+pEEXBif+xdx3wWRRp//lQELnTnFSlKAJSDkLXo8sBCtKbgITeJagHhBCanEG6FJXeOSDSO0iRDiJSFFCiqEcTTwFFUBTlNN/8927nnZ19k0vy7r71eX6/ZGee3Z3yf2d3Z+ZpH58hjLHBgwbYrsRaWbhkt/DRbowR7H2rlDB0BBUrVpSyZLlLZWcojZjeJz/8kObMnmG5b+DAgSSU0yw8ZHr27Enz5s2z8Hv1iaVy5cqRL7HOf//9N9G/z2n82FctZSPj7fm1XZQGgwXUaYDDpxgBRoARCCYEsCEs4r8YTRJuoQibj6FGQlOdhIawrdkiboohLKxXr57tHDOCBwF14j18+HAaNcq+sAie1v7vlgg3yoSNHG+Esaovhrxdx7zAIQCBLgS7IEzCsYANZUpLkUdo6tK4ceNCuXth3/ZVq1aRiGlp9BOKLhs2bAjpPmOTAoplwuLM1o/WrVsbG+CFChWynWNGcCAg4qBT/vz5ZWN83TSQBQUogc0XKJbpVLVqVWP+KGIj6qc4H0QIqPNHzB0xhwxVEvGnSbj99tp8fAfwfmQKXgSgYCtCWhgNhBKPN2XV4G29tWUHDhygWrVqWZn/zaFfqpKS14uYGVAE8C6EohVIWEuS8NQQ0PZw5YyAioD63QZ/1559VKe29/eNel9608mfnqW4gXG0dcsmeQsEat27d5d5JPR2TJo0iYS7b8s1vmZ0YV5MTAwtXbrUUizatWDBAsnrG/sijX41kbLclUXyfE0sS1pOfftYlYD1+TuUBqA8YBIU4574S1XKfs89JsvnI4ShO3dut5QjYmNTw4YNLTz9t5m/cDG1btXCco0vmZs3f6ARI16mRQvny2Li4+Np/PjxMo8E9vOwr2fS4CHDaeiQeDPryHHa9Fk0TCtT/20mTJhA2LMxqWWrZ2nUq6OoYAHPesw8l9njznd2U+uWzS236+3ASf23Wbt+I9WtUxunHKGLFy8Zv836dWtkeZBPQE6RWWIBdWaR4/sYAUaAEQgAAkuWLCERSzAANTtX5fnz5wmaXmvXrrUVykIYGyRBxRAuj4QW4kMkXPkEVbt8bQwmuhMnTrQVg01GbPAULFjQdo4ZwYEAhNJ4J/qiCRocPfG0As+ZcLPsYfw3ValSJWM81qxZ03aOGcGBADYbMR5F3KngaJADrdi+fTs1aNDAa0mhapXrtTNhyjx+/Djh3REOJEIiGPPHHTt22Loj3IHTsGHDbHxmBA8CwjUxhYsiqoj7Z4xFdbPaRBrKjZg7htO8xOxbuBxFmCKpUBYOfRo5ciQlJibaugLrLiiZFStWzHaOGcGBABSiIQy7777MWxsGR0+4FeGEQL9+/Wj69OmyS6vXrqdWLZrJvFOJDz48RRUrlJPFwTIY1rAm6R6dYNQCr35ukC7QE+GbKGfOnEZVd+7coWzZslmqvXHzpiXvVKZTpy60Yb1nn1SEerQIpKEEvWmTR6hfr97TNotiJ9ry448/Cg8j78iisL5VPcjo+xXPte9As2ZZrXvlzT4kfvzxFhXI/5ClBFUgCyt49RvnVjvQgCaNm9L+/XtlW6AkVqNGDZkvX748nTx5UuZPnf6IHnnkYZl3KrFi5Rrq1aOrLA4eVUaPHi3zCQkJFiH+vAWL6NnWLeV5pxJffHHO8vxWrlyZjh49muniWUCdaej4RkaAEWAEGAFfEIDLmj59+tiKwIcNi+nq1avbzjGDEXALgV27dqW6cQqNdmi2MzEC/kJAxPo1tMO9WeFiIxIutZgYAX8iAMUyuJvXqUOHDsY3O1euXPopzjMCriAA6xlY9+sEd72YP6rhSPRrOM8IOIkABJ1t27a1FYnNUoxF3f2j7UJmMAIOISBiGhtKE0eOHLGVyF6hbJAwgxFgBNJAAIqNJ06cMK546qn6tGPHtjSu9u1Ub+F2WHVbrAofR4wYQVBANAmKim6FL4CnSjWE0bZt26h+/fpG1SK+LlWrVs1sBk2e+gZ179ZF5p1MfHn5KypdyuNKXPecqQrSCxQoKJRQKztZvaWsw4ffNVx+g4l5jeq6unPnzhaB9cVLX1JU1P2W+53KTH19Go0cMVQWd+bMGSpVqpSR173aLHtrBTVu9Iy81snEkfeP0dP16sgi4d0J62PQTaGwEBUVJc+91D+OEl95WeadTkTd78Ea7s2xl2mS6gIe42P3nt3mKcePw4a/TNPe8Hhb++mnnzKtoMkCasd/Hi6QEWAEGAFGIL0InDt3zhDCrF+/3nYLNMExKWViBPyJAFyIeovjAgE13NZwfEF//hpcF7TXocWuE6yoMR4rVKign+I8I+AaAqlZU8OzBsYj4nAzMQL+QAAWNHDxCKtcndi1rY4I591EANbUGIvwKKET+FCoYGIE/IWALtAx60UIEihN4HvNxAgwAoxAWgioQtAevfrQ3Nkz07rcp3Njx79GQxM8IVyuXbtGptKr7npbFV77VKmXm9977z1C2BiTVAMF7FW2aOFxXb1x81Z6spbHcta8x6mjKnzEu3vFihVG0bold+nSZahoUfc8ZCQnnxFC6bOyWyr+EN6rHo3csihH5ZsE3h3at5PtgJU9hLAgrD/VcBbHT3wohOlFjHNO/7t16yfKr8S0xr4h3HqDILwvXry4rHLy1DeFEkNnmXc60bNnb1q54i1ZrPrbqM9vu+diaLaLz+/sOfMpPq6/bAf29zPrSY4F1BJGTjACjAAjwAgECoEZM2ZQbGysrXpYw2DSER0dbTvHDEbALQQghOnfvz8lJydbqkC8VYxHdYFiuYAzjIALCJw9e9YYj1u3brWV7kYcLlslzGAEFAQQmxrvxzfffFPh/if5/PPPG+/IrFmz2s4xgxFwAwHEoYMrO53gAhHf68xukujlcZ4R+F8IJCUlGa569evg8hFjMbVYwfr1nGcEfEVg//79xnfatIA0y8uTJ48xFlOLoW5ex0dGgBGIbARUAVev3n1p9iyPu2+nkRk/cTIlxP/HChVlX716lXLnzm1U06NHD5o/f76sUhXCSaZDCbgmfuKJJ2RpixYtIlgJg9atW0ctW3pcJG/a8jbVqumet0dVQA3lX3hrAf366690jxJrOjq6LD36qDvCWNSXloBaj/vspoB6y9Zt1L5dGzTJoN27dxP2iUFQSlVjksNtfJEihY1zTv+7/fNtypcvrywW1tOmYQv2a0qUKCHPTX1jOnXt0lHmnU70EoojK5YnyWLVZ0N9ftvHdKSZM917fufNX0gD+78k2wEvgI8++qjMZyTBAuqMoMXXMgKMACPACLiGwKeffmpov8Gdjk5vvPEGvfDCCzqb80GAADQ5w1EYASEMtDGnTZtmQ1l3tWS7gBmMgAsI6Asws4omTZoYG46ZXQyY5fCREcgIAhs3bjTekdCUVqlkyZKEb/ZTTz2lsjnNCLiGAOJs43t98OBBWx0cJ90GCTNcRODKlSvGWHzrLY9Vi1ndK6+8Qi+/7J67R7MePjICJgLx8fE0ceJEMyuPsErEdzp79uySxwlGgBFgBEwEVAEXC6hZQG2OC1UIygJqMtx7s4CaBdTm88FHRoARYAQiEgFoja1evVpoQ80k1f1MOICBjzzcpejUqlUrYzGdP39+/RTnA4AANEnXrFlDy5YtI7jaLFOmTABa4X6VcOn00ksv0cWLFy2VlStXzhiPbBFjgSVgGViLrF271hDUhnOsvZMnTxqb33v37rVhzYIYGyQBYyA2FsYjXG0iRvOSJUsC1hY3K75165bxflStG8z6hg0bZokbZ/L56H8EYI2C7zXG5M6dO0ndYPJ/a9yrceTIkYTwMDp16dLF+F7fd999+inOBwABuKrEeFy1ahVdunSJChYsGIBWuFsl3omw/NIJcQIhGHQrhqZeH+fTRgAekzAWEXt08+bNYRkzHH3EOgaK4CrBFSnGohljVT3Haf8jgNjhGItQKEDMXcyhmBiBQCHAAmoitqBmC2r9+WMLah0RIragtmPCHEaAEWAEIgaBTz75hEqVKiX7C+s5WDKFE8EaBovpQ4cO2boFq4R27TwxSGwXMMN1BLZs2UKNGzeW9cAiBJYh4Uo3btwwxiOUQXQaNWoUDR8+XGdz3o8IXL9+nXLmzClrrFGjBh04cEDmwzEBIQyEMTp17drVcL38hz/8QT/FeT8ioG7soNpffvmFsmXL5scW+Leq1Fzb4lmEK3C4uGUKHAJxcXGWOLi7du0iCMrCkfbt22d8r6HMoxI8TGAsNmrUSGVz2s8ILF26lDp29Lg8DOd44XBziLUMBJ86IbQRQiIwBQ6BU6dOEZRNTYIii7c44ub5UD7CLSzGIhQ4dRo6dCiNHj1aZ3Pezwjo88ZwVSTzM6xcXSYRUMcjW1CzBbU5jNT3EltQswU1xgULqM2ng4+MACPACEQoAthY3LNnj+z9N998Q3nzeuJhyBMhnoDgz9uiuW/fvsZGY5YsWUK8h6HbfHXhgl6oE9bQ7VXaLYeAGhtYOmGCjo1vWCMwBQYBeFiAdaBJ58+fp0ceecTMhuURVuNwN68LYooVK2aMxwYNGoRlv0OhU7onEAhlYmJiQqHpmW7jV199ZYxHWADpBCstDtOho+K//HvvvUdVq1aVFUIwBgFZOBNcfiPur06DBw+mcePG6WzO+wmB27dv07333mupLdznj5MmTSIoieiEOMAII6Mq2OnXcN5dBPS1DML7hPPaEt4LvCl516xZ05g3qgJ7d5Hn0nUE4HZ93rx5kg1l/YoVK8o8JxgBfyKgvhtZQM0CanPsqfM1FlCzgBrjggXU5tPBR0aAEWAEIhQBbCzGxsbK3k+fPp0gtA1HgjtKTIB0Klu2rLGxg0U1k/8RgLBBjc/87rvvWjbA/d8i/9QIwSeEgps2bbJVCJeO3bp1s/GZ4T4C8KzQvn17WREEhAMHDpT5cE7AKgYCQJ3YxbKOiP/yFy5coMKFC8sKmzdvTgiLEAkEZR28I3Vq06aN8c3IkyePforzfkBA3WxEdeomkx+qD0gVeOZatmxpq7tatWrGWKxQoYLtHDPcRwBhDxAexqTk5GRC7PpwpmPHjhnvxcOHD9u6iVAyzZo1s/GZ4T4C48ePp4SEBFnR8uXLqW3btjIfjgkotWMNBxf7OmFdp+4v6Oc57x4CcMWuKpZiXI4dO9a9CrlkRiANBNQ5IwuoWUBtDhV17cACahZQY1ywgNp8OvjICDACjECEIoDF5YMPPih7X7t2bYtFtTwRJgm4JsNies6cObYejRkzhoYMGWLjM8NdBOBGE+POpAEDBlhciJr8cD0iRlh8fLytexBQY4NHtxCyXcgMRxG4c+eOzYWyuohytLIgLAxWq61bt7a17MknnyQoMHG8Sxs0rjPq1atHcKVs0rVr1yhXrlxmNqyPcJ2Kbzas/HWC0BACeyb/IvD3v//dEopjw4YN1LRpU/82IgC1ffvtt8ZYhBKTTlCm6Nevn87mvMsIYOyp74BICpUCoROEojoNGjSIJkyYoLM57zICcMNetGhRWQvmUd4Et/KCMEpgrYLvtE6wsMa8kS37dWTcz6tCQdQWSesY99HlGjKCgDoWWUDNAmpz7KjvJBZQs4Aa44IF1ObTwUdGgBFgBCIYgYYNG9Lbb78tEfjiiy+oSJEiMh+OCT12ndlHxEPGYvrhhx82WXz0AwLq4gXVqZNWP1Qf8Cp0t6lqg9555x2qW7euyuK0ywh07tyZ/vGPf8hazpw5Q6VKlZL5cE9cuXLF2GxcuXKlrauzZ8+mXr162fjMcA8BYN6nTx9ZAWI/9u7dW+YjIQErfiiR6QR3t1DyYfIfAh999BFFR0fLChEHWH1fyhNhmpg5c6ZXT0Nws4z54wMPPBCmPQ/ObkXy/HHLli2EdYtO1atXN8Yiu1nWkXE3r4fN+v777ykqKsrdSoOkdISIgZD6wIEDthbBU5S3cWq7kBmOIQBl7ylTpsjy9u7dS1A0ZWIE/I2A+o1mATULqM3xp+71sYCaBdQYFyygNp8OPjICjAAjEMEIwJ1wjx49DASwwZaUlBQRaMDFMixesMGjUyS4ZtP7HMg8LNfNWI6IneXNwj2Q7fNX3anFuowkqyB/YZ1WPdhMMy0CW7RoYYlJndZ94XYO7r7h9lsnxE+HICZHjhz6Kc67gAAsN3Pnzi1LVhf1khkBCSjSQaFOJxbG6Ii4n1c3HIcOHUqjR492v9IgquH06dOG+1pvwhjMKb2N0yBqflg1BWGJoDQAQhrfpkiiGzduGGsZKN7qhDBOiBPP5B8EVOUVhIpR3c/7pwWBrwXfA2/upLHO86ZkFvgWh2cLEAIAIShA+B552+sIz55zr4INAXW+yAJqFlCb41Ndy7KAmgXUGBcsoDafDj4yAowAIxDhCEAo3apVK7rnnnsiDgksmGGdpROEhar2sX6e884isHHjRikUdLbk0CoNLgERY1UnbDBg84ut+3Vk3MkvWLDAeCdGivVLaigeP36cKleu7PX07t276a9//avXc8x0HgF4N1FdiDpfQ/CXePPmTUMw6E0YE4mW5YH8xeD5o0qVKoFsQsDrVpXr1MaMGDGCEhMTVRanXURg27ZtlpirLlYVtEXj/edNGN2pUydj7sgKZf756aDgjHj12bJl80+FQVjL5s2bqUmTJraWYb6IdUyJEiVs55jhPAJ4J2As5s2b1/nCuURGIJ0IsICaaNGiRQTvbCCEJ8JzadKmLW9TrZrVzazjx6j775dlPvvss2R6R0PYQ3XfNzq6LD36qHseNJOTz9Bnn52VbWEB9W3Kl8/zbh44cCC99tprBj5nz561fCenvjGdunbpKLFzOtGrVx9asdxjoKb+Nurz2z6mo/iGu6cEygJqp39ZLo8RYAQYAUYgJBGA6ytvgpaqVasSFnhly5YNyX5xo0MTgcuXLxtCGMRX1Gn16tWG4FTnc54RcBMB3V2gWRc8HwwePNjM8pER8AsCqqWaWmH37t2Nb/bdd9+tsjnNCLiGAJTrmjVrZisfFiFwz1+4cGHbOWYwAm4gADfL5cuXtxVdsmRJ473ILn5t0DDDJQS+++47Yx0Dgb1OCAmB0BBMjAAjEP4IqAIutqBmAbU54lUhKFtQswU1xgULqM2ng4+MACPACDACEY/AL7/8YrgHhOWkTuB17dpVZ3OeEXAVAQj/YKGlU0JCglcXevp1nGcEnEQAWtdt27a1FQmNbAhiOPaqDRpmuIjABx98QBUrVrTVgLirGI9/+ctfbOeYwQi4gcDVq1eN+SMUyFTKmTOnEbIEHoqYGAF/IRAXF0eTJk2yVQfrHFjpMDEC/kLg9ddfJ3gk0wnhY6ZOnaqzOc8IMAJhhgALqNmCGkOaLaitD/btn9mC2ooIC6h1PDjPCDACjAAjwAgYm4m9e/e2IfHCCy8QYrIyMQL+RGDPnj1Up04dW5X169enuXPnUqFChWznmMEIuIXAhQsXDDeiiAesElxPYzx680ShXsdpRsBpBLD5jU1wnWBl3adPH53NeUbANQQgABw0aJCtfISRefXVV218ZjACbiGQWriYmJgY41t97733ulU1l8sIWBBAOAh4JNOpZs2axlhkl986MpxnBMIHARZQs4Aao5kF1NZnmgXUVjyQYwtqOybMYQQYAUaAEWAEKDXLrFq1atG8efPoscceY5QYAb8h8OOPPxqClmXLllnqzJcvnzEeGzdubOFzhhFwG4GRI0d6jbE6ZcoUr9YybreHy49sBPBu7NChgw0ExGSdMWOGjc8MRsAtBPbt20e1a9e2FY/vNOaP+G4zMQL+QOD8+fPG3HH79u2W6sqUKWOMRfYyYYGFMy4i8PvvvxOUv/EOVOl+ER8VPHjiYWIEGIHwQ4AF1CygxqhmAbX12WYBtRUP5FhAbceEOYwAI8AIRDQCu3btok2bNhnWSNOnTzdcFkYyILC+gqtQleDGdv78+dSiRQuVzWmHEEA8R/wB461bt9IzzzzjUMmhX8zkyZO9umccO3Yswe03k/MIHDp0yBiPEyZMoBEjRngVyjpfa2iUiBjpzZs3tzUWcYD1TUjbRczIFAKffPKJMR4R9xvW6rt3785UOeF4U3JyMvXq1YsOHjxo6V6NGjWM70nx4sUtfM44gwC+1Zg34n2AUCnZsmVzpuAQLgVKZRiLb731lqUXjzzyiDEW69ata+FzxhkE1qxZY7wfEeP2/fffp8cff9yZgkO8lKFDh3oNC4PvNL7XTM4j8M477xhj8c033zSshHv06OF8JSFYIjyb9O3b19byl19+mV555RUbnxm+I3D06FFjLMKLB7DH/g4TI+AvBFhAzQJqjDUWUFufOBZQW/FAjgXUdkyYwwgwAoxAxCKAjcXs2bPL/j/99NOka93LkxGUmDVrluHSVu8yFnpw28jkHAJnzpyh0qVLywKhbQ/8mTwIQCDlbXO7Y8eOtHDhQrrrrrs8F3PKZwTUhTUKS0lJ8bnMcCrg4sWL1LNnT9qxY4elW1WqVDHGY8mSJS18zviGQMOGDUl1r/7111+zRaYGKcJxTJs2zcKFYhnej82aNbPwOeMbAmPGjLHMgyAgbNmypW+FhtHdUGyCMolOCBeDccrkHAJQaGzUqJEskAVeEgojsXLlSmrbtq2VKXIDBgzwGq/adiEz0o3A5cuXqWDBgvL6pk2bGgo8khHhCbj8hsD+448/tiDRqlUr4zt93333Wfic8Q0BXsf4hh/f7RsC6viL6dCJli5Z7FuBadw9YmQivZo4Ul7xww8/0B//+Ecj369fP4tyxk8//URuhbrYuXMnYR/VpOXLl8vvL9ZwWMuZlLR8JTVq2MDMOn6MEl4qTMJeERT4TFJ/mxIlShL+3KKTJz+kCxfOy+LV/RR8I6HoatKNmzfNpOPH5StWU++e3WS57777rgxBoStQ7TtwiMqXi5bXOpn4+utvqERxj0dONRQQ9lag0GrS6LETqF9sHzPr+LFDTEeB/waj3AoVKtCJEydkHeXKlaNTp04Z+WbNW4rxs0ieczox9fVpNHLEUFnsV199RQ899JDMZyTxf2KA8Y5dRhDjaxkBRoARCEIEsDhcu3atbNmVK1coT548Mh+pCUxeYGUA6zWVMNFbtGgRZcmSRWVz2gcE1MkyiuHphR3Mb7/91hiPsFhTCdZCGI9//vOfVTanfUCgU6dOtGTJElkC3gEcL0/CIRNxcXG2Te4//elPxnhkoaCEyefEnDlzDDeZZkFsAWciYT0iHjosWHUaP348xcfH62zOZxIBXamsa9eutGDBgkyWFp63bdu2zasnmNjYWJsiRXgi4L9e8fwxbawxf8FaBmsalbBZvnjxYsqdO7fK5rQPCECRVPVwcuvWLcqRI4cPJYbXrRAOQUite5mAkjLGYqVKlcKrwwHszYsvvkiw5DcJnqGqVatmZvnICLiKADzhYR5k0nffXacHHviTmXX0qM4BoCR06dIlWT4UA1966SWZX7VqFbVu3VrmnUzoa+Jjx47Jd9rnn39uCRXYf2A8/X3kcCerl2Xt2bufmjf1hIEbNWoUDR/uqQvvW8zjTWra1O4VzTznyxF7eaYAFOXg/YP3kEk6Xrv27KPKlSqYpx09DoofQnNmebxIqHvd8Hzy1FNPyfrGjJtIsX17y7yTCV1Qju8e9pxMUsdy62fbCu9Lc81Tjh4vXrxE0WU8xkHt2rWzfJcRfmP16tWyzo+TP6GCBfLLvJOJzp270vp1a2SRvuwBs4BawsgJRoARYARCFwFYGHXr5tEq481vz295U2jzARtYCKmEGG7QRmT3oSoqmU/DjTKs003CBg9c2TLZEYC2JSzYVIqKijLGI7RRmXxHAM+7uoB97bXXvLpZ972m0C9B/36YPZo4cSJh8cnkOwLffPMNPfjgg7IguFhft26dzHPCgwCEMPhmf/rppx6mSGFTHAJsJmcQUDdRUKIvGwrOtCj4Svnyyy+NsQirGpWwEYb5o/pMq+c5nTEEoDS6dOlSeROefZ6bSzhkAso7+jvwscceMwSDVatWlddxIvMIYK44aNAgWcCKFSuoTZs2Ms+J/yAwevRoi8AEXISJwGY9NsqZfEdAt+YcMmSIbe3oey1cAiPgHYEpU6YYnjrMs4OHDKdxY0aZWceO02bMohdin5fl6XN9XaESF2Jvz2mPDVh7VK9eXbYDCX1erM+bN27eSk/WqmG5x9fMb//+jXLmfMBSDLxXYN/SJF0wXKlSZSpQwOP9w7zO1+O5c/+k06f/Y4WLshDOAV5uTIIXtvr165tZeq59B+FBcYbMO5V4e9sOatfGo5SA30kNC4XfSTc6OnzkKP25VAmnmmCUo1tPg4l1QoECBWQ9umB45uy51P45uxcceUMmEwkJw2jmDI8CE5SMoWxsEmQB8JRnUuwLf6MxoxPNrGPHfyxJEs+vx0r8ueeeo6SkpEyXzwLqTEPHNzICjAAjEDwIXLt2zWIx3aRJEyNuUfC0MPAt0QWoaBGsDmBl2aCBey56At9z/7QAcQPVyfPf/vY3wuKGyTsC2Izt0qUL/fbbb5YLgBmwY/INgX//+9+UNWtWSyH6QtNyMsIzR44cMcaj7m3i+eefpxkznF9sRiLccBunCrp+/vlnS3iOSMQktT5///33xkJ7/fr1lkug9IRvtroZYLmAM+lGIDExkUaO9LhUhAWCtzAU6S4wjC+E9Q6seFQqUqSIMRbZok1FJXNpCAFVodakSZMsG+OZKzU879KFBuglNs3xXoyJiQnPTvuxV5gDlSpVStaou1aVJzhheG7DOgbueFWC8Brx05l8R0AXiPE6xndMuYT0IYDn+n7FzTTugtVwbN8+VLTIo+krJI2rrl//nmbMmkPDh1rDqSCEgO5RTvcUiWKdNIRAaDp4ulIJIYfgMUclrId1Xt/YF2nsWI+Bhnp9RtNH3j9Gs2bOpLVrVslboWwPq3GVoMSnh+KKji5LhQo9THfffbd6aabSd+7cofPnzxnxp9UCsDaDQYVKUI6DAN2k9sIdPPB0wsU23ncD4+Jp/tzZZvHGEV5DW7RoYeFBgWfcuHEW3tKk5dSkscctu+VkBjO7hXV4i2ZNLHch5I++NtCtuXEDXH136dxRuK3/g+X+zGQ+PfsZzZs7n+bMtu7N6N8G5HWhfe/n+wmhdXd6rFjRzFRtuefmzR9o0eIlNGJYgoV/9OhRqly5soWXoYxoOBMjwAgwAoxAGCAgLDoQskH+3bhxIwx65WwXhMVLiljsSYxMvETsEmcritDSTDzNY4TCkO5uC6F+itgIs41H4dYt3WXwhakjIDa8Ldj+61//Sv1iPpNy/fr1FGHBb8EMz7JQ4EkR7ukZIR8REJsdFmzFhoOPJYb/7cKttwUzjMfChQunCM358O+8yz388MMPLdgKxSiXawzt4vXnF2MR88lly5aFdseCoPXCjbJlLApFlCBoVfA2YfPmzSm5cuWyYIbxKLwYBW+jQ6hlwFL9C6Gm+72pp0+fThFuvS14ATthBen3toRjhcIizoIt8GZiBPyFgBDaWsaf+l50I52QkOC1a0JxyK/tQN9SI2Ex7Ne2fPTRR16bItx++7UdItyA13bs2bPHr+1o2bKl13YIoXpKmTJl/NqW1PZGhHK/X9shvAZ6xQTrEzee09TKFMq8XtuREWbqT15GSuFrGQFGgBFgBAKOgNDgsnyEAt6gIG3A4cOHU4RLPAtW+NAKzbsgbXHoNAsTE3PS0qhRo9BpeABb+t1336U0btxY4mbiJzRDU0SstwC2LPSrXr58uQXX0O+Rf3owYMAAC24Yk0KbPQUCLabMIyBiqllwzXxJkXWntw0yoRWeImJgRhYQLvTW/N7gKGKouVBDeBUp4jGm5M2b1/IcAzthtRFeHQ1Ab5o1ayZxFSEQAtCC0KpSWFClCK9FEjPzWRaWS6HVkSBsrXBhKnGtU6dOELYwuJp0+/btFOEGXWJmjkUIcoSHt+BqbIi1RlgKWnANseZzc8MAAeFpxzIGzefb6WPnzp3TRAuKWU7XmVp5Fy9eTLUteKdVqVLFL20RMYRTbQdOCGtuv7QDysL/i1LD0kk+vse//vprqk2BAo+T9aVV1v79+1NtB04IV99+aUuajRAnx48f75d2CNfe/6sp6TrPAup0wcQXMQKMACMQGggIF28pV65cCY3GBrCVIh5oinC3avtg8wat7z8KFtPCda3vBUVYCcJNkG08Pv744ymff/55hCHhbHfnz5+fcvnyZWcLjYDSvFkLCldvKVu2bImA3rvXRRHXO4UtYDKOr3CZliLi/drekSJeaMYL4zssCOzbt8+S50zaCHz22WdeBYP4hjP5hsCmTZtSRHgO3wqJoLthMaR7isGGKhRERYzOCELC+a7C8ggKpEzpR2Dw4MG2b3Tp0qVTTp06lf5C+EobAvDydu7cORufGYyAvxCAB8K0hHW+noMQLT10/PjxFAgpfa0vtfvhsSA9Hijx7e3bt69r7ahRo0aKiImdHkhSdAOl1PqWWf7cuXPT1Q6s07x508hsvfp9/fv3T1c74C3P27xILy+z+YYNG6YkJyenqy0iZrdrY6REiRIpqVlO642DxzZvxlmZxUC/z0nvPRyDWqDLxAgwAowAIxCZCPTs2ZPmzZtn6bxwlU7C8pJy5sxp4XOGEXAbAcRdjIuLs1RTsGBBYzxWr17dwucMI+A2AkJb3YhpKTa6LVUJoT9169bNwuMMI+A2AkJZhzp06ECIl64S3plC8K+yOM0IuIoA4vNhLK5cudJSD2IFYv541113WficYQTcREC4RSWxwW+pomLFioTY3sWKFbPwOcMIuImAEKaSENxYqsB6Gu9FrK+ZGAFGIHQREIo7Ruznf/7zn7R3795Md6RmzZoiXnIhEoJYEu6QM1zOrl27aOvWrYR41du3b8/w/eoNIrQVCcGqEdM4OjpaPZWu9NixY+nYsWN09epVOnDgQLru8XaR8DhBIuwbPfPMMySMaLxdkipPeLEg/DbCqpeE9bdPv40IsUIilBLVrl2bOnbsSCKUTar1ejshFA2N3wRxshGPObOEsZEvXz564oknSFhwZ7gYocxAGzZsoA8++ICwn+EL4TfB2BAeDwljN6Mk3KOT8OBJwmDC+I0yer95fd26dY05HY7CQttkp/uINQuenS+++MI4pvtG7cJatWpRgQIFCHuTekx27dIMZ1lAnWHI+AZGgBFgBBiBcEIgMTGRhPsiS5fKli1rbDwK7TQLnzOMgNsIYPLYtm1bSzVZs2Y1xqNwe2nhc4YRcBuBkydPUvv27enMmTOWqrAgx6Y4EyPgTwSEazdjPAqtcUu1wvsJLV682MLjDCPgNgIDBw6kyZMnW6rB5hW+48Li38LnDCPgJgLC6wkJK35LFVBwhJC6WrVqFj5nGAE3EYAwoEmTJrYqIEDBfJKJEWAEGAFGgBFgBBgBHQEWUOuIcJ4RYAQYAUYg4hCAFTWsqVXKnz8/CZcovLGjgsJpvyBw8OBBrxqaGKfdu3f3Sxu4EkbAREDE2yLhLsumbQvhjHCxbF7GR0bAbwhAEAOBjErC7Zrxzc6RI4fK5jQj4CoC3jyfwAoG80fh3tbVurlwRkBFQITYoVatWqksyp49u6Ew4U1gaLmQM4yAgwicOHGCRExKOnv2rKXU119/nV588UULjzOMACMQ/AhAUXnhwoXGWhBWqb4S5klQ6IM3moxYpYowcjRr1iyCpe6ePXt8bYZhyV25cmXj2xkTE5Ph8tq0aUPvv/8+XbhwIcP36jfAMlWE6KDevXtTVFSUfjrVPDxLCTfsJEL2GFblqV6YzhMw1BGu1EnEBafy5cun8y4yrMjnzJlD27ZtI+xl+UpFixYlEe+bli5dmuGiFi1aROvWraONGzdm+F5vN8DCHdb2uocQb9eqPFiRJyUl0aFDh2zfQ/W69KYxVuGNBPuBwCe9JMIT0YIFCwyrdlj8+0rFixc3PCDgmcFYcYr+HwAA///kaL/hAABAAElEQVTsXQW81Mbzn7Zo8V+LFCjuxYu7W3F3d9diD7fi7u5Q3K24W6FQSvFCsRaKtLjdfyf8s7ebu3tnSe69ywyfR9ay8s3mkux3ZwZsJIQAIUAIEAKEACFg27Rpkw0AHP62bNlC6BACpiNw5coVW/bs2R3m4+jRo03vCzVICCACdevWdZiPTZs2JXAIgYAgMGTIEIf5mDdvXtudO3cC0h9q1LoILFmyxGEu4vvkoUOHrAsKjTwgCBw+fNjpXFy0aFFA+kONWhcBfBYXLFjQYT4OGjTIuqDQyAmBcIhA7969He5jZ2tmvqY1btzY9vr1a7fILF261NB+5M6d23bixAm3/Th//rytcOHChvZl7ty5bvuBBVq3bm1oP7p27epRP6ZMmWJoP8qUKWO7fv26277s27fPliVLFsP6kjx5ctv69evd9uPRo0e2mjVrGtYPvNcGDx7sth9YYODAgYb2o06dOranT5961Bd3hcBdAconBAgBQoAQCH8I4AIFfgDiw+vmzZvhbwAB6vGxY8ecPsCXL18eoB6F32Z37dpl69mzp4Jn+B1FYHuOL3ulSpVymJP9+vULbMfCYevHjx+3DR8+3Fa8eHGPPj7D4RBN6XKnTp0c5mP16tVNaTuYGrl06ZJt2rRptmrVqtnGjx8fTEMzdSwzZsxwmI/43nPx4kVT+xHeG/vrr79sy5YtszVv3txWtWrV8D6cgPR/x44dTufi1q1bA9Kf8NroixcvlA2jXbp0UfAMr+MIZL8vX77sdC7iAjKJdwjgYnf//v0VPO/du+fdyVTa9vbtW1uVKlUc5mO3bt0IHS8ROH36tA03KSNRs337di/PpuKEgG8I1K9f3+H+9ZWIdnfemzdvXHZy0qRJpvXjwIEDLvvhaq3Q3dh8yR81apTLfmCGszUiX9pxd06onWCZuC7lrg698vH9xpVs3LjRtH6EtukPv6n0Gq+7enCDQmjSokUL0/ry77//htYVj/I+wVJs0CSEACFACBACQYLAypUroXbt2nw0bAceMC03HqdA6AhcvXoVUqdO7VBozpw50KxZM4d0SnBEYNiwYRASEsIzDh48CAUKFOBxCniHANuZCCtWrJBOYjtaYezYsVIaRZwjsH//fihSpAjPHDFiBPTq1YvHKeAdAmzHLgwYMEA6iS2Ywbp16yBKlChSOkUcEXj37h1EjBiRZ5QvXx6YBQ8ep4B3CKxevRpq1KjhcBJbzAVmhcIhnRIcEShWrBjs3buXZ9DyAIfCqwDOuRw5cjics2rVKmAbeRzSKcERAUZcwbhx43jGhQsXIEOGDDxOAc8QYNo7ypwT72s8c+TIkfD99997VonFSzHLCNCgQQOOAtPeA2ZJhscp4DkCbPMT4HqEKK1atQK2yUxMorALBJjGJmTOnJnn9ujRAxh5xeMUIASMQIBtzgFmrcih6nYdOkPkyJEd0j1NwO+gK5d+h23btkinNGrUCBYsWCClYWT37t1QokQJh/SmzVpC7DhxHNK9Sbh75zasWL7U4RS2uQYiRIggpWNapkyZgG0yltKZpQhIlSoVfPLJJ1K6NxF8ZjPNXIdTdu7cCSVLlnRIZ8Qj4NqkKMWLl4S06dJDBOEbU8z3JPz2zRuYPm2yQ1GmRQ9so79DuvY5qRZImjQZRIoUSY36dHzy5Ak8ePC3w7nOvlGYQhYkS5bMoWztOvUgbrz4DuneJDx+9A8sWbzQ4RRX76ffffcdsM2pUvly31WAFClTwqeffialexN59fIlzJo5zeGUyZMnQ/v27R3Sf/jhB8DrppWWrdv5tV7z4cN7uM7Wy7du3SxVjd/iP/74o5TmbYQIam8Ro/KEACFACIRxBB4+fAhx48blvUSymmkA8zgF3COgxVA9Y+rUqdC2bVs1SkcXCLDdpcBMrfJcZlrGgdDimRTwCAG2QxJmzpwplcW5iHOSxD0C4kdj/vz5gZledX8SlXCJANvJDkybWsrHTQBs9zLEiBFDSqeIIwLlypVjCzPbeIazj22eSQG3CPz0008OCzj4HoTzMU+ePG7Pt3oB2lSm3wy4du2aslCprREX8erVq6dNprgGAVzUw8U9VfBZ06FDBzVKRy8Q+PDhAzArHQ6L3rjJjGk8eVGTNYsyjWlImDAhHzxu9taSrDyTAm4R0G4+wRNcEVJuK7NgAfE7BodP740WnAQmDtnZu8zEydOgY/s2uvVi+cpVULd2Tak+fJ9n1s6kNFRyYNYheVqHTl2hY4d2kCplCp7mT2DFj6th+bJlsHHDOl5N3759YejQoTyOAS1h/8033yjfwkgW6yFMAxW6d+8Os2fPlqrT3utMwxuYiXGpzMzZc6F2LcfNulIhLyILFy1h11pe8/ztt98gffr0Ui3a36VvvskIyVMwItYPsl5s4NmzZ7Bnz09iEjALZNCmjTwPUYlo3rx5vFyNmrWhRs2aULpUCZ7mT+DnM78A05qG+XPt18YZIYsb2ZjVAakpnF9ly5SS0vyJTJ4yHUL69JSqQDI/VqxYPI1pcUOCBAl4HAPDRoyC9u1aS2n+RDZv2Qb16tSSqsDv7goVKkhp3kSIoPYGLSpLCBAChEA4QQDJQSQJVdG+2KjpdHSNADMzBMzUJTAf1FIhV7vUpEIUcdhFSnPQ/0mBO+bHjBkjVUQaCBIcLiPMxKC0SPvq1Su/dn+7bMhCGfPnz3ewzoGLCJs3b5Y+kiwEicdDResHuAihCmoHoBYrie8IMDP+DmR0HKZZgfMxX758vldsgTO1m8qYixhlIc4CQzdkiA8ePIB48eI51I2LW6JGpkMBSgDmh1LS7KhcubJinYOg8R2Bhg0bwuLFi6UK0AoKbh4lCR0B7eI7fcuEjpe7XNzIiFaNRMHFfO38FPMp/BEBrRb63bt34auvviJ4CAFDEMBnBG5mUmXchEnQpZP+m8XWrNsA1atWVptRLH+g1RlVjhw5ArixXJWGjZrCwgWyNQY1z5/j7Tt34evEiaQqtL/32ucBMzft1OqiVIkPESQ+0TqUKsykP5QuXVqNKt/e+A2uypx5C6BG9apqVLfjgoVLoFMHO0nNXK9IFm5QW7ZWLTtBmTp1GkZgZ9CtfbWil2zNZtfO7WpUOYrXBslZ/N4TBa9njBjRxSRdwrFixpTq0WpRo6Y/ftOrsmHTFihSuKAa1e04bvwkGDQghNeH6wpoXVEV5g5CspYzcPAw6NJZ//v3p917oVqVSmqzgBb1xA34PMPDABHUHgJFxQgBQoAQCE8IoHll1IhRBbUFxZc7NZ2O7hHQviTiGaRJ7R43fGEVzbzgrlDSrHSPm7sS2t27WB61q6dPn+7uVEvnM9+LkhYWammVLVvW0pjoMXitSwmsE02dIb7Ro+v/YahHn8NCHWfPnoVs2bLxrvTp00d6ZvMMCniFgNYMJp6MixY4H0mTOnQotQtv4uJP6GdSrjMEnj9/DkiuojaQKKRJLaLhPIzmLEXcaC46x8mbVNzMOGvWLOkUJKi17jqkAhSBnj17SqaU8RmTMWNGQsYPBNDMvNbNDm7cwQ08JK4RQGt4ool5epa4xopy/EegUKFCgC7aVDHyOYxmmFeuWKY2JVkH0Jop3rv/IBQpVICX1TMwfuJk6Nq5I69SdFF37tw5yJIlC8/D3zB0GWaEaN3FaM1rJ0+eHP744w+laTQdvdyJiXK9+iUSslmzZoUzZ87wqtu1a6doM6sJZcqU89ust1qX9njlymW4ePE3nowmvZMkSaLE0U1WxYoVed6UaTOhQf06PK5nYPuOXVCrRjVeJa6/4TocitaFV5NmLWDC+LG8rJ6B589fQMKv7BrSqLWM2suqaM2M//33A4gcJbKareuxfYdOsHihfcOEP78VRFDremmoMkKAECAEwgYC6HNM1MainfL+XRdnPoDR/A7uZiZxjgAuhOGCmCronxYXa0n8RwBNTmnNM3bs2BEmTpzof+VBWsPFixclP5ZoalCrjR6kQzd8WGvXrlXMiIoN4fNnx44dDv67xDJWDxMhaMwMQN9w6dKlkypHc984H8VNAVIBigC6g8ENJ6r8999/tMlEBcPHIy5W4aIRar+IQj6pRTQcw9oFadS4xMVyEv8QQB+FWrcw6FPSmY9C/1oKnrPR/6eouYbv2fi+TeIfAuPHj5e0vbA2NNGq9anqXyvBdfbff/8N8ePH54Nq0qSJZNKWZ1CAENABAfEbpXHT5pJpYx2ql6oYMuwH6B/Sm6c9fvwYYseOrcS1Ls7QdYXYN36SDoEDh45A4YJ2bW1xE4iWBMV4+fLldWjVeRXiGHEdchkzQY6C4//sM7sf4249ekH/fn2cV6JD6vc9+8DM6VN4TSL5qHVXVbGicet8T58+ZdY39vJ+iJsHtEoIR4+fhAzp0/KyegYePXoMyZMl5VWKGxWuX78OKZmfaVVGjRkPrVo2U6O6H5s0bgpr165W6kXf6LiJQhVx/lSvUYu5J5mtZul+nMo2BPTp1YPXe+vWLfj666953JsAEdTeoEVlCQFCgBAIRwiIDybstvhCEY6GEWa6iruWtb688WURXxpJHBHQ+i5CH4LoS5BEHwS0PkOxVvElWZ9WgqsW+k007nquX78e0Iy6KPjhjh/wJM4RaNy4MSxcuJBn0jOaQ+F34MqVK5AmTRqpnqRJkwKSDdp0qZCFI0gMiH70aD7qMxlwMRE1GbQkNVnxcI3vyZMnIVeuXLwAbbLlUPgdwHdxXMwVhUhXEQ05/P79e2mjHWppbdiwQS5EMZ8QmDBhAqDJWFHoW1FEwzFM3zGOmFCKMQiIc61lq7Ywc8ZUYxpitY4cPQ56fd+N149uUr788kslrjVtb+S76YlTpyF3zhy8HwsWLIBGjRopcVS0QNd/qjjzla3m6XEU8Rd9HaMLwsiR7Zqwvfv2h149u+vRpNM6QvoNhMkTx/E8Ef9SpUrBrl27eJ6RBDVaYty3bw9va8+ePVC0aFElrt3wdObsOUiRIhkvq2fg1ctXbKOQ3YWPqPCAJt/TprUT4xMmTYUmjRvo2bxUV8uWrV1aHhDnT916DZilRePu3zlz50O3Lp1435CoRy1/X4QIal9Qo3MIAUKAEAgnCKB/EjS3mipVqnDS47DdzZo1a4LoFwd7iz6qcQchiSMCbdu2VbReUPMlYcKEjgUoxS8E0E+o1ocgmpvSms7zq5EgO3nmzJnKb2KGDPr7SAoyqLwezpo1axTfYeKJuLFn6dKlYhKFBQTQ1CX+PubNm1dIpaAeCKAmNZrxv3HjBq8Od5jjopIz/8C8kEUDiBNahsH5iH+ff/65RZHQf9ioSY1zUTRbHTVqVCVO/tGd441aqupcpPvVOUa+prZp0wZmzJghnS4uxEsZFFEQQHxwPqZIkYIQ0REBtGTUo4dd8wqrRjdlQ4YM0bGV4KoKN5jgXMycOXNwDYxGE6YQEAkuIqgBiKD+OD2JoCaCWvtDRQS1FhGKEwKEACFACBACJiGA5ho3b97MW4sWLRqgSfWcOXPyNAoQAmYhgKYZ0RymKGR+XkSDwmYigGR0/fr1pSbJ/LwEB0VMRADNnaF51vv37/NWCxcurDyzxcU3nkkBQsAgBF68eAGobXL48GHeQqJEiZS5mDp1ap5GAULADATQPDCSrqLgtw1q+5MQAmYi4MwiFGrEde7c2cxuUFuEACEgICC+IxNBTQS1OjWIoCaCWp0L6pEIahUJOhIChAAhQAgQAiYj8PbtWyhZsiTzg7Kft4w76jGeOHFinkYBQsAsBJyZbKSFRrPQp3a0CKCWOvoME4X8XIpoUNhMBI4cOaI8s5EgVKVWrVqwYsUKNUpHQsAUBNBsZYkSJSQ/cdmzZ1feH6NHj25KH6gRQkBFoHr16oCWT1TBOYjfMjgnSQgBMxFAy09oUUYUfEbjs5qEECAEzEeACGpQNnGRiW8y8S3efWTiW0TjY5gIakdMKIUQIAQIAUKAEDANgYcPH0KxYsXg/PnzvE00tyWS1jyDAoSACQjUq1cP0Ce6KjFjxoSDBw+SCTgVEDqaigAuNGpNzS9evNhBu9rUTlFjlkUA/f1qNQNFv2GWBYYGbjoC6B8d3x9v377N2ya/thwKCpiMAM5FtAKlSrp06ZR3R9X/p5pOR0LAaARatWoFs2bN4s18+umnylwkNwgcEgoQAqYhQAQ1EdQ42cgHtXzLEUEt44ExIqgdMaEUQoAQIAQIAULAVAQuXrwIRYoUgb///pu3i7sstSbzeCYFCAGDEUDNftHHZZYsWRRzomiGnoQQMBsBJADHjRsnNYvmbWmxUYKEIiYhsHDhQmjcuLHU2tSpU6Ft27ZSGkUIAaMRQK1+fH9EizyqoDlbNGtLQgiYiQBuuMW5eOHCBd4s+kvHTT0khIDZCFSpUgXWr1/Pm02ZMqXyHRM/fnyeRgFCgBAwHgEiqImgxllGBLV8rxFBLeOBMSKoHTGhFEKAECAECIFQELhx4wYcPXoU6tatG0opyvIWgT179kDx4sWl09CXVp8+faQ0igD89ttvcOzYMWjatCnBYRACuNCImvy4eUIVNOG4atUqNUrH/0fg1q1bcPz4cahRowZhYiACtWvXhpUrV/IW0Ncq/g7873//42kUAHjy5ImCS5kyZQgOAxEYMWKEw/MZN/Von+MGdiFcVP3+/Xvl9xHv1a5du4aLPoe3Tq5evdrh+TNt2jRo06ZNeBuK4f09c+aM8g1Dm0mMgfrcuXPKu+PTp095A506dYIJEybwOAU+InD58mVlLqpmXwkXfRF49eqVMhdPnjzJK8b3om3btvE4BT4icOfOHWUu4nceCSGgNwJEUBNBjXOKCGr5ziKCWsYDY0RQO2JCKYQAIUAIEAIuEBBfMCdPngzt27d3UZKSfUFg/vz5DqTrhg0bAE02knxEQJyDuMhAJIxxM+Pnn3+G/PnzAy7yqDJgwAAYOHCgGrX8UZyPuJkEN5WQGIPAu3fvoECBAgrZpbZQuXJlWLdunRq1/FGcjwiGzWazPCZGAqA1I5o0aVJlfpKG1kfUtZtKUMs3QoQIRl4Sy9Y9duxY6N69uzT+AwcOQMGCBaU0K0fE38cTJ05Azpw5rQyHYWPfvHkzVKhQQaofzS23aNFCSrNyRJyLM2bMAHyWkOiPAG4CwO8Y3HSrCrnkUJH4eBTnYo8ePWDUqFFyAYoRAn4iIM6xlq3awswZU/2s0fXpI0ePg17fd+MFHjx4AKqbiebNm8PcuXN5npHfSCdOnYbcOXPwttAqoroZCb9bq1atyvOM3twq4o+b6X/88Uel7Tdv3kDkyJF5P3r37Q+9esrvkTxThwAR1DKIRFDLeGCMCGpHTCiFECAECAFCwAkCz549gxgxYvAcNG+JhCqJvgj07dsXhg8fziuNFy8enDp1Cr7++mueZtUA4iAuKA4dOhQQLxLjEMCPmFq1akkNoMm8SpUqSWlWjYgffaVLl4bt27dbFQpTxo2LjXnz5oVHjx7x9nDDBG6cIAHlvty4cSOHwsjFF96IxQOoMY0WUFQhH8AqEgBa0hS1qHPnzm0vQCFdEUCNaSS7VEmbNq3y/hg9enQ1ybLH3bt3Q4kSJfj4ScOcQ2FIADWmu3TpItWNmqw5ctgX7KVMC0UeP34sWX5B4l70l2whKEwZKm5mLleunNTW4sWLoX79+lKaVSPidwxiQO+NVp0Jxo1bnGNEUIOysZoIavm3plSpUrBr1y4+CStWrMzDegf+/fdf2LfP/t2G33BFixZVmkH3OKK1pzNnz0GKFMn07oJSHxHUjrASQe2ICaUQAoQAIUAIuEBAfMHEIvQR4wIoP5O1frPww3rLli1+1hocp4tzEHFau3ZtcAwsDI9i8ODBEgGYIEECQO3qr776Kgz32pyuISm9c+dO3hj9JnIoDAugVQnUnBYFfx+1C5BivlXCuGmnX79+fLi//PILZM6cmccpoD8CaOIfSdf79+/zyocMGQIhISE8btXA/v37FZ+06vinTJkC7dq1U6N0NAAB9AGMuKuCJAySMVYXXJCMFSsWh6FZs2YwZ84cHqeA/ghoLUx8++23yoYJ/VsKfzWK3zLYe3p3NPYajhs3DlBzWpVo0aIp3zFp0qRRkyx7rFevHixbtoyPn+Yih4ICOiEg/t4RQU0EtTqtxN8aIqhBeUaNGTNGgQc35OMmU1UmTJoKTRo3UKO6H1u2bA0rVzh/Doj3b916DWD6dOMsIBBBrfulpQoJAUKAEAheBHBBZ968eXyA//33H5BmBodDt8A///yjaAqjv29VSFv4IxIlS5YENIWkivhyq6bRUX8EqlWrJm0GoM0BHzHWWjzADwr0jUxiLAJaIjZZsmRw9uxZiYAwtgdht3bxQxJN2TVt2jTsdjZIeubMpC1qbBYrVixIRujbMJ4/fy69I5LlHd9w9Oasq1evKu+P6IteFdIW/oiE+NuIKfT+qM4Q44558uSR3HJ06NABJk2aZFyD4aTmhg0bShtH0JWOaGo1nAwjXHUTnz8LFy7kfUaLCqLGHs+wWECrMXj69GnInj27xVCg4RqJgPjsJYKaCGp1ronvYERQE0GN84IIavXuoCMhQAgQAoSAWwSmT58Obdu25eX27dsHhQsX5nEK6IcAfjTjy5ooBw8eVHywimlWC6PZHfyYVuX27duQKFEiNUpHgxBA/22o/YLagqqgCcdOnTqpUUsetX6kli9fDuh3lcR4BFCLGrWpVcEFX3HxUU232lFcCMLn9dSpxu10thq2oY1Xa2nim2++gXPnzsGnn34a2mlBnyfORxysuCAV9IMP0ABXrlwpPYc+++wzZS5myJAhQD0KG83iZh3RNdGLFy8gatSoYaNzQdoLtOKRNWtWaXSrV68G3PRoZUGSXnx/Pnz4MOTLl8/KkBg+9tevXyvfMRcuXOBtkbUTAFxbKFSoEMcE13pat27N4xQgBPxFQHwPJIKaCGp1PonfA0RQE0GN84IIavXuoCMhQAgQAoSAWwTQf1iuXLl4OfQvKPrp4BkU0AUB/HDu378/rwt9t+E1sLKgGTI0R6YK+UNWkTD+iGaUy5cvzxvCD85ff/0VrLzojRskRP/w3bt3h9GjR3OMKGAcAnfv3nXYnLJo0SJo0MA4E1jGjUa/msWFIKxVXADQrxWqyRkCZcuWlfzQd+zYESZOnOisqGXS0L+qaEqZLO+Yc+nR/y9uIlMFF/927NihRi15RE1y0cT8gQMHoGDBgpbEwsxBo39lNPetSuLEiQFJwpgxY6pJljsePXpUIqSRsEbtchJjEcB7Xrux/tixY4qbDmNbDru1v3z5Ej7//HPeQdzIg9Z3SAgBvRAQv0uIoCaCWp1X4vcpEdREUOO8IIJavTvoSAgQAoQAIeAWAXyRQG2g7777TtmFPGjQILfnUAH/ENCatEb/oqipZVW5cuUKoM+wGjVqABL233//vVWhCMi4e/XqBSNHjuRtIyGzdetWHrdiAD+8ixcvrvj6RT93JOYh8OOPP0KtWrWkBlHb/4svvpDSrBRBn7NLly6Fzp07K89pjJOYgwCaV9aa+N++fTugr3qrysyZMxVtrLp16yq/kT179rQqFKaPG62e/Pzzz7xdtD6DvwtWFXWTbZ06dZTfRtEnrVUxMWvc6nNJbQ83riBxbVV5+/YtRIoUCcqUKaP8Lorv1VbFxKxxDxs2DEJCQnhzBQoUULSIeYIFA/gdg+sN+MzAv+rVq1sQBRqyUQgQQQ2wYMECaNSokQKx1voauq7DdQSjRMQf18/w2xnlzZs3kmuJ3n37Q6+e3Y3qBoT0GwiTJ9rXSYigfgXx48fjeOM7Kfmgng/dutitM16/fh2SJ0/OMfIm8AmbYDZvTqCyhAAhQAgQAoQAIRA6AqhlkDFjRqkQLrIhOUtCCAQCAfFDB9snc3CBuArUpooAamaJC93NmjWTNDbVcnQkBMxAQKstiG3SJ7IZyFMbWgS0plsx35/FHm39FCcEPEUAN47FjRtXKr5p0ybJKo+USRFCwEAEihYtCuimTBXcIEAbnlU06EgI6IuAuG5AGtSkQa3OLvHbiDSoSYMa5wVpUKt3Bx0JAUKAECAECIEwigBqZYqaHmSqMYxeKIt0a//+/VCkSBE+2jhx4gBqtltZa5WDQQHTEXj27BnEiBFDatfqWqsSGBQxHYGqVasCakioQn4uVSToaDYCffv2heHDh/NmUXsYXaWQEAJmI4CWPUSLHpkzZwb0UU1CCJiNAFqWQE1hVSJEiKB8xyRLlkxNoiMhQAjohIBIUDdp1gLmzTHOesbQ4SOhX99evOePHj0CXKdAQd/qaNVHFZEgVdP0Oh46fBQKFsjHq1u8eDF//uHmrIoVK/I8dKFWrlw5Htc7IOIvvgO+f/8e8LdPle7f94Z+Ib3VqO7HXr36wvRpk3m9Iv5aF0kVK1bm5fQOPH36FPbv38urFd29TJ48GdA9kyrHT56CdGnTqFFdj0+ePIWkSb7mdaKFqR9++EGJ42bSlClT8rzRYydAyxZNeVzvQJMmzWDtmlW8WvHaiPOnRs3aTAnAuPt32vRZ0FvQ4r958yYkSZKE98ubAGlQe4MWlSUECAFCgBAgBLxAAAlBJAZVIV+rKhJ0DAQC6GsZfdCr0r59e8CXehJCIBAIrFixAvCjW5U8efIA+ngkIQQCgYDW1De6Rrl27RrQ4ncgrga1KS4uIRpGL4YS4oSAKwTQJYdqXhTLkOaqK6Qo3WgE0E3ZwIEDeTMNGzaEhQsX8jgFCAFCQB8E0Iz+4cOHeWUi+cUTdQrUb9AIli5ZxGsT29Ka9z/ISOQC+fLwsnoGJk+dDh3bt+VVosWGwoULK/EzZ85A9uzZeZ6R7vtwE1jWrFl5WyIJiolI/v35559KPpLCiwXs+Ek6BSpXqgJ79+5WasuUKROcO3eO16zdPFC27HcQMWJEnq9n4Nq1q3Dhwq+8StGy0Pr166FKlSo8b+bsuVC7Vg0e1zPw0+69UK1KJV7llClToF27dkpca369ecvWMHbMKF5Wz8DbN2/hyy/trtHQlefmzZt5E9rNA48fP4FPP/uU5+sZ6NS5KyyYN4dX+eHDB9B+w/BMNwEiqN0ARNmEACFACBAChICvCOCLPb7gq4J+mC9duqRG6UgImIrA69evIUqUKFKb+MElfgRJmRQhBAxGoFq1arB27VreCppaRj+XJIRAIBDAXfC9e9s1EZo3bw6zZ88ORFeoTYsjsHHjRqhUyb4IljdvXjhy5IjFUaHhBwIB7eYdtH7yxx9/wP/+979AdIfatDgC2oVvUZPO4tDQ8AkB3RDo06cPjBgxgtc3lWlJtm2t//fZlm07oHy5MrwdfO9BwlEVvL9VkhjTkPSbPXO6mq3b8dGjx8yqnPxMe/v2raStrP3tuXXrFnz9tV2bVq/OoNUStF6iChKPSECqghtzULtblUVLlkGliuXVqG7HZctXQptW9muuVWzQWlhJnz4DpE6tv+Yyrl/t2LFNGpe4ieHBgwcQL57dLzQWxOv5WYTPpHP0iLRk82/limW8qrNnz0KWLFl4XKuctG3HLsiXNzfP1yswecp0COnTk1en3TiI9y7ew6oMGzEK2rdrrUZ1Ox48dES6f9EvO/pn91WIoPYVOTqPECAECAFCgBDwAIE2bdrAjBkzeMnx48dD586deZwChICZCMybNw/Q368qtWvXhuXLl6tROhICpiJw/vx5QJOhqqBpLFwMJyEEAoWAdgGKNvEE6kpQuzVr1oRVq+zm+0Rzk4QOIWAmAlrNVfT9iwuiJISA2QisXr0aatSwa8ehmV20MEFCCBAC+iFw8eJFyJAhg1ThrDnzoUWzxlKaP5GNm7dCpQp24hXrcmYtJmfOnHDq1Cne1PfM7HQIMwkeI3p0nuZPYBfTip07Z45EPKLVudGjR0vV4gZW1ZwzZmC/ULsZN1vrIah52rVrV5g4caJUnUjGYsbu3buhRIkSUhm9SeqVP66Bls2bSG1oyVjM1H4zZcmSFZImTSad50/k5cuXcPr0SUY4P+LVoBvFLl268DgG6tWrJ7nCadCoCTRp0gS+zW7XRJdO8DLy5+07MG3aDJg2xX5tKlSoALiZVJT58+dD06ayWe8Nm7ZAkcIFxWJ+hWfNngc9uslryX///TfEjRuX14sa9loz22PHT4TmzeRryk/wIbB7zz6oWrmidCZa2xGfz1KmBxEiqD0AiYoQAoQAIRAMCEybNg3wZRP/YsWKBWvWrAmGYYX5Mdy+fVvaXZk4cWJulifMd17nDk6YMEGZf6glSYtbOoPrRXX58uWTTCmfOHFC+cjyooqgKNqgQQNmHulLZU7u2LEDtB+AQTHIcDAI3LAjfoyL5rLCQfd17SL6nsVnNPpCfvXqFUSOHFnX+qky9wigr19c6FAFNRlETQU13QpHNK2I8xG1JPA3slSpUlYYdpgZo9bMI1o7wQ0TVhRcKP7tt99gwYIFMH36dMUvpRVxCNSY0e9l0qRJ4c6dO0oXPvvsMyUcP378QHUpYO2iaxz8Xfz999+VBeGVK1cGrC9WbbhMmTLKM0kdP2psoeaW1QQtvODvIs5H+o6x2tU3fry4VqMladGMcyZGQvrzffLu3Tu4cvkSrF4l/3aiOwl0/6QVJK3Ll3fUEO7QsQvE/n9f1dpzPInjd/+9e3dh7uyZDsX/++8/iK4hwJ8/fw4ZM2ZULIiIJ+AmmVSpUjmQtWIZd+F//vkHlixZ4lAMfV87G7tWixpPrFChEqRJl94vM9topvoiM6W9bZu86QeJc9FNnNpR/A1q2bKlGuVH1KTWWu3jmR4EkKx/8uQJe8+47VDa2XoNPo/Tp0/vULZZ81YQz8/3FCTHZ06f4lD36dOnJbPvagF8Fu3Zs0eNKsfqNWpB8hQpAd+dfBUk6yeOH+NwOl4XvD5a0W4sVPM7d+3Ork1UNer1Ed8HrzOT62tW/yid64ywlwp4EmEXl4QQIAQIAULAAgiwZ4JN/LPAkMPMEHv16iVhP3Xq1DDTNzM7Is4/phlkZtPUloAAI7+k+ciIWiHXOkG2+1jCwTojD1sjvXv3ro35++XXgrlCCFsdNKk3Q4YM4RjgbyX72DapZWpGiwAzpyxdiwsXLmiLBH18//79EgZsY1nQjzksDpC5PJCuAyPDwmI3De0TWyiWMOjRo4eh7VHlzhFgG8mk68A2VDkvGOSp4rcMhknMR4BpEEpzsWLFiuZ3Igy0yKxgSTiEgS5RF4IMAebbV5pj2t8/PeNPnz51iR7TXDatH9u3b3fZD+aX2rR+MILRZT+Y2WvT+sH8GbvsB2YwctS0vjAtbpd9YRYBTesH2yjpsh/MBYpp/WjcuLHLfmAG22RtWl/++uuvUPviSSa9UXmCEpUhBAgBQiAIEEASSnyJDIIhhZshMLMrtggRInD82e7LcNN3PTsqzj8MkwQOgfz58/P5iNfi2rVrgetMgFrWLvy/ePEiQD2hZrt16ybNR6bFajlQmJauhEFoCySWA8fkATMTZdK16NChg8k9CHxzN2/elDBgvswC3ykL9oBpx0nXgfm3syAKTM2Jvaeof8ycpiUxCAuDZv42+XVgPqhtTBMuLHTL1D4w7V2OAX3LmAq91BjTWpSuA7MuIeVbIcJMDksYPHz40ArDpjGajAC+A6vPXyOO+ExnWqpuRzVz5kxD+8FMmtuY5qvbfhw/ftz27bffGtqXSZMmue0Hs7Rl067v6n19mHa0235gAebz2FA8cN3q3LlzbvvC/HXbkidPbmhf8HvdnTALmjam+W5oP1AByhNhlhAM7QduELt3754nXXFbhlaH3UJEBQgBQoAQCA4E+vXrJz2cHj9+HBwDCyej6NSpk4Q/M9kTTnquXzdpUUc/LP2tSbvL1Irkw/Dhw6V7EokAksAgcOPGDelaFCtWLDAdCWCrhw4dkjAIbXd2ALtpmaaZb3R+PaJGjWpjpv0sM3Z1oOJCV926ddVkOpqMADM5z+ciXpNjx46Z3IPAN5c7d24Jg8D3yJo90GqxIWFgNWndurU0F1HDn8R8BJjZX+k6tGvXzvxOBLhFtGwiPqeROCMhBIxAAN87WrVqZUuZMqU058T55004YcKENrQAgPexN4JamgMHDtSVIGYmmb3pglRWu7blDQbastmzZ7eFhITYkNz0RpiLAxsz+W1jPod1uTYpUqSwNWvWzHbw4EFvumG7cuWKDS3coCKOdmy+xr/77juv+oCFmQlqG3MraCtUqJBu/cB3UFw3Ck3L31lH0Woh88msWz/SpUtnww0jzAWQs+ZcpuEGrvbt29vSpk2rW1/QGuaGDRtctulLBvmgZncKCSFACBACVkBg/vz50LRpUz5U9GOH/uxIzEEA/UOxnZm8serVq8OqVat43AqBtm3bKr4D1bE68++j5tHReATQXxLTnFYaSpQoEaC/dCsJ+rmqU6cOH/LWrVuBmbHicQqYiwD6BBf9b6H/VUYSmtuJALbGTJ0D3oeq9OzZExgZoEbpaDICzBUHsI953qoV/d5+8sknfPwYYIsNUpwi5iDAFgmBLbTxxvBdCuenlYQtZIPo65fmYmCuPvqEjBs3LqAPURSm1QRsc1VgOhOgVkeNGgX4fFbl/Pnzil9SNU5H8xBgWozw888/Kw3GiBED0I9rxIgRzetAgFtC39slS5bkvWCbjwF/K0kIASMRwOfv27dvfW4C/fD644tXbBh9JvsqkSJF8vVUp+epz0WnmW4SmaVFNyU8y8Zrgz6CfRW9+oHt+3Nt8PtDz99yf/qi1zzB6+LPu6ue18afucrcsgH+GSIMIBJCgBAgBAgBCyCAJmvYg4T/rV271gKjDltDxF2A4jVA099WkpEjR0rj//XXX600/DA31qFDh0rXQ+9dkGFuwJoOHT16VBq/VX3Da2AJWFTrU9BT01UB67ABDYvPh1q1ahnQAlXpKQJo8j9KlCj8NwJ34ltNSpUqxcePc5MkcAjkypWLX4vYsWMHriMBapkRgnz8OBf18HUXoKGE+2abN28uXQtvNXnCOwDoB158VqNJUZLAIIBmcMVrsWjRosB0JECtosaiOH78riMhBIxAgG2iVTRIUdtYnHO+htFkM37nsQ0+XneXKd3YmKKHDbVJfW1fPS9LliyKtrC3mtxqp9FdGFP48bsfqVOntlWqVMnmi1USpgRj69u3r61AgQJ+9wNxKVy4sKKlfv36dXWYHh0ZCWybNm2aDU0+p0mTxu++5MyZU9EW9qhxTaH169fb0D+zaA1LvebeHr/55hsbU2iwofVBXwTdmOXJk8dvPLDfpUuXto0ePdrGNmN51ZUHDx7Y2OY6m/a7zlss1PJ58+a1de/e3cY2iHnVD3eF6UvTHUKUTwgQAoRAkCCgNaE6bty4IBlZ+BkG+lVVH+x4tJoJV61fT1rUCezc1f4moB8jK8n9+/el+xHNUpEEFoH06dPza8I0/APbmQC0Lj4fMEwSWATQxJ14TXAx2EqC5hzF8b98+dJKww9TY504caJ0LdasWROm+md0Z2bMmCGNHzeYkQQGgb1790rXAl1IWUlOnDghjX/KlClWGn6YGiv6rRWfUUiMWEnQB7w4fmYpz0rDp7GahIDWtYM45/QIoxs8TwTXjfQ0UaztO5J3v//+u9uu/PHHH7YKFSpI9562Ln/juGbmiRjtX3jAgAGedMOGfpn9HXNo5yNB7Akpe/bsWYVgD60uf/KyZctmw3cgd4K/zbh5wZ+23J2L3wWeCJo7d1eXP/no9kQvIRPf7EqQEAKEACFgFQQYQQrMPwkkTZoUvv76a6sMO8yME82pxIoVC5hmltInNCeMZoWtJKtXr1bmIM7DBAkSWGnoYXKsJUqUAKa5qvQtZsyYwHzrhMl+GtUpNCmt/ibi7yJJYBFgH8IwePBg3gnm8wyY3ycet0IATTaqczJy5MhWGHKYHeOOHTuA+Zfj/Rs7dix07dqVx60QYAuCyjsj/j7iM4IkMAjcu3cPmM9G3jjzNwgLFy7kcSsEmOUnPhe//PJLKww5zI6RaXvB1atXlf4xDTRgi8Jhtq9GdAxdxOBvIv6J96URbVGdoSOALrPYhh1eyGruo5jWuDIP8b0xefLkHAcKEAJ6IaB196JXvWI97tbEtK4KxXP1DqPbAEZEOq32woULprl0QFcu6NLFlVSrVg3wvchocfe+yTR6gRHlRndDqR/dYX311VdO29q3bx8ULVrUaZ7eiYh7lSpVnFaL67z47YjueYwWplwB6HYkNDHj/kXccT3R37aIoA7tSlIeIUAIEAKEACGgMwLo8xYXNlR59uwZRIsWTY3SkRAwFYHJkydDx44deZs7d+6U/JnxDAoQAiYggIsC6FNQFSSsBw4cqEbpSAiYjgD6W3348KHSLm7o2bVrl+l9oAYJAURA3FCG85K5iSFgCIGAIMBMVgKzxMXbvnz5MiBpTUIImI0A09wDJFBUYZqHUKNGDTVKR0KAEPARAaY5Db1793Y4u0HDxhA5ShSHdE8TUGFjwbw5DsWZJiYw64IO6cxiCuTLl88hvXqNWhA7ThyHdE8TmNYn3LtzhymLbHY4BfOciej3Xs0vVbosJEqcGD5h/3yV//77F1b9aF8fVOs5cOAAFCxYUI3yI9M6B+bigMfVAHMnCP74TH716hVs27ZNrY4fBw0aBP379+dxNYBELRLlWsFrEz16dG2yx/EPH2zw562bsHfvRyUK9cRixYpxxQo1DY/MhDXEixdPTFLCX3zxpV/9wEqQcH7wwPF9m5lAd7opqGbNmrBq1SqpL/nyFYBUqdPAZxE+k9K9ibx6+RKWL1vicMqcOXOAWfxySNeu8akF6tStD1GiRlWjXh/fv3sPly/9DseOHZHOdbeRQSrsIkIEtQtgKJkQIAQIAUKAEDACAdzp3KhRI1418/sLzCQZj1OAEDATAdSAERcVcQcs8xVuZheoLUJAQiBFihTAzM8racyflik7kKUOUIQQEBBgrg8ALS2owsxcA/NNrUbpSAiYhgBq8DOfb7w9XLRlfu14nAKEgFkIoKWPkiVL8uaQVEBygYQQMBsB3ECGG3ZUadmyJTA/rmqUjoQAIeADAncYcZuYka6iDBsxCr7v3gUiRIggJvscnjVnPrRq0VQ6//Dhww5kND5r8JmjStNmLZnGbndIm0afTVGTp06Hju1lTWXmzx2YX2e1SeU4YsQI6NOnj5SGmLRvp8+z7/aduzBx4mSYNWMqbwPJaSSpRWFuJhysi+lt4WnYsGEQEhIiNqt8mydLlkxKy5AhAzAf2DytfcfO0KF9O2YlMT5P8ycwesx4GDp4gFQFatMz/9JSWrt27YD5v+ZpSEynTZsO9LK28+r1azh/7he4d+8ub8MZIYvWPNCqhyiz586HmjUcSXyxjKfh589fwOQp02DEMLu1OTyX+f+GiBEj8mrQImLs2LF5HAN9QgYo8zzq576T02KFK1auYvevTIzjJm7cTOuz6GUrnOohBAgBQoAQCHsIjB8/3sa0dd12DP2HsRcut+WogO8IzJ07Vzn59u3buCWT/zEtBF4p+jHDvGAStlBgYyZu3A6JveTZGAngthwV0AcB0d9yunTp+Hxki928AfZBFHTzEefYrFmz+BhdBZi5Khv6XyUxDwFmTUJpTOv39/nz50r6kydPlPmI8zJY5ObNm7bOnTu7HQ7bzR5096LbQQe4wOnTp5UesIUQ/vuIz2dm9pv3jJHXtuHDh/N4MARKly5tU+85V+NR32OYxoKrIpSuIwJME0Op7cyZM9JcZJvJeCtDhgyxMS0WHg+GADOfaDt37pzboaAvSLYo5rYcFfAfAXw3QvnA1JuYCwo+H9E/pCr43Rls3zLM9YiNbShWh+jyyFxA2NBfK4nxCDDTt7wR/HZRv63xm0YVZpVHSX/8+LGaFO6PmzZtsuH6jjthZI2tVq1a7opRPiHgFAFG0PJ7Cu8tRsQ6Ledv4uKly6V26tatK1V58uRJKd+oZ8vvly67bUf9jVGPh44csz3991/d/xo0aiL1hZlOljDB9Qm1D3hkpsClfL0iWt/j6O9alHXr1kn9aNmqre5YIL7bd/4ktZM1a1axGzZcPxDxwHC5cuVtFStW1vWvQoVKDu1cuXJF6gszVS+VWb5ylSGY9OwdIrXDtKWlfmj9Tvfu29+QfixZ9vF9T8WfKV1J/fA2Elyr4N6OnsoTAoQAIRDkCMyYMUN5eM2ePdvlSJnfCqVMly5dXJahDP8QuHTpkoIx242oVJQ+fXr+UsFMFilpzDczT/OvtbB1NjNBpIwLCRZXwnY9KmVCm6euzqV03xDAF0kkV1CaN2/O5x6mM/NONmaukac9evTIt0bC4FlsZ6syLrbT2GXv1N9N3DRBYg4CzByjcl2YRr9twYIFfO7hfFQ/zJk/JyXdk0Vic3rtfyvMRK8yJiTlXcmhQ4c4Hq7KULq+CEycOFHBfMuWLTZcfFA/vPHIzNwpjeEmH4yLm3307UVgalPHev/+facdYLvyOR63bt1yWoYS9UMAN/jhNcENjChffPEFxx8JXBRm3k9JY6YPlXiw/IcL1Tj2I0eOuBySWmbjxo0uy1CGPgjgxhW8HurG2uLFi/O5yLSqlEaYD0iepk+rYaMWJOZx7KFtpGUuSZQyeCQxHgG8Hrgp5+3btzZmWYLPO0zH5xfzVcrTmFUe4ztkUgtMk1QZF26acCXM7LlSxl+ywFX9lB78CDCfsvz+wXuKmeU2bNBVq338BsR28E8U9bdXzduxSyZrxbL+hn8YNVYas/ju8euvv0p5TBvVEMIPCdldu/dKbTFNZmloKVOm5PkZM2aU8vSOqLjjkZk3l6rv0KED7wfmHz1+0jBMOnbuJrWFG2VVwW81sZ958uTTlZgWie4iRYpJbYlrl7hxT+wHM4VvGB43/rgptaV+D6iY4G+/2Jdbf942rC/MZLjUltoHX47y3e9LDXQOIUAIEAKEQJhFgJmT5g8M5itM6icuNDCTbDyfmWaT8imiHwIqCYEvCvgyx0x8c9xRA0EkILBMMEmvXr34WJlfMGlo//33n03MZ750pHyKGIeA+tLKzGYpO/HVOB7VxQ817dq1a8Z1xOSat27dyucj820stY6/iUuXLuX5SJqSmIMAWlpQ55t4DTANN1ExU148HwnsYBH8DVTHzXxWScN6/fq17ZdffuH5WI7EHATUxV3EHK2fJEiQgF8H/OjHDS7qdQttc4E5vdW3FXVceBQ1A5AEwMUXZrqNjx0335EYi4C4KIqLlOpGHbw+SZIksW3evJlfD0wLJhGtaYiWC9QxilpEnliLUs+jo+8IqL8P9evXtzHfpNLcC+ZvGdXCFY4fv51Fwef4mDFjOBZaLTOxLIX1Q0Cdi+o1EeNawgI1qYNFmAlkl3ONuSCxrV+/nufjNx4JIeALAuL91Kix6020vtStPWfg4GF8zmK7aDFLlTZt2kh5+C5qlOzd/3FDoDp2/B5VBS0XqOl4XLVmnWGEH5LUYlv16tVTu6G8h4t5Rlt7QysMYnu8IyzA/F1LeUZok6t1zltgX9PG/uD7hiri8xnzmE9wwwjqct9VkMaM70Gq4EYoESvc8KD234hj5SrVeHuZM2dWu6Ecv/nmG56HG0CMaF+tE60riOP+888/pb54EyEf1AxJEkKAECAEghUBppULjGThw8ubNy+gzzpngn6R2cK/syxK8xMBtutU8gvCTNPA2bNnXdbKHuQu88JbBtvhDUybgHeb7fQEtuDK42IAfR+jD2QS4xH45JNPXDaivUanTp0CtmvWZfnwlMG0e4DtCuddzp8/P6C/K2dSvnx5YB+kzrIoTWcEevbsCYyIdlqrdj4y04bAzGI7LRveEt+/fy/5ckN/sseOHXM5jGB6NrgcZBjIYIvbgPe/KqlTpwZG1ipR9HXJTFurWVC1alVAn2PBIqE9G9A//PXr1/lQ8T0mS5YsPE4B/RFgWoCQKFEiXjHizTau8Lg2EEy/EWxDJ7CFR+0Qncad+SR0WpAS/UJA/H3IlCkTnD9/3mV9zPoOxIkTx2V+eMqYN28esA0TvMs5c+YEZnqWx8UAzlu24VZMorABCDByBNimU6c1s8V6YO4BeB6zxAPMwgSPh+cAc/UA2bNn50NAH7XM0gaPawPB9EzQjo3ixiEg/tYz080wU/CLrHerI0ePg17fd+PV4ju26juYWXkDtlGU5xk5n0+cOg25c+bgbeG6KK6PojBz1sr7vpq5acs2KFQwvxrV/RgrZkxeJ67lMiUPJY6+hplyC89jFjCBKSHxuN6Bpk2bAr5fqSLiX6pUKUCfw6owwlIN6n7csnU71K1dk9e7Z88evp6D6wLMvQbPK1OmHESKFInH9Qx8YGu0mzdt4FUyizLANqgpcWZ9kPm9TsvzJkyaCk0aN+BxvQMtW7aGlSuW8WrFayPev3XrNYDp0+1+zfkJOgXmMB/b3bp04rXhd2Ly5Ml53JsAEdTeoEVlCQFCgBAIZwhoF1lD6774UAutHOX5hoD4ouCuhmC6Fsw0k8ekczCN2901DnQ+ki/4++CJBNN1OX78OCAJ6IkwX6ywfft2T4pSGT8RYH6ugO1C9qiWYJqPOGCrPhs8utgBKsTM+gFuXvFEmjRpAkheBIsws72ACz+eSLDdi56M2ewyL168gGjRonncbDBdE9ywiO+QnkgwjduT8QaqjFWfV8uXLwdmTt4j2GkuegST34WYFj8wDUeP6gmma/L7778DcxXm0bixUDCN3eNBU0G/ERB/64mgJoJanVDi7wkR1ABEUAMQQa3eHXQkBAgBQoAQcIsA86MKzFxlqOWYyUBgPoJDLUOZ/iGg1SR2VRtqFzOzLK6yw13648ePgfkIg71794bad2aiCJjv31DLUKZ+CKxatQqYSWG3FS5btgzq1Knjtlx4KtC+fXuYOtX9TtJnz555RQyEJwzCWl9R08UTTUzmEgBGjBgR1rrvV39wLuKcdCeoWZ07d253xShfJwSqV6/uVjO6XLlyHm/00albhleD5DSS1O6E+V0D1GwhMR4BXADzREOG+eSTtK2N75mxLdy8eROYb2O3jaAFDtzkRGI8Ap4+r/Cdv0iRIsZ3yMQWUIsNLZOFJvi9465MaOdTnucIeLoJf9asWdCiRQvPKw4HJT3dvPPXX39BvHjxwsGIqIthDQEiqEGxLEka1KRBLd6bpEEtovExTAS1IyaUQggQAoQAIRAKAu3atYNp06a5LIEaGlGjRnWZTxn6IIAfyUjEuhLm+9ejhWFX54fVdDRxjos2GzdudNpF1ErwdBe80woo0ScE0CRcoUKFXJ6LC+JoOioYBbV1Q1vQvn//PsSPHz8Yhx5mx/T3339D7dq1XW5mYX6oJTNjYXYgPnRs0aJF3Iycs9PRhBrz/essi9IMRMDdu9O/zJxdjBgxDOxBYKpG07W5cuVy2XgwPxtcDjrAGe6s0QSTKw4RajQT/cUXX4hJUrht27YebTiTTqKIXwigSwPcwONKUNsYn+XBKFpzp+IYUZuM+UoXkyhsMAKnT5+GHDnsJnm1zeHm8H79+mmTgyI+ZMgQ6N+/v8uxXL16FVKmTOkynzIIgdAQIIKaCGqcH9pnHmlQk4lv7e8GEdRaRChOCBAC4QKBCxcuKL4+f/vtN7hz5w48f/5c6rf4IiRlUMQBAV+wQpNQ165dc6irZMmSuvjpQII7QYIEkC5dOkBf16J/JIdGA5xw69YtOHDggOI7DcO4yCy+cGH3fMHYk2EhCYMLiVpBv9QJEybUJof5uDc4ob9KvPdFQRIwtMUFsaynYfQ7g35C0W8o+okrXLiwp6eaXu7JkycKIYfY3LhxA1DjHP3SiuINxuJ5noTxd3j//v0ORdHXKN7L4U28wQoXby5duuQwRNT68cakqkMFQsJnn32mLK4jnvibiD7wokSJIpQIO8EPHz4AbpLBBT/E5uHDh/D25HoCHQAAQABJREFU7Vupg97gK53oRQTvBfS7Kgrez3gvhyfxFivcFIHYawX9v+Oz1V/B/sSOHRuSJk2qaKvj72JY1qxBM9snTpxQ7lHUAnr16pUEgbf4Sid7EcF7Af2KaQXx0+t3Qlu33nFfsEILEs6eDWnSpFGerf72EYn9xIkTA/qYR3PqqVKl8rdKw85HP7s4H/H7BX+bAvX9gu9PzvxP4ztUWL6XxQvjy1zEZxP+NuL7syjomxvfnf0V/H756quvFLO56AIkW7Zs/lZp2Pl//PGH4m8W5+Sff/5p6veLOCh8Vz169KiYpITR9LCvvgcdKjM4wZe5iF3C9Qy8DlpBa2T4zueP4PcL3sv4O4vvPOhfOKwKbm5HTXl8Z0M8cE7gvWqm4DV8+fKlUytw+N6tx++DmePxti18PxF9bavnoxWUWLFiqVHl6O18V79fkOTG75eiRYtK9VEkuBEQ5wuZ+CYT3+psF9dLycQ3mfjGeUEEtXp30JEQIATCPAL4EJswYYJiIsXZC3SYHwB10GcEcLERzYt37NjR4SPJ50r9PHHJkiUwZ84cp4uuflZNp4dhBFD7pl69eooZXSStw4KglgVq1K9duzYsdIf6YBICESJEUDSLWrdu7bGPW6O7dubMGcXCBppzxwVHEusgULZsWcX0ZZUqVcLEoJGAmzx5MuCzWruZKUx0kDphGAJovh41NVq2bGlYG95UjJZf1O8XJKRIrIMAkoNo1hO/X6JHjx4mBr5w4UKYO3euQk6HiQ5RJ0xBAMlq9fsFCdewILt371a+X9BVkEhWhIW+UR+MQwA3laFlhDZt2oTpTTzGIWCtmomgJg1qnPGkQS3f92TiW8YDY0RQO2JCKYQAIRAGEcDF7j59+gD6ECOxLgKosTV06FBAU5mBEtSWRh916MOTxNoI4G/SsGHDAgbC9evXoUePHkRMB+wKhJ2G0WT1mDFjQjVfamRvUTu6a9euMGXKFCObobrDAQJoSQVNCHviB9yo4aBvcTTFqbUgYVR7VG/YRAA1qtH9wnfffRewDi5evBjQDQRtkgjYJQgTDePmRnxfDM01j9EdRZ/wvXr1AjS7T2JtBPD5iCarAyW4noPfL0hMk1gbAXStMHbs2DBrEcraV0ef0RNBTQQ1ziQiqOX7iQhqGQ+MEUHtiElAU9qxB/S8efOUPvzOTEWi6TwSQsDqCKDfUtQ8ICEEVATq168PuOhntkycOBE6d+5sdrPUXhhGAP0uo488s02qb9iwQdHKefr0aRhGh7pmNgKHDh0yXZsazcQ2aNBAcXNg9nipvbCLAD6j8VltpuDvIba5efNmM5ultsI4AoHyHdqhQwfatBPG54bZ3QuUlihuYENCkIQQUBFANzErVqxQ3BipaWYcN23aBLipEn3CkxACiECGDBlg6dKlQW9G3apXmwhqIqhx7hNBLf8CEEEt44ExIqgdMQloSoL4CeDp0ydKH4YPHwFdunYJaH+ocUIgLCAgvtSo/en+fW/mf7Mo5MmVE+LEia0mB//xTnuAFyuDf5xshM9fxIZTl9PAnpORYOaio4B+I0VBc6Jbt24VkwwPO5uLrZqWh5J5I0D+b25Bgi9vGd6HsNLAjCspocef0cJKdwztR8QPn0Cmp1Eg5u2I8NeZe3DyyHGH9q5cuWKa30v8iHdG/BSrWAqipI0GDxK8gIvRZH+/Dh0OooTmz1/CwNOyn+EgGp7DUC5Fjg3H38WBn+68g417Djnkb9u2DdB/oRly/PhxQD+bWildMA+UThoV8kR8DBleP9ZmB3U883XrbGL6X6RX8EWUR/Dh7XXmP3KNw3VFE9vt27P3FhPkn3/+gXLlyim+psXm0qXNCF8nLQDP3yWAu69iMr+Wn4jZQR3ek3QefPnZv0E9RnVwDyNGgZ8//RL2P4kMU9ftUZP50WxisG7dusrmNd4BFkC3DF2qFIaC0Z9D1ncPIeZ76zyn3134BGwPrXHvPYv+KZxLFguORIwOMw/+Ak80GwkrVqwIuMnQTHH6/VKGzcVPX0K2e08g3t/WmYuft7HB5zWfmQl/wNp6+zYy/HLtG9h9Khps3PUnHDl6yqEv6PPZLKUY3NCLv41aqVGlJJQqEAMKZn4IaZP+ps0O2vibQ9Hh337W+F18G/ETuJQ8GpyMHgt2P3oLOw47fkvv378fcOM3SXAhID5/yAc1+aBWZ7f4Xk4+qMkHNc4LIqjVuyMMHFFzGjWoVcEXRdSiJiEErIpAp06dYNKkSdLwO3buBl06d4RkSZNI6ZaJWIigFq/pv8/jwphlaWHI6PViMtSsWRNWrjSesJ82bZqDWfG6NUtD1/of4Nt0Z6Q+WSViJYJae02L/B4LNk9YJyVnzZoVjhw5AlGjRpXS9Y789NNPgCZ0RclTMC/EKhoPDif8T0y2TNhqBLV4YTdETAKNFh4UkyBatGiAmtQ4J42UP//8U9HWxqMoMxoWhtrv/hCTLBW2EkEtXtik0R6D7dVxOHR4h5isaGjVqlVLSjMiUrx4cUATtqKULN0GLv+bhvm2FFOtE7YSQS1eVdzEM+ufL2DuRnk+mKVJjSZLp0+fLnYJOlcrDq1j3IEEb15K6VaJWImgFq/p4/9FgDlJEsKoLfvFZMUX8JIlS6Q0IyJogQwtkYlSr2QhaP7uMWS8bA2SVhw7hq1EUGvHPuHHQtAlZK2UnDNnTuX7BTfQGCnOvl+KFs4LXRrHhQr5jxjZdJit20oEtfYirM6WANpsPiolx40bV/l+SZMmjZROkfCNABHUpEGNM5g0qOX7mDSoZTwwRgS1IyYBS6lXrx6sXSNrHyxhWlLVqlULWJ+oYUIgUAigaciGDRtKzU+eOgPat20lpVkuYlGCWr3OK3cXgNptZJIafU2iTzWj5NSpU4Af76L07VYZhrZy1FwUywR72MoENV7bnA+jwd6QTdJlbtSoESxYsEBK0zPy/PlzyJQpE9y4cYNXW6p6WbhU+C38E/EDT7NawMoENV7r25GiQcYFssZJrly5ALWbjRT066q1YnG0SVZIbzGNaS3GViWoVRzSRD8NP/1kJ15ixowJ586dM1RDq3v37ooPQ7UPeCxcsi/c+O9LMclyYasS1OqFngIpIWSZTFIbbWFi7ty50Lx5c7ULynFKgyJQ/739uS1lWiRiVYJavbzrGBnTUkPGoN/Vrl27qkV0P+Kmyfz580v19inPCMoz8qYyqYAFIlYmqPHyHjibCwrXlC2QtWjRAmbNmmXY1X/27BlkzpxZ+n5pUr8cjO96A2JFf2BYu2G9YisT1HhtriaPCnkPyd8vRYoUYRZ59ob1S0f98wIBIqiJoMbpQgS1fNMQQS3jgTEiqB0xCUjKzZs3IV3atA5tV2XkNJryJCEErITAmzdvIHny5HD3rt1k65RpM6Fdm5ZWgsH5WC1OUCMoa/blh+otZdN4165dgxQpUjjHzM9UrcmZ3l0rw/DW1ianEVKrE9SIQbbHUeFg7y0Y5LJx40aoUKECj+sZQC0Y1IZRpUTl0nCsjHXMMqrj1h6tTlAjHk8iRIJki65I0AwfPhx69+4tpekVmTNnDuCCpihnG2eEZG+sqcUv4mB1ghqxSB39JOz+aRmHBTfhGqUteOzYMcibNy9vCwOFSvSDP579T0qzYsTqBDVe88m2lNBvuZ2kRssSZ84YY/kGSRj8fnn48CGfblMbFoF676xNTiMYVieoEYON2eJDs83HMKhIxIgR4fr165A4cWI1SdcjEj1oMleVXoyc7mZxchqxsDpBjRic+O1byF1Ztnayfft2KF26NGbrLlqrePVqlYElQxzNjevecBiv0OoENV6eewkiQebTl6Qrhd+6OGdIggMBIqiJoMaZTAS1fD8TQS3jgTEiqB0xCUjK+HHjoU8f54uIaObbLL8wARk8NUoIaBAYOXKkpBHbpdv3MG7MSE0pi0aJoFYu/MglhaDXYLuJsnbt2sGUKVN0nxSoHYhagqpUqVQc1o7+RY1a+kgE9cfLX/BWLNg23G7uG31niQuCek0SNKOcJEkSXl3ChAkhfveMcOXzdzzNqgEiqD9e+fOR/wcF59uJlzhx4sD9+/chUqRIuk+NdOnSwSXBDc2mJnmg4Ot7urcTHiskgpr52v30A3zxdj2cPGk3P3/y5EnIkSOH7pe0Ro0asHr1al5viVKdmVnvpDxu5QAR1B+vfpf/UsD8TXaNrPnz50Pjxo11nxpDhgyB/v3783q71ygOIRGv8riVA0RQf7z6k7J9DUM2H+BTATcejhs3jsf1Cqxbtw6qVq3Kq6tRrABMu3SHx60cIIL649VfurMA1G9vt0pWokQJ2LVrl+5TA31c48YdVb7+OjEcXZ4QEsW7riZZ9kgE9cdLfypDLCi76yyfB4kSJYLbt2/zOAXCNwJEUBNBjTOYCGr5PiaCWsYDY0RQO2ISkBTUnkYtamcyfPgI6NJV9h3krBylEQLBgkBadj9cvnxZGU6UKFHg6rXrkCjhV8EyPP/GQQQ1x69Is5Sw/+BHE7Y4T548eQKRI0fm+XoE0Mf1qlWreFV7VpSDotlP8LiVA0RQ269+vt2RYeeqbTwBTSujiWU9ZejQodCvXz9eZfmuVWBfmqc8buUAEdT2qz+RaQsOELQFZ8+e7WBu1l7atxBaCahUqRI/uWv14tA/EpEwKiBEUH9EIlXM+7Bnp31zYfv27WHy5MkqTLocb926JW3iLViwHNx8W1KXuoOhEiKoP17Fi5HjQN759sVvozaSIQmDZAwK+tI8UTYOxHn3Wolb/T8iqD/OgPeffQIVYkeDk+fOKwmxYsVSvl/0nh/4jMZntSpbS2aFnL/ROyPiQQS1OisAGg3MCYuW2b9fzp49C1myZLEX0CE0cOBAGDRoEK9p5pgq0LKiffMaz7BggAhq+0UfxzbvjBA276DVHbS+QxL+ESCCmghqnMVEUMv3MhHUMh4YI4LaERPTU3bv3g3lBQ09bQdQexq1qEkIASsgoPX327tvfxg+1P5RYwUMQh0jEdQcnilrCkGH3nYtatSgqsbcIuglb9++hWjRogEeUWpWKwUrR/ysV/Xhvh4iqO2XMN9f0WHnAPtCYEhICKAmlZ6ChDdqIKIkYuYgX/RNA28/0bOF8FsXEdT2a3c/YlRIt/B3noDm5sVFap7hRwBNe6OJb1UONckGGV8/UqOWPxJBbZ8CX9k2MF/o+5QENGOLliD0lKlTpwIS36oUL9UDrvybUI1a/kgEtX0K9HyREmaut5v6xrmop2nlw4cPQ4ECBXiDIbWLQfdPr/G41QNEUNtnwNzsiaHXJjtBp7drmOfPn0P06NF5g3VLFIKJF/X97eWVh8MAEdT2i7btWF4o13ATT8BvF/yG0VOyZcsGSHyjpEyRHK5u/0/P6sN1XURQ2y/fzSRRIMfRizwBlQRWrlzJ4xQIvwgQQU0ENc5eIqjle5gIahkPjBFB7YiJ6Snt2raFefPmhdrukqVLdSVeQm2MMgmBACKAPmfQ3Jkqe/YdgKKFC6pROhJBzefAH3dTQ/IiR3m8c+fOMH78eB73N4BmmtF/myrTRlWFNpXtZvnUdKseiaCWr3ziyffg9wsfP6xx3uzdazcnKpf0Pvbvv/8CatmoUrZBBTiY/7katfyRCGp5CrR/khyWbN2nJBqhnSVaOSlXJB8sS0hmQ8UrQAS1HY20MX+HXTtn8oSLFy8CmofXS+rUqQMrVqzg1aXINxbeffiUx60eIILaPgM2R0oC9RfYSUGcN7Vq1bIX8DM0atQo6NmzJ6/lpyY5IMfrBzxu9QAR1PYZcDV5VMh76DeegPPmhx9+4HF/Azt37pR8CU+pkA9q/XzP32qD5nwiqOVLmazk58yS4y0lsVSpUrBjxw65gB+xf/75B7788kteQ7cOlWBMh8M8bvUAEdTyDGibNhGs2nNISUyQIAHcu0e/WzJC4TMmEtTNmreCObNnGDaQYSNGQUgf+7sY/gb973//U9pr1aoVzJo1i7dts9l4WO/A4aPHoUC+PLzaRYsWQYMGDZS41hLZug2boFjRwrys3oFYMWPyKmvXrg3Lly9X4u/evYOIESPyPCMsXfHKWQDHj5YRVBHxL1OmjPTsecrWvoySDRs3Q8P6dXn1uOaLlpVQJk2aBJ06deJ5pUuX1d1Cp1r5+w8fYMtmu4LL999/D+jqFOXatWuQKlUqtSiMHT8RmjdrwuN6B5o1awGrV9k3BInXRrx/a9Wuy+4h4+7f6TNmQ6/vu/HhoZVp0cUhz/Ag8AkbhHF3uAcdCI9FnjKTtGnTpoOnT5+E2v2qTCtwKSOpSQiBYEdAq5n1+vVrQ/xnhlsciaCWLl3+RsngyNFTSprevrOmTZsG6NtalZMbS0KOdGfUqOWPRFDLUyD/niiw48etSuIXX3wBDx8+lAv4ETt27BjkzZuX1/BdjyqwPyWZalQBIYJaReLjcRqkhD7L7JqCN27cgGTJksmFfIy9evUKokaNys/uwXys9iUfqxwPDBBBbYcjeYyHsH/XMJ6wZs0ayS8qz/AxkClTJvj111+VswsWLMvMe5fysabgPI0Iavt1vR0pGmRcYCcF0WXG4MGD7QX8DDVs2BAWL17Ma3lSNykPUwCACGp5FsS9c4MnfMcs6W3evJnH/Q3gZt2uXbvyag4WzgjprtKmRhUQIqhVJD4eGw/KBQuXfvx+SZgwIdy5c0cu4EfswIEDULiwnXhZNLkKNCht3yjkR9VBcSoR1PJlnMLMfA8SzHwjQY1ENUn4RiBPnjzMmtJxZRAFChSCgwf3Gzagxk2aw8IFc3n9IkWF73wDBgzgecdPnoJcOb7lcT0DM2bNgTatWvAq0WpusWLFlLjWYiiS6u3bteZl9QxcvnIVcn6bnVfZvXt3GD16NI+jv/e7d+8q8fz588OhQx83iPACOgbEb7YMGTLAhQsXeO3NmzeHuXPt1+3S5Svs3o/P8/UMjBo9DoYNGcirvHLlCieD8Tu1evXqPK9QoSIQO3ZsHtcz8OzZM9iz5yde5cSJE6Fjx45K/OXLl/D555/zvNZt28PIH4bzuN4BcRMDbhbYtm0bb6JkyZLw00/2fhq5eaB7j54we+Z03jZaMo0QIQKPexMggtobtP6/LGpOowa1J4JmvtHcNwkhEMwIlCtXTvpBFF8qgnncHo+NCGoJqrp9v4Xlqz7u9EatLNTO0kv69u0Lw4fbXwQencoIcZhPTZKPCBBBLc+EIqdjwObZG3jiixcvJCKPZ/gQ0L4slxhcEY7Fe+ZDTcF5ChHU8nXdEDEJNFpoXwDEj0386NRDtDt6xzcoCk3eX9ej6qCpgwhq+6WMG+UFnN7XlyfgzvQOHTrwuL+BOHHicP+tJUrUg8vPcvhbZVCdTwS1fDljL7vJE9DUoLgYxjN8DBQvXpwtNNk3BhFBLQNJBLWMR6s0CWHt3sNKIvr8VU0gy6V8i+EC9NixY/nJN9OkhM+ff+BxqweIoJZnQN8ZBWD4uPU88f379/Dpp/pYIkFNvbp17Zpqh9eUgXyZPm4s5w1aOEAEtXzx12ZLAK02H+WJSOR9+60xBCJvhAKGI9CjRw8YM2YMb2fegkXQpNFHbWKeqENg7/6DUKxIIV5T2bJlYevWj5tvMBFJYlRoUaV9x84weaJ+1hfVepFUixQpkhpVjtp1IVErFQv8waxYxImjPxE6YOAQmDDOTkivXbsWqlSpwvumtUS1YcMGqFixIs/XK4DKlvXr1+fVoTb7jBl2TdwFCxZAkyZ2DeG+/QbC9z3sG+34iX4G/rx9BzJmSC/VIvINSNYjaS9KxYqVxahu4TNnfmaur27x+tCVX44c9u/YfPnywdGj9t/D/QcPQ9YsmXh5vQKz58yH7l3tWuNDhw4FXAdXZdCgQTBw4EA1CuMmTIJmTRvzuF6BU6fPQHHBkgBqtaN2u69CBLUPyKHvafyhROIZ1ddDk+HDR0CXrnbTx6GVpTxCILwioH1Yiw+M8DomXftNBLUEZ4thuWHOwi08Tc/5guZdcDFdlTcXEjIzOG/UqOWPRFDLUyD3toiwe4PdLN7ff/8NcePGlQv5GEOzUI0aNeJnl+tVBQ4kIw1qFRAiqFUkPh6nMA3qEEGDGs01otlGPeSXX36BrFmz8qo6VisOgyNf5XEKkAa1OAcSRH0GJ/b240m46at379487m9AfGcsWaoJXPo3s79VBtX5RFDLl1MkqPX2bynORWyVCGoZeyKoZTy6ZPgaluw6wBP1/H5p3bo1zJw5k9f9IFFyHqYAABHU8iyo2SsbrFq7iyc+ffoUYgomYXmGD4HZs2dDy5Yt+Znr5laCygU/bszgiRYOEEEtX/wJTIN6mKBBvW/fPkkDXy5NsfCCwJkzZyB7drsWL/Z7+cpVULumXVPV37HsO3AIihQqAOK72KpVqyRtWGxDzMf4wMHDYEC/PhjURS5c/B3GjR0P8+bO4vW1ZQqJU6dO5XEMoEtLdG2pCppObsWe3d9mt39jq3m+HidOmgr9Q+RvLu27xpYtW6B8+fJSE5iGSmN6iVbRAus9cuSIZB0Q07TXZtSY8dCqZTPM0kWuXL0GQ4cMhfXr1vD6hg0bBn36yNe/GrNejES+KilTplKsHvuqyavWIx6vXLnMFKvsVp0KFCjALAvYlQuwLBL4bdq04acVLVocQvr3hxzfZuNp/gaWLV8pafpjfX/88YekGHv16lVInTq11NTM2XOhdq0aUpo/kRMnT8MgZt3g0CH7e7FoFt+Xuomg9hI1JKTTpU2rnLUZfxgYWR2aIImNWtQkhEAwI6B9MGkfosE8do/GRgS1BJOZBPW7iwngs8/eSe1bOUIEtXz1i5yPCZunrueJRhLUhUZ8Bz/HecnbsnqACGp5BuyOnAiqzT/CE40kqGc1LAw13/3B26IAEdTiHIgZ8TX8erAXTyKCmkNhSoAIahlmIqhlPMyMEUEto00EtYyHmTEiqGW0hy8qCH2HruOJRhLU57cXg4wpzvG2rB4gglqeATuzxIV6W0/wRCKoORThPoBu89B9nihIymbKnMUvH7/oR/ny5Uswf+5ssWpFCxi1gbWCpDVuUNQKauz6a8oZtW/Hjx2lrRqcrQk9ePAA4sWL51C2bbuOkJBp8GrXxB0KhpLwL/PfPHLEUIcSP/74I9So4UgqoklrJJFFwY3tOXPm9OvaoFsw1ADeu3evWLVCumrnAhZAE9edO3eWymKkT8gAiB49ukO6pwnIJ9y6dQtmTp/icIozruHnn392arkBXfP60w9sHDXpRWJa7RCS00hSawVd/KGrP1GaMH/RyZOnYOvSn4nJXoXRhPi5X87Cxg32Zz9WMGTIEAgJCXGoq2fPnjBqlDy3K1Wuqty/ous3hxPdJKDFluvXr8GCeXOkknqYmyeCWoLUfWT8uPFst0ZvUP1Lq9rUoZ25hJlGwB0dvghqarsjwZ3Vi+Q5mi1DiRolirMiUtpL9kNEQgj4ioD2YezsoeFr3UFxHhHU0mUkglqCw9QIEdQy3ERQy3iYGSOCWkabCGoZD7NjZOLbjjgR1HYsAhEiglpGnQhqGQ8zY0RQy2gTQS3jYWaMCGoZbSKoZTzMjBFBLaNNBLWMR7DFtL5sjRzfnTt3IGHChE6bQAIONWfNkNWrV7vkb5xpLxvVJzSzriUY1bYePXoEX3zxhRo1/BiaGwm0uIGWN8wQV6Qwtj1nzhxo0aKFGd1QfIKjaxZngn66M2bM6CxL9zTcqIAbOFxJ5cqVwdmmD1fl/UlHl3IpUqTwpwoggtpL+FB7GrWop7KdROgHyxN/1FgOy/si2NaokSOVdjw5H9tKlSo1I9CrchV/JNUfPHzATFbMg6dPn0jVoIZ3q1atyQy5hApFvEWACGo3iBFBLQFEBLUEh6kRIqhluImglvEwM0YEtYw2EdQyHmbHiKC2I04EtR2LQISIoJZRJ4JaxsPMGBHUMtpEUMt4mBkjglpGmwhqGQ8zY0RQy2gTQS3jEWyxDx8+KH6G0XSvUYI+ppHgTJYsWahNoE9sJG2NlPXr10OlSpVCbWLXrl2AJsDRjLJR4korVmwPNbqbN28OGzduFJN1DdeqVUvhoj7//PNQ60VXUD/88EOoZfzJ/OabbxTz2c40lsV6ly1bBvXq1ROTdA9PmTIF0LpAaHLx4kXFVcahQ4dCK+ZXHpoSd6bVrq1U60JGm+9vHP1O4/2bJk0af6sigtobBNGEQv3/n+z379+HWLFjK6cniJ/AgfjV1iuW1+Z5EvdEkxo1plFz2pVoyXTyj+0KKUr3FgEiqN0gRgS1BBAR1BIcpkaIoJbhJoJaxsPMGBHUMtpEUMt4mB0jgtqOOBHUdiwCESKCWkadCGoZDzNjRFDLaBNBLeNhZowIahltIqhlPMyMEUEto00EtYxHsMa2b9+uEJWhaWt6O3Y0Sd2wYUOvCMXLly8rpBySsjdu3PC2Safls2XLBmgiGk0oe2r6GC2G4hp47ty54cQJu4l7pw14mIjKg+hbGglFbzRwUeN74cKFsHnzZg9bcl+satWq0LhxY6hQoYL7wv9f4tSpUzBz5kxFk9njk9wURHPZtWvXho4dO7opac9G7fJJkyYpJtB//fVXe4YfIfTnjBsX2rdvzxVBPalu/vz5sJRZVEY+Ty9BAh43JhQpUsTjKtFkO2qYI4Gvl+DGkvr160OjRo30qpIIam+QbMd2ySDJq9WIVtNDq0sPMhgdwY8fNy60ZhR/1/jD5kzE81UNcGflKI0Q8BYBIqjdIEYEtQQQEdQSHKZGiKCW4SaCWsbDzBgR1DLaRFDLeJgdI4LajjgR1HYsAhEiglpGnQhqGQ8zY0RQy2gTQS3jYWaMCGoZbSKoZTzMjBFBLaNNBLWMhxVi//zzD7x588bnoaIfXme+nL2t8L///oNnz555exov/9VXXynjiBQpEk/zJYDmrx8+fOjLqfwc1FCOESMGj/sawH5gf3yVCBEi6GI6/MmTJwrh72s/kF/AOfLpp5/6WoVynrrp4N69ez7Xg9fFXz/W2DhqvKNFAl8F52mcOHF8PZ2f9/jxY7/uX7wmcePG5fXpGSAT3x6i+ZTdYAkSJFBKa31Knz17FvLmyRNqTUga/37pUqhl3GViH3CHDpr9diVa8lwth+fkzpVb0fTu0rUrDB8+XM2iIyHgNwJEULuBkAhqCSAiqCU4TI0QQS3DTQS1jIeZMSKoZbSJoJbxMDtGBLUdcSKo7VgEIkQEtYw6EdQyHmbGiKCW0SaCWsbDzBgR1DLaRFDLeJgZI4JaRpsIahmPYI6hueJ9+/bB9evX4e3btz4PFQnqxIkTQ758+aBcuXJe14Omtbdt2wa//fabXwQ1Nox+nLNnzw7oqzdmzJhe9wU1UlFzGMlHfwQJ6vTp00OZMmUgXbp0XleFZsfRP/OtW7f8JqjR1HrhwoW90tBVO4wayzt37oRLjPtCcthXQX4hfvz4kCtXLkA/y94KbqJALXvk6iZOnKho6ntbh1oe50WmTJngu+++U+atmu7pEftx9OhRuHv3rt8EdapUqaBYsWIKL+hp+2q5Y8eOwZ49ewB9RfuzwQQJavQVj/evNxr2aj9COxJBHRo6Qp5qHjtWrNhw/6/7Qs7HYJ7ceeCXX846pIsJaH4bzXD7I56Y+nbWTnl2M+G57syA+9M3Ote6CBBB7ebaE0EtAUQEtQSHqREiqGW4iaCW8TAzRgS1jDYR1DIeZseIoLYjTgS1HYtAhIigllEnglrGw8wYEdQy2kRQy3iYGSOCWkabCGoZDzNjRFDLaBNBLeMRjDE0D9y/f38wyp8umkCuW7euW+j++usv6Nmzp2LO2m1hHwr069cPBg8e7NGZqPDXt29fj8p6W6hOnTqKP+ckSZK4PXXt2rUwcOBAOH/+vNuy3hbImTMnDBo0CMqWLev2VCSk0WIv9scIGT9+PHTu3NmjqnGOjBo1yqOy3hZC8+ujR4/2SKN67ty5iilub9vwpDzyekOHDoU8bhRlsa4jR45ASEgI4H1shCBX2qRJE12qJoLaQxhVAtqVhvL4cePZDdk71NpcnRvqSU4y0eb8WuYP25Wgtvbx48e5j2y1b9p0V+dTOiHgLQJEULtBjAhqCSAiqCU4TI0QQS3DTQS1jIeZMSKoZbSJoJbxMDtGBLUdcSKo7VgEIkQEtYw6EdQyHmbGiKCW0SaCWsbDzBgR1DLaRFDLeJgZI4JaRpsIahmPYIvNmDED2rRpY/iwevXqBSNGjAi1He2ac6iFfcwsWbIkbNq0CSJHjuyyBtS23rBhg8t8vTLQz3VoMmTIEGXjQGhl9MgbO3YsdGVWeEMTM64N8mBLlixx2Q00b16lShXDNlKoDWfIkAHWrVsHadKkUZMcjh06dIApU6Y4pOudsGjRImjQoIHLatE3OfoSN1pw8wBuIvBXiKD2AEE0j50ubVql5FGmFp81a1aHs0QT4A6ZQsL9+/c5cSwkexXEttKmTaeY63Z1omrGew0jsuuzGxnFVd9d1UHphICnCGgfSO4epp7WGzTliKCWLiUR1BIcpkaIoJbhJoJaxsPMGBHUMtpEUMt4mB0jgtqOOBHUdiwCESKCWkadCGoZDzNjRFDLaBNBLeNhZowIahltIqhlPMyMEUEto00EtYxHMMVQG7ZatWqmDQm1Xnv06OHQHhKPRvm8dWiMJSDJ6UoTGElSNOttlvz5559OzUpPmzYN2rVrZ1Y3wNX6Ppr0RvPXZglulsCxOxPUKkYT1mYJ+pPW8iDYNmrio3azWYKWktHst1Z27NihmIzXphsVR217tLTgjxBB7QF6aKpg/Lhx4M6PdLu2bQHV20OT4cNHQJeuXUIr4lGeqhUdWmFsa+TIkQqRPZXdxKjBTUIIGIGA9ofZ1QPMiLbDRZ1EUEuXiQhqCQ5TI0RQy3ATQS3jYWaMCGoZbSKoZTzMjhFBbUecCGo7FoEIEUEto04EtYyHmTEiqGW0iaCW8TAzRgS1jDYR1DIeZsaIoJbRJoJaxiOYYilSpIAbN27wITVo2BiaNmsGRQoV4Gm+Bs7+ch4WLFwEE8ePkaq4c+eO4t9WTGzG2tTyLEuWrYAqlSvC51GjikW9Dt+9dx+Wr/gRunftJJ3rzOw4au9qtVWH/zAa6tWtDUm+Tiyd723k9evXsHHzVqhZvap0avPmzWH27NlS2r179xwwatO2AzRp2hhyfptdKutL5PDR4zB/3nyYO2emdLqzNX70IY7+wEVZvXo1VKxYESJGjCgmex1GX8lo7vzkyZPSuegHHX1ki4K8F2rhizJpyjSoVaM6xIsXV0z2OvzkyVNYu34DNGvSSDp3wIABinl1MfHEiRMO/qHTp88ASZIkDVUrX6wjtPCzZ88YCf+TQxFn1wY3DuAGAlVq1a4Lzdh8Klm8qJrk8/HXC7/BwkVLYMwo2erBlStXAP1k+ypEUHuAXIL4CRSSV9VKdnWKqK3sqow7ktvVec7SVb/SzvLENL1Mi4t1UpgQEBEgglpEw0mYCGoJFCKoJThMjRBBLcNNBLWMh5kxIqhltImglvEwO0YEtR1xIqjtWAQiRAS1jDoR1DIeZsaIoJbRJoJaxsPMGBHUMtpEUMt4mBkjglpGmwhqGY9giSEp2rJlSz6cVm3aw4xpk3lcr8CQYT9A/xC7q1StqWC0ZpssWTKpuUuXr0Ca1L6TYFJl/x9BcrhShe+kLC3ph/5+0ZWqKit+XM0IUH01zG/fuQtfJ06kNqEc0b90xowZeRpqqaJ5b1V69+0Pw4cOUqO6Hbt06wETxtk3EIwZMwa6devG6z98+DAUKCBvVnj8+DHEjh2bl9EjMHPmTEDfz6qULl0atm/frkaVo5aP2LV7L5QoVkQq42/kzNlzkD1bFqmaJ8y6caxYsXga+mJesGABj3/7bQ5IlMi/zQu8MiFw+vQpuHPnNk9ZuXIl1KxZk8eXL18u+XVv3KQZ23Qwh+frFRg5ehz0+t4+J1q0aAGzZs3yuXoiqN1AJ5LOvzPH70gwhyZoChx/REOTzVu2AJof8FdE0+Ou6iK/066QoXQ9EdA+ELQPcz3bCpd1EUEtXTYiqCU4TI0QQS3DTQS1jIeZMSKoZbSJoJbxMDtGBLUdcSKo7VgEIkQEtYw6EdQyHmbGiKCW0SaCWsbDzBgR1DLa/9fefcBNUZwPHH8oChYEOxoVUAgYUaryWoICCkSwgYKKFRUTe1ewxMaroEKiQaMoGhWjINiJiL0EkCKgRpAi/GPBDjEKgvr+91kye7v77u7t3e3de+/dbz4fuC2zM7PfnXvh3udmhgC116OQewSovdoEqL0epbLnX2d52UfLpUXz6FhItvfu/l2yjr7UUZgm+YOTf3tovJx0wvHmdKKvl11xpdwyotIp0x0Y/r//+z9PLOjscy+Qv9ye+5q7TmWujUlPPCVH9zvSOeKf+rxTp04yd+5c5/z69eulfv36zn5SG19//Y1ss83WTnHdunXzTKF91VVXyfDhw53zGjTW4HE+Up8+fWTKlClO0atXr5YtttjC3n/jjTeka9euzrnrbqj0fOnBOZHAxpi77pFzzjrTKenRRx+VgQMHOvvuvqwHDz889RydTAlsrLVG3L8wNTVy/eSTT/YExk844QTRWQBMetca8dz2N7ub3URf/fecSyyIAHWaR6NrDEy21nFu1669zJg5I01usaYCHy3DhqW+ARR0QZIjmuPUl1RAPOheOIaACiT5Q6kkRQlQex4rAWoPR0F3CFB7uQlQez0KuUeA2qtNgNrrUeg9AtQpcQLUKYua2CJA7VUnQO31KOQeAWqvNgFqr0ch9whQe7UJUHs9CrlHgNqrTYDa61Eqe61atZIlS5bYt6NTAz/691SwK+l7HHbVH+Wm4dc7xf7www+yyf+m7j7//PPl9ttvd859++0qa4RuasSqcyKBjSnPvyB9fpcKsE6cOFGOPvpou+QXXnjBE3x9bOKkatNxJ9AEuwgN8NWtW9cp7pRTTpH777/f2Xf/7v28Cy6uNk26kzGBjdNOP1PG3ZcaEesOPupa3U8++aRTi/ucczChjbvuukvOspbUNUlHsu+zzz72ro7YPfPMVND4zX/OkP337WKyJvr60fIVsmuL5k6Z7mm+dXr6nXZKjZbu0KGj7LzzLk7epDfefPN1+eabb+xiO3fu7JkKvWPHjvLOO+/Y5w477Ah5+unUc0q6Hf5ZED7//HNrWvXtsqqGAHUE22pruH7Tpk3tHBpU7tc//fQNOqpZ16JOl1auXCmNE5r6IN2o7SSnFU93X5wvTwH3P5IqkM9/nGqlMAFqz2MjQO3hKOgOAWovNwFqr0ch9whQe7UJUHs9Cr1HgDolToA6ZVETWwSoveoEqL0ehdwjQO3VJkDt9SjkHgFqrzYBaq9HIfcIUHu1CVB7PUplz/373SFnniV3/3VM3m7NP03wl19+aY3c3cauT9dgvu+++5y68/l75rdnz5Eue3d26tKpmnVkqqYnnnhC+vVLrQ/94suvSo9uBzp5k95w+x9zzDEyYcIEu4p169Z51jK++o/Xy/XXXp109U55F11yuYy+baSz7/bv2bOnTJs2LfCcczChDZ3Z2HxZQIt8+eWXRUd0axo9erRcdNFF9rb+lY8p4E3h//3+e2m0+eZm157yXKc+1/Thhx9Ka2tGZZMqKvbLOlBryoh6nTXrbfnss0+dLO5n4+4/unb8g39LfcHBuSChjb/c+Vc59+w/OKUtW7ZMWrRo4exnskGAOkIrzujkiMsjT1VW3iQXXnRhZJ64J1966SXR9aijUpL1RdXDufIUcP8AVAH3D8fyFPHdNQFqDwgBag9HQXcIUHu5CVB7PQq5R4Daq02A2utR6D0C1ClxAtQpi5rYIkDtVSdA7fUo5B4Baq82AWqvRyH3CFB7tQlQez0KuUeA2qtNgNrrUSp77t/vEqAmQG36tfv3/OUYoP5hzRrZbNNNDQcBakuCALXTHfK7UdGlQubPn5eXSpIe1WymIo9q7PQZM6R9+/ZRWTiHQFYC7v/AaAHuf7iyKrDULiJA7XmiBKg9HAXdIUDt5SZA7fUo5B4Baq82AWqvR6H3CFCnxAlQpyxqYosAtVedALXXo5B7BKi92gSovR6F3CNA7dUmQO31KOQeAWqvNgFqr0ep7Ll/v0uAmgC16dfu3/MToBYC1FbHIEBt3h15fJ03b57sW1Fh1/Cwtbh4/xjTe7ub03T7prJ69Sr3oWrbSQWM3W2tVonrQI8ePUTXoyYhkLRA9+7d5ZVXXnGKdf/D5Rws5w0C1J6nP/j6feT+h6fYx5o3by4fffSR53wuOxdffLGMGjXKKWLte82kwcbfO/vlvkGA2tsDDlywhTx3Z2pNFl3HZcstt/RmynLvkUceEf3ymEkHDe8rs7f+weyW/SsBam8XmLrxTjLwgbecgzo7jv7bmkR6//33pW3btk5Rd510kBz3U3I/d52Ca/EGAerUw9tq47Uy7/WhzoGRI0fKpZde6uznuuH+pdchh5wsi77jy7NuUwLUbg0Rd4D6+OOPl/HW5/Kk0v777y///Oc/neJWHd/M2WZDhAC1txect/tO8vcX37AP6jSOCxcu9GbIYe+cc86RMWNSU6h+sVMLqVOVQ4EldikBau8Dvf7+38ofb3rCOfi9Ne3opq5RXc6JLDbGjRsnp512mnPlO88dLO1bzXP2y32DALW3B0xpv52c/NxM5+Abb7whBxxwgLPPRu0UcP9fnQA1AWrTi92/5ydATYBa+wUBavPuyOOrriOt/zlr3LiJrPx8ZcY1DRs2TEa7giRBBei61mPuvDPoVOxjuk52r1697ZHeukb2ZGtu/qjEVN9ROpzLVmDAgAEyceJE53L3P1zOwXLeIEDtefqHXdBWnp3yqn1s7733lrfffttzPpedm266SfTnr0kfvbqvNN9xsdkt+1cC1N4u0HX6ZjLlb8/YB+vXry/r16/3Zshhb+rUqdK7d2+nhF5XHSlv7fQfZ7/cNwhQe3vA+Pot5OwHX3UO6pcP27Vr5+znsvH5559L06ZNnSJuOK67nFtnqbPPhggB6lQv2GnT/8g/X/6jc0A/D5166qnOfq4bu+yyi/z73/+2i+ne/WhZ8sP+uRZZUtcToE49zh/q1ZcdH0r9rDrvvPPkz3/+cypDjltHHHGEPP30004pBKgdCnuDALXXY9tPUl/s0gCMBmKSStdee61cd911TnELOrWWHVauc/bLfYMAtbcHnD9qP7n9rxt+dm222Wby3//+15shh72nnnpKjjzySKeE5x86THp1me7sl/sGAWpvD3i4445y4TOpL9j+61//kt13392bib1aJ0CAWoQ1qEVYg9r71mWKb6+H7hGgrm6S+BEzAvpCa7H1ysrKjMtfsWKFtHEtkB5WwMqVK6VxkyZhp9MeN4F0Mzra7IddqAH3RYsW5lRnWNkcL1+BoUOHys033+wALFm6THbbtYWzX/YbBKidLvDLL/WkXpvPnf3jjjtOdKRpUmnChAkycOBAp7in7z9cDts/NTrGOVGmGwSovQ++4xNV8vrUV+yDbdq0kQ8++MCbIYe9xYsXy69//WunhL5nHSmv7kWA2oAQoDYSG16vX9dSRj3+knPwu+++k80339zZz3WjifV/zdWrV9vFnHpYNxndaFmuRZbU9QSoU4/z11v8W158ITUTyWuvvSZdu3ZNZchxyz3rTru99pZvNz0+xxJL63IC1KnnOafhttJj3GzngAanNUidVLrI+pw/evRop7iFp7SRpuvWOPvlvkGAOtUD1m5SV3ZekvqyxMknn2z/8jqVI7ethx56SE466SSnkEm9O0nXd79x9st9gwC1twf0OW8PmfL8a/ZB/TKjfqkxqfTuu+/KXnvt5RQ3+sZ+csGA1539ct8gQO3tATe020Vun7KhL+qZtWvXSoMGDbyZ2Kt1AgSoCVBrpyVA7X3rEqD2eugeAerqJoke0ZECGujVtHDRItH1orNJffv0EZ2iMSrlMqLZtFPbN3PmTDvorCOqW7duEzm9uI60TnJ6tKj741x5CEyyRu4fffTRzs3eO+4BOe3Uk539st8gQO10gRdm7Su9Bm0YsaoHb731VnvtDidDjhtLly6Vli1bOqVcfsERcvNZqW/1OifKdIMAderB77amvsy/8AXnwIknnigPPvigs5/ExnbbbSdffvmlXdRBv+shs4+oSqLYkiiDALX3MR6+dFt5feaGQMyee+4pCxYs8GbIce+QQw6RF1980S5l6623lkW9G0n9KvqjYSVAbSREWm02w/r88phzIOkvS1x22WVyyy23OOV36Xa9fLamkbNf7hsEqFM9YIzsJlc+8rJz4M033xSdljup5F+KY9zJXaXf+hVJFV/ryyFAnXqEL7XbRo6dMss5cMcdd4hOy51U0lGHe+yxh1Pc0L5d5aJ3Nsw04Rws4w0C1KmHv/zTX0uLg1JfvtbpuO+9995UhgS2GjVq5IzKPn5ALxl/45wESi2NIghQe59jn20aydvzN3xm6dChg8ydO9ebgb1aKUCAmgC1dlwC1N63LwFqr4fuEaCubpLoERNYbteuvcyYOSPrsk0AOaoADS5rEDzTpN+S7G1N7b3aWuda15XWEdQmabDwBNe6l+a4+zWbdbXd17ONgFtglfXFCPe6rf2PHiCPT0z9ctOdtyy3CVA7j/3sW/aVO8emAtTz58/3fEvbyZjDhgZ33nvvPbuE7bffXpZObSSbbboqhxJL51IC1KlneeD7jeW5O1Lrt2lwWoPUSaYTTjjB84WwA2/qK3O2ZB1qNSZAneppLzb4lRx9f+qXjRdffLH95Z1Ujty3dB3hyy+/3CnonpMOlAE/LXf2y32DAPWGHuBff1o/X5gvNiTVR6ZNmya6bplJh/Q8XRb9JxWYMcfL9ZUAderJH7lsO3l1xoag4DbbbON84SuVI7etL774QvT/iSYd2/sg+etWH5ndsn8lQJ3qAle03UXum5oaJagz7ujMO0kmnXVHZ9/R1Mqaiey1X+rIRuv5Ipl6EKBWhQ1pxPiucsV1k82uPProo57Zw5wTOWz016UDJ6fqePf5btJ213dzKLF0LiVAnXqWL1pf3DnO9cUd/ZzhnlUxlZOt2iZAgJoAtfZZAtTedy4Baq+H7hGgrm6S2BEd8awBak25jG7W63U0s3vNPz0WlHQdal2POm5yrzsdNgX5ICtAHbUetXvUddx6yYdAlIBOq6zTK5v06ITHZeAx/c1ueb8SoLaf/5sL9pbfHv0Ppy9UVFTI9OnJr2k1fPhwueqqq5x6hl91lAw7Kbl14pyCa+EGAeoND23ntfVk9cj35dNPP7UP6PptX331lTRs2DDRp/rMM8/I4Ycf7pTZa8Ch8lb3tc5+OW8QoE49/cFf7iKTp6V+RumsOPvss08qQwJby5cvlxYtWjglddt3H5m86+dSh9992yYEqDd0jdaN5su0aQ84/eSee+6RM844w9lPamO33XaTZcuWOcV1PuhG+WLtZs5+OW8QoN7w9P9Wr4Wc/9CrTlc499xz5fbbb3f2k9o46qij5Mknn3SK+/spB8jv1jFyVUEIUG/oFm+13UqOnJoaQXrggQfKq6++uuFkgn9fc801csMNNzglDj/stzJk7sfOfjlvEKDe8PQ/+aKFtO3zoaz635ItW221lf35xR1MSqKf+JfMOufMw+SOi5P/zJ5EWwtdBgHqlPgZrXaUJ19NzVQ3Z84c6dixYyoDW7VWwP0zZciZZ8ndfx2Tt3sZccsoueKyi53ydfY5/VKiptNPP13uu+8+51xVHmf/env2HOmyd2enLtagJkDtdIb/bRCg9osQoK4ukuARd2DXPzI5m2oqulTI/PnRa8JkOorarDMdtZ50nKm+w4Lb2dwn1yCgaxQedNBBHoilyz6SXVs09xwryx0C1LL2x82k/yXNZMrU1BpWut6ajjBNOn399dey8847y5o1qXUEX/x7X+nRKfsZMZJuY02VR4B6g/wBr28izz/ynPMYrrjiCrnpppuc/SQ3NNA4a9aGEWBabp+Lj5LXWm1YCzjJempbWQSoNzyxv1hT2F7lmsK2j/UlyWeffTYvj/PUU0/1rJl5+YAeMrT+krzUVdsKJUAt0nKLlfLyCyOcR6efT/SLDflIo0aN8izvcVC3o2TZmq75qKrWlUmAWmRBg62l6/3eaUJ1CuTdd9898efpH9GvFXxw8u6yw3pmOyFALfJdo3pyphUEnPbPt52+p8G7Y445xtlPauOzzz6zP7/8/PPPTpHP9OooFe996+yX6wYB6g1PfkhlFxn7QOrzi36p4brrrstLt2jbtq28//77TtkP3nGUnNgr9WVK50SZbRCg3vDA7+q4k1zzTKo/6Beyn3rqqTLrDaV7uwSoGUGtvZsR1N73OAFqr4fuMYK6ukkiR9yjp7XAXNafNg0y04Wb/bDXuKO1R48aLcOGDbWLSXeNO29YvdNnzJD27duHneY4AhkJnHzyydXWcF258nNr+rztMiqn5DKXeYC6qqqOnD58Hxn3YOoDdT6mDXX3mxEjRogGHd3p7ad6yt67e3/h6T5fDtsEqEUOmtNInh2b+gC94447yiJrqY3NN988L13AP4paK+lz+hHyWufv8lJfbSmUALXI5T/sJnc/mVpfVZ/dDOv/ZV26dMnLY1y6dKk9JelPP/3klM+Uthsoyj1A3Xzzr+X1F290+oVu6IiFTGZ48lwcY6ddu3aetdYPPuRE+fA7Rt6Ue4B6aYMtpNP93qlk87HsgbuLHnfccfY0ue5jy09qJU1+Wuc+VHbb5R6gXr9xHbms5U7y8LTUl2t/97vfyZQpU/LWF3QEtQYd3emVbntK2w//6z5UdtsEqEWu/OsBUjkqNdtD8+bN7c8vG2+8cV76w2OPPSbHHnusp+xKa1ayoWU+KxkBaqsv7rmL3PN8askD7ST5mP3J0/nYKagAAWoC1NrhCFB733YEqL0eukeAurpJzkfcazqbwvSXMjr9drZJRzHrLxlXrFgRq4h0wWJ/wDndOtL+gHtQI3JdZzuoTI6Vr8A333wjnTt3lo8+8q7f9sZb0+WA/SrKF6aMA9QfrviNXP3XhjJh0gvO82/QoIE9olTXis5n6t27t0ydOtVTxeNjj5T+B77pOVZOO+UcoN56fV35zcyG8o+HvaNTJ06cKEcffXReu8EFF1wgf/7znz119DnfGkm9e/mOpC73APXtVbvJNX/3Bqf1F9Pu5Qk8HSahnbvuukvOOussT2mMpBYp5wD1rxt/LC9Ovc3TJ3RGqYcffthzLOmdV155Rbp37+4ptnuPAfLFuo7yn/UNPMfLaaecA9SvNthRjrzfO42sfq5wz0KSj76wcuVK+/PLJ5984in+1VM7Sfsfv/IcK6edcg5QL9xtMxlVt7E84Zq+tlGjRjJ79mzRtaLzmfRLvC+/7P3/wfhD95Ge87/MZ7VFXXY5B6i//U9TufruFjJm7DOeZ6SjVd3LCHlOJrQzZMgQGTt2rKe0e0f1k9P6pr604TlZBjvlHqD2j5zWR16Izy9l0LWK6hYJUBOg1g5JgNr7tiRA7fXQPQLU1U2yPqJB3HHjxoWu16zTaPc4uId07tRZ9mq3l+gHhqikQWRNL730ovUBZo6sXr0qKnu1cxoU72R9EDcjFjS4PXnSZLn77r9WC3Rr2wafNli23WZbufCiC52y9H5Wr1odeI2TybWhQerhlcPT3pvrEjYRCBV488035be//W2181defa2cMOh4adO6VbVzJX+gDAPUn33ZXB6curNccf0T1R5vIQKCWukXX3xh//LbPT2ZHj/7jMPk5L4/luVo6nIMUDf6ua50XNZIlk9bLO8veE+7gJN0Wm//SHvnZMIbRx55ZLWpz7of3lM26rCJvLVD+Y2mLtcA9XMb7yyPrqiSZ15JrdmmXU3/3+deY6oGwnsAAEAASURBVCvh7ucp7pJLLpHbbvMGJA/ev4sc17KB9F8f70uVngJLYKccA9TNNv9WNvrlAysQMtHzBPX/cBo8rlevnud4Pnbuvvtu+f3vf+8pumnTHWTPdkfL8u93kR9/qu85Vw475Rigfq/BVjLpu61k9OMvVXvE+Zra219R0BcmNM9Vx/aQoxt+Ls3Xld+/0+UYoP7kVxvLk9tvL9c+Uz0AV4iAoPa5jz/+2P69zIcffqi7TjrrdwdKv3XfSruF5dcXyzFA/f0PTeShF/aSvzzwL3n/XwudfqAbt956q2eZDM/JhHd69uwpuhSCO51ywqFyyuEiB7ZPTX3vPl/K2+UaoH6h3bYy4fv68tRr//Q8Xl0+SH//TCotAQLUBKi1RxOg9r6vCVB7PXSPAHV1k6yP+EclRxWUbkptvXaThg2jioh1ToPguv61pjijoDXfmrVr9cVOcacVN/n1Nc69ufOzjUCUgPZbXZvr22+rr5nVr9/R8pu2e8pOO/1KlllrVO+5Z9uoomrkXFVVVaL11v3eGrG7/tP0Zdapkz5PkeVwU639UeRTa6DJB0t+kEcnekcum2bna902U37Qa8eOHeWdd96pdqrXIb+V9r/ZSprtWE8ab/5LtfOFPRD87JPui++uriML/hPjznzN8e3GKKAGsrjetnX0cX5fJeu/+FHenPKa/PBD9bUkR44cKZdeemlBG9q/f3+ZPHlytTrbd+ogO+y+k9Tdur5UbVLtdFEccL/Xk2jQzuvXSZevv5Na0bcyvGFXV5RfrDv8en09WW51wVfeWyGLliytVpoG6HRkcyFTUJBa6/+VNeX9oXu3kRabiWy70c9ST9x3U8gWhteVjxY98ll+plUPv4s8nfG/oXxv3Lryo1RVrba+yLrcGpVaPQDTq1cv0S+R6UjBQqUxY8bIOeecE1hdt279pP5G20lVnc2sdtcNzFNqB/tt/440rLuupH82vvf9RtJ8k5/l0x/ryXtfrJHnXvX+wts80/nz58tee+1ldvP++vzzz9ufX/773+rTKfc/pKvsvvVG0tT6ubhp3Zr+P2MwRdI/G6v+85NUrS/Oew0WiH/UbbW2Tl35vKq+fPjDLzLx5eBZlp588kk54ogj4leQY04NTuvsPu+++261knofUCFtGzeQX9X9SRpVpdarrpaxBg+4fZNoxkatGkl9a1R72lTLP0uvWy/y+dciHy7/UR6Z8KKsW1d9mYHRo0eLzsxUyKRT2+vPR3/q0W0/6bTXttLiV/VkmybW/3j9/wfxXxC07/t/SlCWmj3mvamfPl0rP86q/juumm1j8rX/ZD3Mb+vUl+U/15O3Vnwp77z/r2qV6Ah7/aIhqfQECFAToNZeTYDa+94mQO310L0kA9TWh30SAgggkLyANeKhqmvXrvr5lD8YVLVt27bq9ddfT76jxSjx+++/r7KmK6Uf0g/tPrDllltWjR8/PkbPyU8Wa8Q2fZG+6PQBaxR/fjpajFKtwGBV3bp1nbbw73V5/3/Fmvo9Rq/JT5ZnnnmmapdddqEv8rPR7gOHHXZYfjpajFKtoHjVfvvtR1+kL9p9oEOHDlUzZsyI0XOSz7Jq1aqqgQMH0hfpi3Yf2HbbbausdaGT72gxSzz33HPpi/RFpw/ceOONMXsO2WqjgPsz4ZAz8/v54OaRtzn9Suv98ssvHbLTTjvNc845kYeNmbNme+p64IEHnFqsAQaecy++/KpzLh8bbn9r4JdTxY8//uhpx9V/vN45l4+NCy++zFOfu45DDjkk9Jw7XxLbjz/+uKcuaxkUp9hRo0Z5zi36cLFzLumN73/4wVPXxRdf7FSxaNEiz7mKiv2qDj/8yLz92WGHHT31OQ2xNtz958STTnGfSnz7jjF3eepbtmxZ1nUQoM6ajgsRQCCOwJ/+9KeqnXbayfNDy/0Dk+3S/oV4kyZNqq677ro4XSXvefRDvTWamr5Yxh+uzz777Cprrcm897V0Fbz22mtV1hrp9MUy7ovWyKgqa2aHdF0l7+etUVpVJ510En2xjPuiNaV31XPPPZf3vpauAmvUapU1q0XVRhttRH8s0/7Ypk2bKmupg3RdpSDnrWUQqnbYYQf6Ypn2xa233rpq+PDhBelr6SrRL1W2a9eOvlimfVF/V3LeeedVffXVV+m6St7P/+Mf/2AAQhn3Q+2L1kwSVbNmzcp7X6OCmhVw/4423wHqm0bc6vn3zX3nhQxQz3g7foB62kuvuJuZ+Lbb3x2g1orc5666Jr+/Z73goks99blvtJABamt2L087rGV5nKZYs4p4zhUyQG3NSOe0Qzfcz6ZYAtQnnHiyp41J79z+lzs9951L+XX0YguRhAACCORVwAoOijVCRt544w35v//7v7zWReE1K2D9Qk+s0SfSp08fsUYuy8Ybb1yzDfLV/sILL8gTTzwhVpBQPvjgA99ZdktJwPqChHTp0kV02tpjjz1WtG8WU7I+4MukSZPs5Tzmzp0rv/xSmlNpFpN5TbWlQYMG0rlzZzn44IPtKWT32GOPmmpKYL1Lly4V/Xdafz5qvwyaFj/wQg7WSgEr2CHdunWTfv36ia45XUzJGjUojzzyiFi/CJfp06fL119b852SSlagVatWYs24JIcffrj9p9huVPvis88+K2+++ab8+9//Lrbm0Z4EBX71q1/Zn1/69u1rf36pV69egqXnXpT+TNSpxvXzizVSJ/cCKaFoBazZnuzPLzq1tn5+2W677YqqrdasaGKNaBNrFJu8//77RdU2GpOsgE71rJ9frGCU/fmlffv2yVZAaUUpoMurmCUm+vQ9XJ595qm8tfO88y+SO24f7ZSvvw8xU4xbM8/JiBEjnHNLli6T3XZt4ewnufH3xybK8ccOcIrU//vp7zM16e+w9f+qJt1z7/1yxmmnmN1EX7/88ivrZ/62TpnWDFeiyyGZZGx0f/BpQ+S+e/M3zf7AY4+XCY/93a66WbNmsnz5cntb/zr++OPl73/fcE73169fL/Xr19fNxJM145wMGzbMKXfBggXWUqF72vsPPfSQWF+2d84994+pcmjvns5+khtz35kvnTqmfgZqu7SPatLPq9tss41T3R57tJXddmvp7Ce98fTTTzpF6md5/XfZpP3331/++c8Nyyd169bD+rf6RXMq8dfLh14lI28e7pS7evVq2WKLLZz9TDYIUGeiRV4EEEhEQH/5+Omnn5bVL8Dd/5FIBLEIC9lkk02kadOmstVWWxVh64KbtGbNGvsXjr/+9a9l9uzZwZlK8Gip90f9UoQ1FZ7dH2vL49PvC+p/+r/99tuyClSXel/UX3BbI7Fk5513ri1d0W7nxx9/LNZoHfnpp59qVbtzaWyp98VOnTqJNe2WWFNp5+0XCLn4h137+eefyxdffCHWtHZhWUrueKn3RX1gus65BgQ32yzGurJF8oT13+fPPvuMzy9F8jySakZt/PyiXyLTf6fL6fNLOfxc1M8vGozefvvtk+reeS9H+6J+ftHf7xTLF23Loa8k+WCDvMznlxYtWkixfVknyXunrGCBwYMHy/333++c/PMdd8p55/zB2U9qY9acubJP505OcTqwwFpWw9m3Rs7KgAGpoPHwm0bKsCsudc4nuXHSyafKQw8+4BT5ySefyI477mjvW7M82f9vdU5aG/ka6zn6z3+Riy4416nKmllI9HmY1LNnT5k2bZrZlWenPC99ftfL2U9q428PjZdTTjrBKc6a/U30eZhkTa0t1hTXZtf+MpU7YO2cSGDD/zPKbf/ee+85wWqt6vdnnSN3jbkjgVqrF3Hl1ddK5Y3XOSemTp0q+jxMat26tViz05ldOfTQvnn5zL1ixXKZP3+eU8+FF14o+jxMOv/88+X22283u3LD8JvlqmGXO/tJbSz7aLnnCyM6AEOfR7aJAHW2clyHAAIIIIAAAggggAACCCCAAAIIIIAAAggggAACCJSAgD8o+P4HC+U3bVondmffWUHfs88+1xMUdgcetSL9orS19I+nzscmTpIBR/fzHMt1p/LmW+TKoZc5xRx66KFiLX/k7OuGBsrdAVpr/We5/tqrPXly3XnqmefkyMP7eor55ptvRGfVcCf3s+l/9AAZ85c7rC82JTfThgYezz3nXJky5VmnWv+z0S8m6RdY3ElnYtPZFpJMZ555ptxzzz1OkaeffrqMHTvW2dcNt4fua5D/gvPO1s3E0gMPPiynnnyipzy/iZ50t6VZs+ay117tPMc8BWSxs2btWpn2wvOeK9O1QzPPmTtPOnZo57kul51169bJWWef5xnBH9SOTOogQJ2JFnkRQAABBBBAAAEEEEAAAQQQQAABBBBAAAEEEEAAgRIT6N27t+gIUXfSEcx7791ZdOaRbJMGnRcseFfOP/esakUEBbh0im8zjbK54PwLL5GDDjrQM6WyOZfJqwZZdfmMRx5+0HPZ22+/bd3n3tWO6Qhvfxr3wEPWVM67WkFI/5n4+9988601RfMbMurW1HTmevXIkSPl0kurjxjXqfbnz5/vqeDWUX+W9u3bWcsregP6nkxpdtau/VHmWKPah15+iSenf2S7OekfqavHdUpyXZ7CH1Q318R51dk4dPmIP/yh+qh9nT1GZ2ByJ10yT0d4u9Mpg0+3l/nbaaed3Icz2tbR0I0bN5aXX3pZ7hyTGpGshejU4ieckBphrsd0pqWg2UT32afCHoHvDl5r/kzSzz//bM1u96U19f4Cz2XWOu1y7733eo7pjnqoiztde/1wa/mQfazZqzZ1H85o+6effrafzblnV382Qe/fTAonQJ2JFnkRQAABBBBAAAEEEEAAAQQQQAABBBBAAAEEEEAAgRITWLx4sb2MRKFuK2r07VFHHSVPPplaczefbbr++uvl6quDR0bfcsstctllqZHW+WyHrn+t62AHpbfeeksOOOCAoFN5OeZe89ldgQYkdb3j6dOnuw/nbfvuu++WIUOGBJav01z/6U9/CjyX9MFTTjnFMwW+u/zHH39cjjnmGPehvG7rUli6NIg/6ZKq/kC+P0+S+08//bQcdthhORVJgDonPi5GAAEEEEAAAQQQQAABBBBAAAEEEEAAAQQQQAABBGq/wNy5c+XEE0+Uf/3rX3m9mcmTJ4sGoaPScccdJ48++mhUlpzPXXPNNXLddak1hoMKDBrRHZQvl2NHHnmk6HrODRs2DC1G16F2r38cmjGHE7vttpv87W9/s4PQYcV89dVXcvzxx3vWxQ7Lm8txXVP53HNTa3MHlXXJJZfIbbfdFnQqsWO6HriuCx6VHnnkERk0aFBUlpzP6Qj/hx9+OPJLJAsXLrRHec+ZMyfn+qIK0PflwIEDo7LEOkeAOhYTmRBAAAEEEEAAAQQQQAABBBBAAAEEEEAAAQQQQACB0hbQqYU1aHvDDTckfqM6hfOVV14Ze6SnBkt19GrSSdecvvjii6V79+6xitYRwzqa+oknnoiVP5NMut7yGWecEeuSr7/+WoYPHy6jR4+OlT+TTDqtuo4k33TTeNNBawBZp/xOOuna35dffrl07NgxVtFTpkyRUaNGyUsvvRQrfyaZ9EsDxx57bKxLli5dKjfffHPg9NuxCojIVFlZKUOHDo3I4T2l+fV9lnTSfqrt8K9Fnm09BKizleM6BBBAAAEEEEAAAQQQQAABBBBAAAEEEEAAAQQQQKBEBWbPni26bvP69euzvsO6devaAel9991X6tWrl1U5S5YssUd1f//991ldrxfpiGxdY7tDhw6BUyTHKVjXHNZR5jqKOJf1dzfbbDNp3bp15GjYdO2ZMWOG6PrMusZ3tmmjjTaSXXbZpdr625mUp2tH6/Twa9asyeQyT15dq1mnre7UqZO9BrTnZMydTz75xFrrfIG9HrYGlrNNjRo1kj322CPrIOy6detk5syZ8tlnn4murZ1tatCggey6667Srl27bIuQefPmybJly0TblG3S9++OO+5orWXdRbS/JJkIUCepSVkIIIAAAggggAACCCCAAAIIIIAAAggggAACCCCAAAIIIIAAAqECBKhDaTiBAAIIIIAAAggggAACCCCAAAIIIIAAAggggAACCCCAAAIIIJCkAAHqJDUpCwEEEEAAAQQQQAABBBBAAAEEEEAAAQQQQAABBBBAAAEEEEAgVIAAdSgNJxBAAAEEEEAAAQQQQAABBBBAAAEEEEAAAQQQQAABBBBAAAEEkhQgQJ2kJmUhgAACCCCAAAIIIIAAAggggAACCCCAAAIIIIAAAggggAACCIQKEKAOpeEEAggggAACCCCAAAIIIIAAAggggAACCCCAAAIIIIAAAggggECSAgSok9SkLAQQQAABBBBAAAEEEEAAAQQQQAABBBBAAAEEEEAAAQQQQACBUAEC1KE0nEAAAQQQQAABBBBAAAEEEEAAAQQQQAABBBBAAAEEEEAAAQQQSFKAAHWSmpSFAAIIIIAAAggggAACCCCAAAIIIIAAAggggAACCCCAAAIIIBAqQIA6lIYTCCCAAAIIIIAAAggggAACCCCAAAIIIIAAAggggAACCCCAAAJJChCgTlKTshBAAAEEEEAAAQQQQAABBBBAAAEEEEAAAQQQQAABBBBAAAEEQgUIUIfScAIBBBBAAAEEEEAAAQQQQAABBBBAAAEEEEAAAQQQQAABBBBAIEkBAtRJalIWAggggAACCCCAAAIIIIAAAggggAACCCCAAAIIIIAAAggggECoAAHqUBpOIIAAAggggAACCCCAAAIIIIAAAggggAACCCCAAAIIIIAAAggkKUCAOklNykIAAQQQQAABBBBAAAEEEEAAAQQQQAABBBBAAAEEEEAAAQQQCBUgQB1KwwkEEEAAAQQQQAABBBBAAAEEEEAAAQQQQAABBBBAAAEEEEAAgSQFCFAnqUlZCCCAAAIIIIAAAggggAACCCCAAAIIIIAAAggggAACCCCAAAKhAgSoQ2k4gQACCCCAAAIIIIAAAggggAACCCCAAAIIIIAAAggggAACCCCQpAAB6iQ1KQsBBBBAAAEEEEAAAQQQQAABBBBAAAEEEEAAAQQQQAABBBBAIFSAAHUoDScQQAABBBBAAAEEEEAAAQQQQAABBBBAAAEEEEAAAQQQQAABBJIUIECdpCZlIYAAAggggAACCCCAAAIIIIAAAggggAACCCCAAAIIIIBAWQisWLFCmjVrlvO9rl61Sho3aZJzObWlAALUteVJ0U4EEEAAAQQQQAABBBBAAAEEEEAAAQQQQAABBBBAAAEEECgKgXHjxsnZZ50lY+68UwYPHpx1m7SMOXPmytSpz5dNkJoAddbdhQsRQAABBBBAAAEEEEAAAQQQQAABBBBAAAEEEEAAAQQQQKDcBHTkdJvWrZ3bzjZIrcFpDXRr6te/v4wfP94ps5Q3CFCX8tPl3hBAAAEEEEAAAQQQQAABBBBAAAEEEEAAAQQQQACBMhYwo1wrK2+SCy+6sIwluPWkBUzfMuVmGqR2B6fbtWvPCGoDySsCCCCAAAIIIIAAAggggAACCCCAAAIIIIAAAggggAACtVWgokuFzJ8/z14neOGiRbX1Nmh3ggI6+nn27NnWtNpzRLfnWNszZ850ptfW9aDHjbtf7r77r/Z5DR4/NuGxwLWmsw1SZxKcTrK9CTLmVBQjqHPi42IEEEAAAQQQQAABBBBAAAEEEEAAAQQQQAABBBBAAIFiFJg3b57sW1HhNC3TEa7OhWzEFnjppZekb58+sfNHZWzWrJm0bNnSDhx37tRZunXvJu3bt4+6JPKctm3Q8YNk9epVnnwagJ4xc4Z9TPvMsQMH2oFpdyZ3Hvdx3c40SB03OJ2v9vrbXxP7BKhrQp06EUAAAQQQQAABBBBAAAEEEEAAAQQQQAABBBBAAAEE8irgDgRqRT169JBnn3sur3WWe+FJBqiDLDVofeaZv5fBg091RjwH5Qs7pqORlyxZ4gmim+nfTUC4x8E9rPIH24HnyZMmOUWtWbvW2fZvxA1Su/tknGm989Vef/sLvU+AutDi1IcAAggggAACCCCAAAIIIIAAAggggAACCCCAAAIIIJBXAZ2muXXrNtVGy+o03xrkJOVHwB2g9n8ZYMH8BTJs2FC7Yv+5oNZo/iVLFtuBYv95fYY6Il6/dJBN2qRhQ+cyM/V7l326yOWXX+6sVe4OOjdu3ERWfr7SuSZow51fz/tH7GcanHbXkY/2ussv9DYB6kKLUx8CCCCAAAIIIIAAAggggAACCCCAAAIIIIAAAggggEBeBfzBQlOZjozVwCEpPwLuALV/xHHUuajWmOCsPjctwz2q2R8EjirHnHO3QwPduv50ly5dpF///lJZWWmyWcH0YTJ61Ch7P+7oe3+/M+3LJTidz/Y6N1vgDQLUBQanOgQQQAABBBBAAAEEEEAAAQQQQAABBBBAAAEEEEAAgfwKVHSpkPnz51WrREfCLlq0MKvpoasVxoFqAu5gatIBah11rYHiSda022efdbYzOn76jBkZrU3tDjxfeNFF9nrTOuLeP6pb19LW+9FkpgGvdsMBB/xBam2zKSfOtN7+IvPdXn99hdgnQF0IZepAAAEEEEAAAQQQQAABBBBAAAEEEEAAAQQQQAABBBAoiMC8efNk34qK0LoyCTaGFsKJQIFCBKi1Yn3GvXv1toPUGvSdMXNGYHuCDrq/vKAj6rXNOoq6cZMmnuxNt2/qBMEznRreH6TWgrMJTut1hWiv1lPIRIC6kNrUhQACCCCAAAIIIIAAAggggAACCCCAAAIIIIAAAgggkFcB93TKQRXptM5m3eGg8xzLXqBQAWpt4ehRoz1rWsdZj1pHSjdt2tS5QR1RP/6R8dXWsnbfR7b9xT0CWyvM5osRhWyvg1KADQLUBUCmCgQQQAABBBBAAAEEEEAAAQQQQAABBBBAAAEEEEAAgfwLaECvdes2zsjXsBrNdNFh54vx+IoVK2TJkiWyYP6CnJvXuElj0dHDSSd3YDdfU3y729ymdWt7im6dqtu9frQ7j3vbP7I5bE1y97TaYXnc5fq3w74kYdak9ucP2y9Ue8Pqz9dxAtT5kqVcBBBAAAEEEEAAAQQQQAABBBBAAAEEEEAAAQQQQACBggr4A3phlffr31/Gjx8fdrpojmvAfdy4++Wxxx4LXFM724bqaGP/msvZluW+rtABahNIjns/gwYNksnWGtaaotYjd0+rnemXGdzBaZ3We+DAgc5Ib603kyB1IdqrbSp0IkBdaHHqQwABBBBAAAEEEEAAAQQQQAABBBBAAAEEEEAAAQQQyIuACSxq8HH16lWRdWS6rnBkYQmfNIHpESNGpL2PbKqOG9DNtOxCB6gnWcHmE6ygsyb/iO2gtrvXlQ4bde2fVnvlypXV1qcOKluP+YPTU6c+b1/r/+JE3CB1vtsbdh/5Pk6AOt/ClI8AAggggAACCCCAAAIIIIAAAggggAACCCCAAAIIIJB3gXnz5sm+FRX2yNjKmyrtYGFUpdmsCRxVXlLn9D5+f+bvEx0x7W9bqQSoowLi/ns2/cMcD/uCgjvonYlTWHDa1JdpkDrf7TXtqolXAtQ1oU6dCCCAAAIIIIAAAggggAACCCCAAAIIIIAAAggggAACiQqYAKEZGWvWJw6rREdZr/x8ZdjpGjmuQcnevXoHjprWtZC7W1Nzd+7cWZo1a1Yj7UtXaVTAOOpcVLmbNGxonw6aajuTMkePGu1Mta1Tb8+YOSOwWve02u4vMejxO8eMCRxNbfqeFqhlm5HT/goyCVIn0d5incaeALW/Z7CPAAIIIIAAAggggAACCCCAAAIIIIAAAggggAACCCBQqwR0WubWrdvYgd3pM2ZI+/btxR3gC7uZuFMth12f5PGw4LQGpisrKwMDo0nWn0RZUQHjqHNRdUcFqM0z1oC9joiOSn379BFtgyZ34Nl/jXtabdOXNACtSfuLP8UNTpvr4gap89Ve046afCVAXZP61I0AAggggAACCCCAAAIIIIAAAggggAACCCCAAAIIIJCzgAn6uUfGrlixQnQUdVRy54/Kl+9zGmDv0qWLaJtN0hHeY+4cI/379zeHiv41KggddS7qxqIC1Ga0cz/LKGq0sH9d6bDpvf35dP3pYcOG2c9FR3D7U6bBaXO96a9m3/9FCX87kmqvqa+mXwlQ1/QToH4EEEAAAQQQQAABBBBAAAEEEEAAAQQQQAABBBBAAIGcBCq6VNhrNvtHxpoAZlThZpRsVJ58n9Mg6OhRo5xqNDj9/NTn7ZHgzsFasBEVhI46F3VrYQFq9xcQ/AFef3nudaWjRlv7A8NaTtiU3dkGp03booLU+WivqbcYXglQF8NToA0IIIAAAggggAACCCCAAAIIIIAAAggggAACCCCAAAJZCejU2PtWVNjX6ojXxk2aOOW4A33OQd+GTqEdNHWzL1vedt2BVlNJ0HrL5lwxv0YFoaPORd1TWIDafPlAg/mLFi30PHd/ee5gslmj3J/H7GvgeNjQYfbu4NMGy+WXXVatbH1mXfbpYk8pHxbANuVFvbqD1O5+mHR7o9pQE+cIUNeEOnUigAACCCCAAAIIIIAAAggggAACCCCAAAIIIIAAAggkImCCeWHTPOs03+6ps4Mq9Qe2g/Lk65hpvyk/XQDV5CvG16ggdNS5qHsJClC7zfyj5qPKSvKcfjHiqiuvtKcWd38pItM6NEg9Z/bsGv2SRKZtzjU/AepcBbkeAQQQQAABBBBAAAEEEEAAAQQQQAABBBBAAAEEEECgRgR0SubWrdvYI1kfHj8+cL3m0aNGW+sID41sX00FObVRTbdvardft+OMBtZ8xZqigtBR56Luxx2g7typk70mtAZ1NblHHUeVwbniEiBAXVzPg9YggAACCCCAAAIIIIAAAggggAACCCCAAAIIIIAAAgjEFDBTJGtgd+XnKwOvClpX2J8xal1if94k991BWy23No+e1va772fN2rV6yElR55xMvg33NRqM1n0zGl73Kysrq02/7SuC3SIUIEBdhA+FJiGAAAIIIIAAAggggAACCCCAAAIIIIAAAggggAACCKQXqOhSIfPnz0sb2HVPCR1WatgI7LD8SRz3j+6ePmOGtG/fPomia6QMd0A5KkCdS+P0ywTDrcB0//79cymGa2tQgAB1DeJTNQIIIIAAAggggAACCCCAAAIIIIAAAggggAACCCCAQHYCugbwvhUV9sULFy0SDVyGJXfgNCxPjx495Nnnngs7nZfjgwYNksmTJjll61TjhUiNmzS2p8dOui63c9IBan2+jz72WK0O4CftXVvLI0BdW58c7UYAAQQQQAABBBBAAAEEEEAAAQQQQAABBBBAAAEEyljAjIpu1669zJg5I61Em9atnemhwzKnC3SHXZft8b59+tjTVmd7fbbX5SsYHzdA7f8iwKDjB9nrcOtU7eMfGe/cVsuWLa0A/mRnDfExd96Zl8C6UyEbBREgQF0QZipBAAEEEEAAAQQQQAABBBBAAAEEEEAAAQQQQAABBBBISkDXlW7duo0d1IwbtPRPpx3UFl3XWMsrVCrXAHXU6GodRX7hRRd6HoEZaa4B7OenPs8oao9O7dshQF37nhktRgABBBBAAAEEEEAAAQQQQAABBBBAAAEEEEAAAQTKWmDcuHGiI6iTThoAXbRooTRu0iTpogPLI0CdYhk2bJiMHjXKPqAjrHWUt0n6hYRevXrb643riPmpVpC6UM/ItIHX5AQIUCdnSUkIIIAAAggggAACCCCAAAIIIIAAAggggAACCCCAAAIFEKjoUmEHK/NRVdwR2UnU7Q7Kann+kcVJ1FHIMuJO8R10n+4gtK43PXPmTE8QWtcc720FqVevXiX9+veX8eNTU4EX8h6pK3cBAtS5G1ICAggggAACCCCAAAIIIIAAAggggAACCCCAAAIIIIBAgQQ0ULlvRYVd2/QZMzKa7tl9bVhzNTiqa1EXIvmnHX/YCrr2t4KvtTXlEqDWe3Y/n6Dp1t0j54OmAq+tbuXWbgLU5fbEuV8EEEAAAQQQQAABBBBAAAEEEEAAAQQQQAABBBBAoBYL6NTeGqjMNpAcZ/S1f4rpfHG5A7JaR1BQNl9156PcXAPU2iZ30D4oYG+ev+bN9AsKeg2p5gUIUNf8M6AFCCCAAAIIIIAAAggggAACCCCAAAIIIIAAAggggAACMQR0GujWrdvY0zxnO4LWPQo3rMpCBorbtG4tK1ascJqio7c1+F4bUxIBar1v8yUCXRN85tszPR7uqcALvWZ4bXwmxdhmAtTF+FRoEwIIIIAAAggggAACCCCAAAIIIIAAAggggAACCCCAQDUBd3A520CuBjibNm1arWz/gWzL95eTbt89Yljz9ujRQ3QEd21MSQWoNWDfZZ8u9hcRgjx05LlZjzrofG20K6c2E6Aup6fNvSKAAAIIIIAAAggggAACCCCAAAIIIIAAAggggAACtVjAjKztZ63TPN5arznbNGjQIJk8aVLk5dmO0I4sNOCke1S4OV2ouk19Sb0mFaDW9rgD90Eek6znd4L1HDVdeNFFUllZaW/zV/ELEKAu/mdECxFAAAEEEEAAAQQQQAABBBBAAAEEEEAAAQQQQACBshdwBz/H3HmnvV5ztijukdhhZRRy+mh3MNa0J9d7NOUU8tX9jNasXeupOuqcJ6Nrp2+fPqLXaQpab3rYsGFWIHuUfT5ovWr7BH8VnQAB6qJ7JDQIAQQQQAABBBBAAAEEEEAAAQQQQAABBBBAAAEEEEDAL+AOVuY6/Xbcab6DRu7625XUvvv+TJm1LUgdFYSOOmfu1//qHl3erl17mTr1eWncpIknmxlVH7RetScjO0UjQIC6aB4FDUEAAQQQQAABBBBAAIFSFjj11FPlgQce8NyiTj82dOhQzzF2EEAgWqBOnTrVMrzxxhtywAEHVDvOAQQQQAABBBBAAIHSEXAHN/Wu/KNzs7nTTRo2THtZIUdRazC2S5cuousvu5NOZ66fH5s1a+Y+XJTb7ufkf0ZR56JuJt1U3u71qsOC2FHlc67wAgSoC29OjQgggAACCCCAAAIIIFCmAgSpy/TBc9uJCnzwwQfym9/8plqZBKmrkXAAAQQQQAABBBAoGYF58+ZJ7169ZfXqVc495TqyWcvct6LCKS9qI9f1rqPK9p/Tdv3+zN/L/Pnz/KfsKc279+ghnTt3LtpgtTsI/exzz3nuYcH8BTJs2IYvafuD156MATtnn3WW6LTsmnRUuT9Yr/Waqb4HDx5s5wkohkNFIkCAukgeBM1AAAEEEEAAAQQQQACB8hAgSF0ez5m7zK8AQer8+lI6AggggAACCCBQLAIarJ0wYYKMu2+cJzht2qejZQcOHGjv9uvfr1rQ0uTTVx2dPGnyZOt1tSxZslgmTbK2XQFvd96gba1ryJlDpH+/ftWmmA7Kn8sxbeugQYOctZdzKSvs2h5WoNsfQA7Lm8lxd4A66rpMA9Rho8vD6qhtU6OH3UepHidAXapPlvtCAAEEEEAAAQQQKDmBqVOnBt5Tr169Ao+H5dfMmV6T7/zl1qbbbrtNpk2b5nluTPft4cjrzjPPPJPX8im8MAIff/yxnGWNovAnRlL7RdhHAAEEEEAAAQRqr8DoUaOdEbfp7iLdiOq4gdN09WhQV4O7hUh6/yNGjMgokB63XbUtQK33lekznD5jhrRv3z4uCfkKKECAuoDYVIUAAggggAACCCCAQLYCCxculN133z3w8iuvvFJuvPHGaueC1mk1maqqqsym8/rHP/5Rrr/+emffvfHee+/JHnvs4T4kCxYskHbt2nmOmZ3rrrtOrrnmGrPrvGbapmHDhslNN93kXO/e+PDDD6VVq1buQzJnzhx7qjPPwf/taDlXXHFFtVOZtumSSy4RDTAHpY8++kiaN2/uOTV9+nTZb7/9PMfCdghSh8kkd1z75rXXXptcgZRUlAIEqYvysdAoBBBAAAEEEEAAgSwEzMjve+6+J3Da7yyKtC/JV4A62/ZwXXkJEKAur+fN3SKAAAIIIIAAAgjUUoF3331X9tprr8DWJxWgjgoGBwWoo4LBSQWoo4LBQQHqGda3o/fdd99Ap6QC1Oeff77cfvvtgXUEBahff/11OfDAAwPzb7311vL11197zgV9ecCTgZ2cBAhQ58RXqy7mvVSrHheNRQABBBBAAAEEEIghoMHq2dYXs3Ut51xT4yaN7TWtcy2H6xHIRoAAdTZqXIMAAggggAACCCCAQIEF5s6dK506dQqsNakA9aWXXiq33nprYB1BAeqoYHBSAeqoYHBQgFpHTXbt2jXwHpIKUOuUwnfddVdgHUEBap2C7OCDDw7M7z84cuRI0edAyp8AAer82RZTyTpzQUVFRTE1ibYggAACCCCAAAIIIIAAAgj8T4AANV0BAQQQQAABBBBAAIFaIqDB159//tn588svv9jbffr0CbwDzW/y6HXu7cMOOyzwGh3tG1RH3759Q/O7yzXbtblNbqswp9dee83jae47rpOuIfbyyy97TAlOezjyuhO1PnteK6bwRAX0CyF/+MMfqpVJcLoaCQcQQAABBBBAAAEEEEAAgaISIEBdVI+DxiCAAAIIIIAAAggggECpC5x44ony8MMPe26T4LSHgx0E0gqELXtAcDotHRkQQAABBBBAAAEEEEAAgRoXIEBd44+ABiCAAAIIIIAAAggggEC5CJxwwgkyfvx4z+0SnPZwsINAWoEFCxZIu3btquUjOF2NhAMIIIAAAggggAACCCCAQFEKEKAuysdCoxBAAAEEEEAAAQQQQKDUBAhOl9oT5X5qSqBOnTrVqiY4XY2EAwgggAACCCCAAAIIIIBA0QoQoC7aR0PDEEAAAQQQQAABBBBAAAEEEEAAAQQQQAABBBBAAAEEEEAAgdISIEBdWs+Tu0EAAQQQQAABBBBAAAEEEEAAAQQQQAABBBBAAAEEEEAAAQSKVoAAddE+GhqGAAIIIIAAAggggAACCCCAAAIIIIAAAggggAACCCCAAAIIlJYAAerSep7cDQIIIIAAAggggAACCCCAAAIIIIAAAggggAACCCCAAAIIIFC0AgSoi/bR0DAEEEAAAQQQQAABBBBAAAEEEEAAAQQQQAABBBBAAAEEEECgtAQIUJfW8+RuEEAAAQQQQAABBBBAAAEEEEAAAQQQQAABBBBAAAEEEEAAgaIVIEBdtI+GhiGAAAIIIIAAAggggAACCCCAAAIIIIAAAggggAACCCCAAAKlJUCAurSeJ3eDAAIIIIAAAggggAACCCCAAAIIIIAAAggggAACCCCAAAIIFK0AAeqifTQ0DAEEEEAAAQQQQAABBBBAAAEEEEAAAQQQQAABBBBAAAEEECgtAQLUpfU8uRsEEEAAAQQQQAABBBBAAAEEEEAAAQQQQAABBBBAAAEEEECgaAUIUBfto6FhCCCAAAIIIIAAAggggAACCCCAAAIIIIAAAggggAACCCCAQGkJEKAurefJ3SCAAAIIIIAAAggggAACCCCAAAIIIIAAAggggAACCCCAAAJFK0CAumgfDQ1DAAEEEEAAAQQQQAABBBBAAAEEEEAAAQQQQAABBBBAAAEESkuAAHVpPU/uBgEEEEAAAQQQQAABBBBAAAEEEEAAAQQQQAABBBBAAAEEEChaAQLURftoaBgCCCCAAAIIIIAAAggggAACCCCAAAIIIIAAAggggAACCCBQWgIEqEvreXI3CCCAAAIIIIAAAggggAACCCCAAAIIIIAAAggggAACCCCAQNEKEKAu2kdDwxBAAAEEEEAAAQQQQAABBBBAAAEEEEAAAQQQQAABBBBAAIHSEiBAXVrPk7tBAAEEEEAAAQQQQAABBBBAAAEEEEAAAQQQQAABBBBAAAEEilaAAHXRPhoahgACCCCAAAIIIIAAAggggAACCCCAAAIIIIAAAggggAACCJSWAAHq0nqe3A0CCCCAAAIIIIAAAggggAACCCCAAAIIIIAAAggggAACCCBQtAIEqIv20dAwBBBAAAEEEEAAAQQQQAABBBBAAAEEEEAAAQQQQAABBBBAoLQECFCX1vPkbhBAAAEEEEAAAQQQQAABBBBAAAEEEEAAAQQQQAABBBBAAIGiFSBAXbSPhoYhgAACCCCAAAIIIIAAAggggAACCCCAAAIIIIAAAggggAACpSVAgLq0nid3gwACCCCAAAIIIFBLBHr27CnTpk2L3domTZpIixYtpGXLlnLIIYfIGWecEfvaYs6oBkOGDLGbeM8999j3lkR7V61aJWPHjrWNX3jhhSSKrJEy1EfvQ5+3PndSdgLvvPOO3HXXXdKqVSu59NJLsyuEqxITyNf7PrEGUhACCCCAAAIIIIAAAggggEBeBQhQ55WXwhFAAAEEEEAAAQQQCBbQAKr+mTVrlh2g1W1NGogcNmyYaEDanfT84sWLZeLEiXbAUs+PHDmy1geqNei+fPly+1abN28uH330kfu2M9pWI/XRP+7gf1VVVUbl1HRm9aisrLTvw/QLDbIToM7uyaih9jN91ffNt99+m11BXJWYQJLv+8QaRUEIIIAAAggggAACCCCAAAIFEyBAXTBqKkIAAQQQQAABBBBAIFjglltukcsuu8w+qcEzf3Daf5WOBu3evbsdcNMgdW0eEdqxY0fR+9HUoUMHmTt3rv92Y+9rAFIDuxrg1QC1Ce7WtgC1tlvbb4LtCkCAOnY3qJZRHQcMGGC/r9R2woQJcswxx1TLx4HCCST5vi9cq6kJAQQQQAABBBBAAAEEEEAgKQEC1ElJUg4CCCCAAAIIIIAAAlkKuAPUcYOpGsDUacI1aVBXg7u1MZnRwtp2HTmuo6iTSDottpk6PK5pEvUmXcaWW25pB9oJUGcva94n2re0X+hI9CSmfddysykn2+uyFyjMlZncV77e94W5U2pBAAEEEEAAAQQQQAABBBDIVYAAda6CXI8AAggggAACCCCAQI4C2QSotUozTa5OC67rN5NSAu4Afm0OUNepU8e+KQLUqWebyZaOmNYgv74/NEBtgtU6lbzuZ5u0XH3/ZTpdeLbXZdvOQl1XqvdVKD/qQQABBBBAAAEEEEAAAQTKTYAAdbk9ce4XAQQQQAABBBBAoOgEsg1Q6whhHRGqgbZc1m4uOpAEGkSAOgHEEihC3x86fb6+P3TqfPOlDp0WX6fHzzbptPQ6TXWmX37I9rps21mo60r1vgrlRz0IIIAAAggggAACCCCAQLkJEKAutyfO/SKAAAIIIIAAAggUnUC2AWoNvOm1mjINlBUdQsINIkCdMGgtLU6DyC1btrTXndZbMO81DVZnOvrZTWDKyfR9l+117rqLcbtU76sYrWkTAggggAACCCCAAAIIIFAKAgSoS+Epcg8IIIAAAggggAACtVrABHf0JjIJeDGCOvyxE6AOtymXM7rOsY6Ydk+Pbo6pwYQJE+SYY47JisOMxM7k/aoVZXtdVo0s4EWlel8FJKQqBBBAAAEEEEAAAQQQQKCsBAhQl9Xj5mYRQAABBBBAAAEEilEg2wC1jg7VqXVZg7r6UyVAXd2k3I7o+6qysrLaSGldh1r7xyGHHGIHrzNx0bWW9YshEydOtC+LG6DO9rpM2lYTeUv1vmrCkjoRQAABBBBAAAEEEEAAgXISIEBdTk+be0UAAQQQQAABBBAoSoFsAtRmzVe9IfcI0XQ3qAElXZdXA3SLFy8WHVGqa1jvvffe9mjSTEaUahla1qxZs5xyWrVqJe3bt7fL0/O6r+v9hiVtj+bTgJ8G2jVoGCf569Ypm/Ue9HotR9ukgUhNQUFErVfzaDnz5s2LDFRmkte0Xcs1ZX/11Vf2Fwn0XIcOHeTggw+WYcOG2Wsim/xhr3Xq1LFPZfKMw8oqt+M6qlf7s3+taX0upm/o2tTa/+OkAQMG2M9U+0NY0vp0ZLY7ZXuduwzd1npzfe+6+6X2KZP0uPu9rP30uOOOi3zv5nJfei9aZybve/1Zdeedd9rvV//PLvO+N/cT9ZqkQVQ9nEMAAQQQQAABBBBAAAEEEIgQsH5ZQ0IAAQQQQAABBBBAAIEaFLACaFXWf9ntP3GbYQWQ7PxWMDbuJVVajxXIrdJrrSBalRWcq7LW4a2aO3euc84K1tn7UYXqNVZAyK5fy9Tr9ZiWZwW9qqwgnXM/Wl9Q0ryaT8+be9dr0yV33XqdlqFtMH+0XVqmuphy/WXec889nno1X1gyZqasqLxahlqYZ6Pt0Ov1XrXd+sfUrec0b7pk6o1jk66scjqvXmoXZmz6nfXlidgsWpb+0WeqZZtnaI7rqz5rfzLnM73OXY7ph9m+d7Xfmb5kXrV8bZvpr/qq7yezr/n0/RSWsrkv9cnmfW/ez9oe/88ufYb6LPRnV9T7JB8GYTYcRwABBBBAAAEEEEAAAQQQiBYI/01M9HWcRQABBBBAAAEEEEAAgYQETOBKA0JRSQOcGpwxAaRMgtMmwBMVkNPgkQZ5TOAtrC2mrKhgkDvwpW32J3Mvpiy996jy9Hq9xty7vgYFAzWf1q334Q7E6XF/ctftP+fe13rj5NX2mMCn1q3tCEomeKr3kC6Ze0hnk66ccjuvzyvKV98Haqv9JNNknp9en0nK9jrT93J972r/1OCw6VPm546+ah93J3df1sBuVMrkvrJ535svw8S5f723oJ83pv35MjDl84oAAggggAACCCCAAAIIIBBPILNP1PHKJBcCCCCAAAIIIIAAAghkIGACRSZwFPZqRglqwCos+BlUrRk5qMGpdMkEm6KCe9oO/RMnaXApqiwtwwR1te6oZAJ1mt8fUPNfp0Eq4+g/Z/bNvWq+dClOXned6axN2zRgFpVMvnQ2UWWU4zntI/q+Ckvqnq1tnL4QVG821yX93nW3Qd+bUe8j83NJ80Uld5lR+fzn4rzvzRcJ0rVByzbt0HKj3lcmnz7/pAz898Y+AggggAACCCCAAAIIIIBAtABrUFufSkkIIIAAAggggAACCNSkgHsNaitg5GmKrtVqBXjt9WetgFHkmrCeC/+3o9frWrz6agVtxBoxGpTNc0zz63qvViAncE1oc17bagWDPNcG7XTs2FHuu+8++z6CzsdZZ1nbo/VqsoJ29jrTQWWZY7rOrFln2PpIZA57XuPkMRfEyavGui6vJm1jlHWce9Zy4ubTvKQNAuZZpeuf2i91LXcrSBm5Brnf1ZSvx8P6lv8a3c/0uny8d00b9H3r/1njb3PcvCafXp+JR7q+7X7PW1/ICf354W63vue1PdYXRKqtBW7ymfYmaWDK5hUBBBBAAAEEEEAAAQQQQCCmQHT8mrMIIIAAAggggAACCCCQbwEzUtH6L3xgVWYUoY4MtIJKgXnCDpoRmHFGIJoyzEhlfQ1Kpj06MjpqpKK5Nl2b9b71j45sDEvGKK6Be5RkWJlx8phrM8lrrol6jXPPen3cfFF1lds5Hb0ep7+b94Yax+nHxjHbvpDpdaZ9ce7FtC3dezeTNsTNGzefaaN5Tde3zXve+qKHuSTtq3sWg7CfO5m0N5O8aRtHBgQQQAABBBBAAAEEEEAAAUeAEdTWp2ISAggggAACCCCAAAI1KeAeQW39T71aU9wjKa3gsOhI6rjJjCjUa/TaOMm0R0du68jFoGTK1XM6AlVHLOofHZWYaUo3klLLM/VpXVbQKG0VZpSkZgwy1eNx8mg+TZnk3XBF8N86KnTx4sX2SGt9rnovek9hKY5N2LXleFxNt9xyS/s9cvDBB0cSfPXVV84o+0zeH9n2hUyvM30+k7ale+9m0oa4eePm8z+MdH3b3L8VdLdnJPBfH7TvHnVtBavtn0n+fJm0N5O8/nrYRwABBBBAAAEEEEAAAQQQCBcgQB1uwxkEEEAAAQQQQAABBAoiYIJKWllYMNXk0QCwTkscNX20u9FmOm69ToN3cZI7b1h7tJyxY8dKZWWlaFDIJA1qH3fccXZgKG4b0wWqtGxzH3GDVXECS3HymPvKJK+5Rl/VfOLEiXaAe9asWfapVq1a2fu6Q4DaJknsL+2TQ4YMiV2e6evaV61R1LGuy7YvZHqd6fOmjXEa584b9N7NpA1x88bN529/uve9uf9MAvRah35BQd93Yddl0t5M8vrvj30EEEAAAQQQQAABBBBAAIFwAQLU4TacQQABBBBAAAEEEECgIAIm+KyVBQWVTCNMwCZqfVWT17yaIJCOntbAcaZJA87pkgZgTRDWHQTXkcEjRoxIu3asaWNUsNbkiTuCPE5gKU4ec++Z5NVrNL8+V301o8vVQwOImsz9RN1zJvnsQvnLHhGtwWZdAzxO0i976FrUmtI9C1Nepn0h2+tMH0nyvZtJ2+PmjZvPOJhXc39h7uZ8WKDZlON/NdeF/azIpL2Z5PW3g30EEEAAAQQQQAABBBBAAIEIAesXYCQEEEAAAQQQQAABBBCoQQErAOOsNRzVDLMmrfXf+ypr6u2orM45K1hnl611FCJZwaYqXQfXCsQ695Subr0f/aPXhiVzH1p2nKRlmXLD8sfJY66Nm1fXvbUC0nbdVkA6dG1j07aoe9a64+Yz7SznV11HWr3ivjeMla6lrtfpc4uT4vYFf1mZXmf6fLr3j7+eqP1M2hA3b9x8/nal69vZ3r/52RPmlkl7M8nrvz/2EUAAAQQQQAABBBBAAAEEwgV0hAYJAQQQQAABBBBAAAEEalBAAykmWJOuGSaYpsHPOEnzZRJ8i1Nm3Dx6XyZYpMH1sGTuXYNBYcncR9z7jhNYipPHtCdOXg1Om+djjd40lwa+xrlnvTBuvsBKyuyg9jf1zzS5v/ihzzBditMXgsrI9DrT5+MGzoPq9B/LpA1x88bN529Lur5t7j/ul1K0fH1+plxrDWp/lfZ+Ju3NJG9gZRxEAAEEEEAAAQQQQAABBBAIFGCKb+vTKwkBBBBAAAEEEEAAgZoUiDvFt7bRPeWsFTwRK4gT2XRTtk4tbQVvIvPGOWnWm7ZGN8bJ7rTXChyKNbI18BozJW/U/WR6H24n65NQYL1x8pgL4+S97LLL7Gm91SbdesZx7lnrjpvPtLOcX3Wqbp3GXqd2ziTptPQ6fX7UusXu8uL0BXd+s53pdZn2eVNP1GsmbYibN24+f7vS9W1z/1E/O/xlutuiP+/0554/ufOE/Www12SS11zDKwIIIIAAAggggAACCCCAQHoBAtTpjciBAAIIIIAAAggggEBeBUwgRitJFzDRPD179rQDv3ECNxpQ1uCbJmtEob0esr0T4y8NzvgD4Fpev3795OWXXw4M/gQVawJRYfdmzkcFqN33oesLW6Mqg6pyjsUJLMXJYwqMk1edtZ3aNm1jVIpzz3p93HxRdZXDObOWdFhQMp3BkCFDZOzYsRLnywVx+kJQfZle5+7zSbx3tU2ZtCFu3rj5/Cbp+rb7/vXLLfrzLl0aMGCATJw40f45p2ZBKZP2ZpI3qC6OIYAAAggggAACCCCAAAIIhAhYvyQiIYAAAggggAACCCCAQA0KZDLFtzbTPe1s1NTZ5pZ0umnr44A93bau0xsnabk6xW5Q0uP6R6fTTZc0j9ZtBZdCs+p5/aP3FZV0ql/NZwUR09at0/uacsPKNI46DXm6ZOrWMsOStkvPp5uSWU3M1Ofp7tncQ7p8YW0ql+P6fML6axwDXbc6rrXpN2F9IWwN7GyuS/q9m64Nbqu4edPlC/OI423uP86zdT/DsDr1/tK1NxsD9zVsI4AAAggggAACCCCAAAIIpBcI/+1K+mvJgQACCCCAAAIIIIAAAgkIuIOfcQPIGgTVAE+cYK02UQM8Jr8GaMKS1q9la0A5LACtwes4ZWkd5t6iAulxAlValrZH26X59TXMSoNTJlisecPuQ8s0+fRLAkFJA91al/GLKs/cqwafwwJkam/uQcvS8jWFtdEEsk2+oDaW+zG1Uyf1zyUZ63TBUK1Pn505mYTgAAAGc0lEQVT+cb+X9Li+d8L6erbXmb6nfdVdn/9e47x3zRc39F7Tpbh5s72vIMOgNpn712B1WNJ7N+/ldO+VuPeldWWSN6xtHEcAAQQQQAABBBBAAAEEEKguQIC6uglHEEAAAQQQQAABBBDIu4AGdTSo4h49rQEbDV5qEErPRyX3aEEN4MS5xoxGNPXovtavf3TbBILSBfq0bSaYp2XpdRqU0zbpOf2j7THlhQV/NZ8Jdms5GtxTk6ik15hyzTXmHvRVz5lgpZ437dNAk17rT9pOk08DXNoG/WPKMc/DnU/PBZWn5buDz5pPXY2ttkvPq5PJZ/L4zdVBrzNtM+0Iugf/PZXLvlroczGW+vz0uahdXCfNp/m17xhrfdXnYfpzkKeeN/n1Geof0++C8ptj2V7n7wu6b/q96V+m3aYu/6vej7bTtFuv03sPSv68WldYXr0+k/tS80zf96Z8bb/7GWs7tW1qny6Ar+3031eSBlo+CQEEEEAAAQQQQAABBBBAIJ4AAep4TuRCAAEEEEAAAQQQQCBRAXegyASM/K8afItKJmjjvi5s9KYpR4NMGtDR+s2IQ33V/XRBKFOGvmpgR/9oG7VObYsJFGqwSMtLF/xxt9u9rQHidEnr1XzmHkydeg8mcKnntE2aT9sXFrTUoJW7LL1O993+uh23PL+vtkHrDypPy9T87qTtcXu4t9WVtEFA7dw27m09ly7p83BfE7Qd5a3PTesxfU8Dp3FSttfl8t7V92LQ/ekxd7/U9mvfj5vXfb9x7iuqb2u9UUmv1fvQZ6Lm2kb11+vS/dzTcgthENV+ziGAAAIIIIAAAggggAACCKQE6uim9cGOhAACCCCAAAIIIIAAAggggAACCCCAAAIIIIAAAggggAACCCCAQF4FCFDnlZfCEUAAAQQQQAABBBBAAAEEEEAAAQQQQAABBBBAAAEEEEAAAQSMAAFqI8ErAggggAACCCCAAAIIIIAAAggggAACCCCAAAIIIIAAAggggEBeBQhQ55WXwhFAAAEEEEAAAQQQQAABBBBAAAEEEEAAAQQQQAABBBBAAAEEjAABaiPBKwIIIIAAAggggAACCCCAAAIIIIAAAggggAACCCCAAAIIIIBAXgUIUOeVl8IRQAABBBBAAAEEEEAAAQQQQAABBBBAAAEEEEAAAQQQQAABBIwAAWojwSsCCCCAAAIIIIAAAggggAACCCCAAAIIIIAAAggggAACCCCAQF4FCFDnlZfCEUAAAQQQQAABBBBAAAEEEEAAAQQQQAABBBBAAAEEEEAAAQSMAAFqI8ErAggggAACCCCAAAIIIIAAAggggAACCCCAAAIIIIAAAggggEBeBQhQ55WXwhFAAAEEEEAAAQQQQAABBBBAAAEEEEAAAQQQQAABBBBAAAEEjAABaiPBKwIIIIAAAggggAACCCCAAAIIIIAAAggggAACCCCAAAIIIIBAXgUIUOeVl8IRQAABBBBAAAEEEEAAAQQQQAABBBBAAAEEEEAAAQQQQAABBIwAAWojwSsCCCCAAAIIIIAAAggggAACCCCAAAIIIIAAAggggAACCCCAQF4FCFDnlZfCEUAAAQQQQAABBBBAAAEEEEAAAQQQQAABBBBAAAEEEEAAAQSMAAFqI8ErAggggAACCCCAAAIIIIAAAggggAACCCCAAAIIIIAAAggggEBeBQhQ55WXwhFAAAEEEEAAAQQQQAABBBBAAAEEEEAAAQQQQAABBBBAAAEEjAABaiPBKwIIIIAAAggggAACCCCAAAIIIIAAAggggAACCCCAAAIIIIBAXgUIUOeVl8IRQAABBBBAAAEEEEAAAQQQQAABBBBAAAEEEEAAAQQQQAABBIwAAWojwSsCCCCAAAIIIIAAAggggAACCCCAAAIIIIAAAggggAACCCCAQF4FCFDnlZfCEUAAAQQQQAABBBBAAAEEEEAAAQQQQAABBBBAAAEEEEAAAQSMAAFqI8ErAggggAACCCCAAAIIIIAAAggggAACCCCAAAIIIIAAAggggEBeBQhQ55WXwhFAAAEEEEAAAQQQQAABBBBAAAEEEEAAAQQQQAABBBBAAAEEjAABaiPBKwIIIIAAAggggAACCCCAAAIIIIAAAggggAACCCCAAAIIIIBAXgUIUOeVl8IRQAABBBBAAAEEEEAAAQQQQAABBBBAAAEEEEAAAQQQQAABBIzA/wNaH88zEbjPfgAAAABJRU5ErkJggg==;" vertex="1" parent="1">
          <mxGeometry x="160" y="350" width="520" height="125" as="geometry" />
        </mxCell>
        <mxCell id="rfoxh8sL7PM3ER87yD67-4" value="" style="rounded=0;whiteSpace=wrap;html=1;labelBorderColor=none;fontColor=none;noLabel=1;labelBackgroundColor=default;strokeColor=none;" vertex="1" parent="1">
          <mxGeometry x="160" y="380" width="10" height="20" as="geometry" />
        </mxCell>
        <mxCell id="rfoxh8sL7PM3ER87yD67-2" value="$$u \in R^{L \times D}$$" style="text;html=1;align=center;verticalAlign=middle;resizable=0;points=[];autosize=1;strokeColor=none;fillColor=none;labelBackgroundColor=default;labelBorderColor=none;" vertex="1" parent="1">
          <mxGeometry x="120" y="370" width="150" height="30" as="geometry" />
        </mxCell>
        <mxCell id="rfoxh8sL7PM3ER87yD67-6" value="" style="rounded=0;whiteSpace=wrap;html=1;fillColor=default;strokeColor=none;" vertex="1" parent="1">
          <mxGeometry x="170" y="420" width="20" height="30" as="geometry" />
        </mxCell>
        <mxCell id="rfoxh8sL7PM3ER87yD67-5" value="&lt;div&gt;$$Au$$&lt;/div&gt;" style="text;html=1;align=center;verticalAlign=middle;resizable=0;points=[];autosize=1;strokeColor=none;fillColor=none;labelBackgroundColor=default;" vertex="1" parent="1">
          <mxGeometry x="160" y="420" width="60" height="30" as="geometry" />
        </mxCell>
        <mxCell id="rfoxh8sL7PM3ER87yD67-7" value="$$A \in R^{L \times D}$$" style="text;html=1;align=center;verticalAlign=middle;whiteSpace=wrap;rounded=0;labelBackgroundColor=default;" vertex="1" parent="1">
          <mxGeometry x="610" y="445" width="60" height="30" as="geometry" />
        </mxCell>
      </root>
    </mxGraphModel>
  </diagram>
</mxfile>
